{
.appVersion = "3148";
DisplayStrings = (
"/uni036E",

glyphs = (
{
glyphname = .notdef;
lastChange = "2018-06-23 23:49:06 +0000";
layers = (
{
layerId = "120467F4-1FD8-4738-87D7-3EC9C6A2741E";
paths = (
{
closed = 1;
nodes = (
"505 0 LINE",
"505 714 LINE",
"94 714 LINE",
"94 0 LINE"
);
},
{
closed = 1;
nodes = (
"454 663 LINE",
"454 51 LINE",
"145 51 LINE",
"145 663 LINE"
);
}
);
width = 600;
}
);
note = ".notdef";
},
{
glyphname = exclam;
lastChange = "2018-06-23 23:49:06 +0000";
layers = (
{
layerId = "120467F4-1FD8-4738-87D7-3EC9C6A2741E";
paths = (
{
closed = 1;
nodes = (
"59 714 LINE",
"84 237 LINE",
"203 237 LINE",
"228 714 LINE"
);
},
{
closed = 1;
nodes = (
"57 17 OFFCURVE",
"88 -13 OFFCURVE",
"143 -13 CURVE SMOOTH",
"196 -13 OFFCURVE",
"228 19 OFFCURVE",
"228 70 CURVE SMOOTH",
"228 123 OFFCURVE",
"197 153 OFFCURVE",
"143 153 CURVE SMOOTH",
"87 153 OFFCURVE",
"57 125 OFFCURVE",
"57 70 CURVE SMOOTH"
);
}
);
width = 286;
}
);
note = exclam;
unicode = 0021;
},
{
glyphname = quotedbl;
lastChange = "2018-06-23 23:49:06 +0000";
layers = (
{
layerId = "120467F4-1FD8-4738-87D7-3EC9C6A2741E";
paths = (
{
closed = 1;
nodes = (
"85 456 LINE",
"181 456 LINE",
"201 714 LINE",
"65 714 LINE"
);
},
{
closed = 1;
nodes = (
"291 456 LINE",
"387 456 LINE",
"407 714 LINE",
"271 714 LINE"
);
}
);
width = 472;
}
);
note = quotedbl;
unicode = 0022;
},
{
glyphname = numbersign;
lastChange = "2018-06-23 23:49:06 +0000";
layers = (
{
layerId = "120467F4-1FD8-4738-87D7-3EC9C6A2741E";
paths = (
{
closed = 1;
nodes = (
"624 514 LINE",
"507 514 LINE",
"545 713 LINE",
"440 713 LINE",
"402 514 LINE",
"305 514 LINE",
"343 713 LINE",
"236 713 LINE",
"198 514 LINE",
"57 514 LINE",
"57 412 LINE",
"180 412 LINE",
"157 299 LINE",
"22 299 LINE",
"22 198 LINE",
"138 198 LINE",
"102 0 LINE",
"207 0 LINE",
"244 198 LINE",
"339 198 LINE",
"301 0 LINE",
"408 0 LINE",
"446 198 LINE",
"591 198 LINE",
"591 299 LINE",
"465 299 LINE",
"488 412 LINE",
"624 412 LINE"
);
},
{
closed = 1;
nodes = (
"382 412 LINE",
"359 299 LINE",
"263 299 LINE",
"286 412 LINE"
);
}
);
width = 646;
}
);
note = numbersign;
unicode = 0023;
},
{
glyphname = dollar;
lastChange = "2018-06-23 23:49:06 +0000";
layers = (
{
layerId = "120467F4-1FD8-4738-87D7-3EC9C6A2741E";
paths = (
{
closed = 1;
nodes = (
"533 280 OFFCURVE",
"509 322 OFFCURVE",
"456 357 CURVE SMOOTH",
"429 375 OFFCURVE",
"383 396 OFFCURVE",
"320 421 CURVE",
"320 565 LINE",
"373 561 OFFCURVE",
"425 548 OFFCURVE",
"476 527 CURVE",
"522 641 LINE",
"462 668 OFFCURVE",
"395 683 OFFCURVE",
"320 686 CURVE",
"320 759 LINE",
"253 759 LINE",
"253 684 LINE",
"121 671 OFFCURVE",
"43 606 OFFCURVE",
"43 512 CURVE SMOOTH",
"43 424 OFFCURVE",
"91 370 OFFCURVE",
"220 319 CURVE SMOOTH",
"253 306 LINE",
"253 155 LINE",
"190 159 OFFCURVE",
"101 183 OFFCURVE",
"44 211 CURVE",
"44 82 LINE",
"104 56 OFFCURVE",
"173 42 OFFCURVE",
"253 40 CURVE",
"253 -58 LINE",
"320 -58 LINE",
"320 42 LINE",
"455 54 OFFCURVE",
"533 120 OFFCURVE",
"533 223 CURVE SMOOTH"
);
},
{
closed = 1;
nodes = (
"386 185 OFFCURVE",
"364 166 OFFCURVE",
"320 158 CURVE",
"320 280 LINE",
"364 260 OFFCURVE",
"386 243 OFFCURVE",
"386 216 CURVE SMOOTH"
);
},
{
closed = 1;
nodes = (
"190 540 OFFCURVE",
"211 557 OFFCURVE",
"253 563 CURVE",
"253 448 LINE",
"208 468 OFFCURVE",
"190 483 OFFCURVE",
"190 512 CURVE SMOOTH"
);
}
);
width = 571;
}
);
note = dollar;
unicode = 0024;
},
{
glyphname = percent;
lastChange = "2018-06-23 23:49:06 +0000";
layers = (
{
layerId = "120467F4-1FD8-4738-87D7-3EC9C6A2741E";
paths = (
{
closed = 1;
nodes = (
"154 542 OFFCURVE",
"158 572 OFFCURVE",
"165 592 CURVE SMOOTH",
"172 612 OFFCURVE",
"184 622 OFFCURVE",
"200 622 CURVE SMOOTH",
"231 622 OFFCURVE",
"247 582 OFFCURVE",
"247 500 CURVE SMOOTH",
"247 418 OFFCURVE",
"231 377 OFFCURVE",
"200 377 CURVE SMOOTH",
"184 377 OFFCURVE",
"172 387 OFFCURVE",
"165 408 CURVE SMOOTH",
"158 428 OFFCURVE",
"154 458 OFFCURVE",
"154 500 CURVE SMOOTH"
);
},
{
closed = 1;
nodes = (
"370 644 OFFCURVE",
"309 724 OFFCURVE",
"199 724 CURVE SMOOTH",
"87 724 OFFCURVE",
"31 650 OFFCURVE",
"31 501 CURVE SMOOTH",
"31 355 OFFCURVE",
"92 276 OFFCURVE",
"199 276 CURVE SMOOTH",
"311 276 OFFCURVE",
"370 351 OFFCURVE",
"370 501 CURVE SMOOTH"
);
},
{
closed = 1;
nodes = (
"193 0 LINE",
"310 0 LINE",
"706 714 LINE",
"589 714 LINE"
);
},
{
closed = 1;
nodes = (
"654 256 OFFCURVE",
"658 287 OFFCURVE",
"665 307 CURVE SMOOTH",
"672 327 OFFCURVE",
"684 337 OFFCURVE",
"700 337 CURVE SMOOTH",
"731 337 OFFCURVE",
"747 296 OFFCURVE",
"747 215 CURVE SMOOTH",
"747 133 OFFCURVE",
"731 92 OFFCURVE",
"700 92 CURVE SMOOTH",
"684 92 OFFCURVE",
"672 102 OFFCURVE",
"665 123 CURVE SMOOTH",
"658 143 OFFCURVE",
"654 173 OFFCURVE",
"654 215 CURVE SMOOTH"
);
},
{
closed = 1;
nodes = (
"870 359 OFFCURVE",
"809 439 OFFCURVE",
"699 439 CURVE SMOOTH",
"587 439 OFFCURVE",
"531 365 OFFCURVE",
"531 216 CURVE SMOOTH",
"531 71 OFFCURVE",
"592 -9 OFFCURVE",
"699 -9 CURVE SMOOTH",
"811 -9 OFFCURVE",
"870 67 OFFCURVE",
"870 216 CURVE SMOOTH"
);
}
);
width = 901;
}
);
note = percent;
unicode = 0025;
},
{
glyphname = ampersand;
lastChange = "2018-06-23 23:49:06 +0000";
layers = (
{
layerId = "120467F4-1FD8-4738-87D7-3EC9C6A2741E";
paths = (
{
closed = 1;
nodes = (
"655 208 OFFCURVE",
"698 295 OFFCURVE",
"721 383 CURVE",
"566 383 LINE",
"549 323 OFFCURVE",
"529 274 OFFCURVE",
"506 236 CURVE",
"367 371 LINE",
"467 429 OFFCURVE",
"510 491 OFFCURVE",
"510 569 CURVE SMOOTH",
"510 663 OFFCURVE",
"431 724 OFFCURVE",
"310 724 CURVE SMOOTH",
"183 724 OFFCURVE",
"101 658 OFFCURVE",
"101 559 CURVE SMOOTH",
"101 499 OFFCURVE",
"122 451 OFFCURVE",
"171 395 CURVE",
"75 340 OFFCURVE",
"40 282 OFFCURVE",
"40 193 CURVE SMOOTH",
"40 68 OFFCURVE",
"140 -10 OFFCURVE",
"299 -10 CURVE SMOOTH",
"377 -10 OFFCURVE",
"448 12 OFFCURVE",
"510 55 CURVE",
"566 0 LINE",
"750 0 LINE",
"603 143 LINE"
);
},
{
closed = 1;
nodes = (
"197 248 OFFCURVE",
"220 277 OFFCURVE",
"258 306 CURVE",
"420 145 LINE",
"387 125 OFFCURVE",
"350 115 OFFCURVE",
"309 115 CURVE SMOOTH",
"243 115 OFFCURVE",
"197 151 OFFCURVE",
"197 207 CURVE SMOOTH"
);
},
{
closed = 1;
nodes = (
"372 513 OFFCURVE",
"341 485 OFFCURVE",
"285 454 CURVE",
"254 489 OFFCURVE",
"239 520 OFFCURVE",
"239 549 CURVE SMOOTH",
"239 587 OFFCURVE",
"266 609 OFFCURVE",
"309 609 CURVE SMOOTH",
"346 609 OFFCURVE",
"372 588 OFFCURVE",
"372 553 CURVE SMOOTH"
);
}
);
width = 750;
}
);
note = ampersand;
unicode = 0026;
},
{
glyphname = quotesingle;
lastChange = "2018-06-23 23:49:06 +0000";
layers = (
{
layerId = "120467F4-1FD8-4738-87D7-3EC9C6A2741E";
paths = (
{
closed = 1;
nodes = (
"85 456 LINE",
"181 456 LINE",
"201 714 LINE",
"65 714 LINE"
);
}
);
width = 266;
}
);
note = quotesingle;
unicode = 0027;
},
{
glyphname = parenleft;
lastChange = "2018-06-23 23:49:06 +0000";
layers = (
{
layerId = "120467F4-1FD8-4738-87D7-3EC9C6A2741E";
paths = (
{
closed = 1;
nodes = (
"40 104 OFFCURVE",
"91 -47 OFFCURVE",
"187 -158 CURVE",
"308 -158 LINE",
"220 -38 OFFCURVE",
"170 115 OFFCURVE",
"170 275 CURVE SMOOTH",
"170 434 OFFCURVE",
"217 588 OFFCURVE",
"309 714 CURVE",
"187 714 LINE",
"92 601 OFFCURVE",
"40 446 OFFCURVE",
"40 274 CURVE SMOOTH"
);
}
);
width = 339;
}
);
note = parenleft;
unicode = 0028;
},
{
glyphname = parenright;
lastChange = "2018-06-23 23:49:06 +0000";
layers = (
{
layerId = "120467F4-1FD8-4738-87D7-3EC9C6A2741E";
paths = (
{
closed = 1;
nodes = (
"299 445 OFFCURVE",
"248 600 OFFCURVE",
"152 714 CURVE",
"30 714 LINE",
"122 588 OFFCURVE",
"169 434 OFFCURVE",
"169 275 CURVE SMOOTH",
"169 115 OFFCURVE",
"119 -39 OFFCURVE",
"31 -158 CURVE",
"152 -158 LINE",
"247 -49 OFFCURVE",
"299 103 OFFCURVE",
"299 274 CURVE SMOOTH"
);
}
);
width = 339;
}
);
note = parenright;
unicode = 0029;
},
{
glyphname = asterisk;
lastChange = "2018-06-23 23:49:06 +0000";
layers = (
{
layerId = "120467F4-1FD8-4738-87D7-3EC9C6A2741E";
paths = (
{
closed = 1;
nodes = (
"228 580 LINE",
"50 631 LINE",
"31 509 LINE",
"196 496 LINE",
"88 351 LINE",
"203 293 LINE",
"270 445 LINE",
"346 292 LINE",
"457 351 LINE",
"348 496 LINE",
"514 508 LINE",
"498 631 LINE",
"316 580 LINE",
"336 760 LINE",
"208 760 LINE"
);
}
);
width = 545;
}
);
note = asterisk;
unicode = 002A;
},
{
glyphname = plus;
lastChange = "2018-06-23 23:49:06 +0000";
layers = (
{
layerId = "120467F4-1FD8-4738-87D7-3EC9C6A2741E";
paths = (
{
closed = 1;
nodes = (
"339 111 LINE",
"339 299 LINE",
"528 299 LINE",
"528 406 LINE",
"339 406 LINE",
"339 596 LINE",
"232 596 LINE",
"232 406 LINE",
"43 406 LINE",
"43 299 LINE",
"232 299 LINE",
"232 111 LINE"
);
}
);
width = 571;
}
);
note = plus;
unicode = 002B;
},
{
glyphname = comma;
lastChange = "2018-06-23 23:49:06 +0000";
layers = (
{
layerId = "120467F4-1FD8-4738-87D7-3EC9C6A2741E";
paths = (
{
closed = 1;
nodes = (
"80 116 LINE",
"68 40 OFFCURVE",
"52 -42 OFFCURVE",
"31 -129 CURVE",
"138 -129 LINE",
"179 -39 OFFCURVE",
"207 39 OFFCURVE",
"224 105 CURVE",
"217 116 LINE"
);
}
);
width = 290;
}
);
note = comma;
unicode = 002C;
},
{
glyphname = hyphen;
lastChange = "2018-06-23 23:49:06 +0000";
layers = (
{
layerId = "120467F4-1FD8-4738-87D7-3EC9C6A2741E";
paths = (
{
closed = 1;
nodes = (
"292 329 LINE",
"30 329 LINE",
"30 207 LINE",
"292 207 LINE"
);
}
);
width = 322;
}
);
note = hyphen;
unicode = 002D;
},
{
glyphname = period;
lastChange = "2018-06-23 23:49:06 +0000";
layers = (
{
layerId = "120467F4-1FD8-4738-87D7-3EC9C6A2741E";
paths = (
{
closed = 1;
nodes = (
"57 17 OFFCURVE",
"88 -13 OFFCURVE",
"143 -13 CURVE SMOOTH",
"196 -13 OFFCURVE",
"228 19 OFFCURVE",
"228 70 CURVE SMOOTH",
"228 123 OFFCURVE",
"197 153 OFFCURVE",
"143 153 CURVE SMOOTH",
"87 153 OFFCURVE",
"57 125 OFFCURVE",
"57 70 CURVE SMOOTH"
);
}
);
width = 285;
}
);
note = period;
unicode = 002E;
},
{
glyphname = slash;
lastChange = "2018-06-23 23:49:06 +0000";
layers = (
{
layerId = "120467F4-1FD8-4738-87D7-3EC9C6A2741E";
paths = (
{
closed = 1;
nodes = (
"7 0 LINE",
"142 0 LINE",
"408 714 LINE",
"273 714 LINE"
);
}
);
width = 413;
}
);
note = slash;
unicode = 002F;
},
{
glyphname = zero;
lastChange = "2018-06-23 23:49:06 +0000";
layers = (
{
layerId = "120467F4-1FD8-4738-87D7-3EC9C6A2741E";
paths = (
{
closed = 1;
nodes = (
"535 598 OFFCURVE",
"450 725 OFFCURVE",
"285 725 CURVE SMOOTH",
"116 725 OFFCURVE",
"36 609 OFFCURVE",
"36 357 CURVE SMOOTH",
"36 115 OFFCURVE",
"121 -10 OFFCURVE",
"285 -10 CURVE SMOOTH",
"455 -10 OFFCURVE",
"535 107 OFFCURVE",
"535 357 CURVE SMOOTH"
);
},
{
closed = 1;
nodes = (
"186 444 OFFCURVE",
"194 507 OFFCURVE",
"209 546 CURVE SMOOTH",
"224 584 OFFCURVE",
"250 603 OFFCURVE",
"285 603 CURVE SMOOTH",
"320 603 OFFCURVE",
"345 584 OFFCURVE",
"361 546 CURVE SMOOTH",
"377 507 OFFCURVE",
"385 444 OFFCURVE",
"385 357 CURVE SMOOTH",
"385 271 OFFCURVE",
"377 208 OFFCURVE",
"361 169 CURVE SMOOTH",
"346 131 OFFCURVE",
"320 112 OFFCURVE",
"285 112 CURVE SMOOTH",
"250 112 OFFCURVE",
"224 131 OFFCURVE",
"209 169 CURVE SMOOTH",
"194 207 OFFCURVE",
"186 270 OFFCURVE",
"186 357 CURVE SMOOTH"
);
}
);
width = 571;
}
);
note = zero;
unicode = 0030;
},
{
glyphname = one;
lastChange = "2018-06-23 23:49:06 +0000";
layers = (
{
layerId = "120467F4-1FD8-4738-87D7-3EC9C6A2741E";
paths = (
{
closed = 1;
nodes = (
"289 714 LINE",
"59 531 LINE",
"132 440 LINE",
"214 506 LINE SMOOTH",
"224 514 OFFCURVE",
"241 530 OFFCURVE",
"266 555 CURVE",
"264 481 LINE",
"262 413 LINE",
"262 0 LINE",
"413 0 LINE",
"413 714 LINE"
);
}
);
width = 571;
}
);
note = one;
unicode = 0031;
},
{
glyphname = two;
lastChange = "2018-06-23 23:49:06 +0000";
layers = (
{
layerId = "120467F4-1FD8-4738-87D7-3EC9C6A2741E";
paths = (
{
closed = 1;
nodes = (
"228 127 LINE",
"228 134 LINE",
"320 220 LINE SMOOTH",
"381 276 OFFCURVE",
"424 319 OFFCURVE",
"448 350 CURVE SMOOTH",
"497 410 OFFCURVE",
"519 465 OFFCURVE",
"519 531 CURVE SMOOTH",
"519 568 OFFCURVE",
"510 602 OFFCURVE",
"491 631 CURVE SMOOTH",
"453 690 OFFCURVE",
"382 724 OFFCURVE",
"293 724 CURVE SMOOTH",
"259 724 OFFCURVE",
"229 721 OFFCURVE",
"201 714 CURVE SMOOTH",
"146 701 OFFCURVE",
"108 682 OFFCURVE",
"38 622 CURVE",
"120 525 LINE",
"177 572 OFFCURVE",
"227 598 OFFCURVE",
"282 598 CURVE SMOOTH",
"335 598 OFFCURVE",
"369 570 OFFCURVE",
"369 513 CURVE SMOOTH",
"369 475 OFFCURVE",
"356 441 OFFCURVE",
"323 399 CURVE SMOOTH",
"307 378 OFFCURVE",
"272 340 OFFCURVE",
"219 286 CURVE SMOOTH",
"40 105 LINE",
"40 0 LINE",
"539 0 LINE",
"539 127 LINE"
);
}
);
width = 571;
}
);
note = two;
unicode = 0032;
},
{
glyphname = three;
lastChange = "2018-06-23 23:49:06 +0000";
layers = (
{
layerId = "120467F4-1FD8-4738-87D7-3EC9C6A2741E";
paths = (
{
closed = 1;
nodes = (
"511 661 OFFCURVE",
"420 724 OFFCURVE",
"272 724 CURVE SMOOTH",
"182 724 OFFCURVE",
"104 701 OFFCURVE",
"39 654 CURVE",
"109 550 LINE",
"168 588 OFFCURVE",
"214 602 OFFCURVE",
"261 602 CURVE SMOOTH",
"329 602 OFFCURVE",
"363 575 OFFCURVE",
"363 521 CURVE SMOOTH",
"363 451 OFFCURVE",
"314 425 OFFCURVE",
"203 425 CURVE SMOOTH",
"148 425 LINE",
"148 309 LINE",
"202 309 LINE SMOOTH",
"322 309 OFFCURVE",
"374 284 OFFCURVE",
"374 217 CURVE SMOOTH",
"374 142 OFFCURVE",
"328 110 OFFCURVE",
"228 110 CURVE SMOOTH",
"163 110 OFFCURVE",
"93 129 OFFCURVE",
"38 157 CURVE",
"38 29 LINE",
"98 3 OFFCURVE",
"167 -10 OFFCURVE",
"244 -10 CURVE SMOOTH",
"429 -10 OFFCURVE",
"532 71 OFFCURVE",
"532 208 CURVE SMOOTH",
"532 302 OFFCURVE",
"472 359 OFFCURVE",
"357 373 CURVE",
"357 376 LINE",
"455 399 OFFCURVE",
"511 465 OFFCURVE",
"511 554 CURVE SMOOTH"
);
}
);
width = 571;
}
);
note = three;
unicode = 0033;
},
{
glyphname = four;
lastChange = "2018-06-23 23:49:06 +0000";
layers = (
{
layerId = "120467F4-1FD8-4738-87D7-3EC9C6A2741E";
paths = (
{
closed = 1;
nodes = (
"469 265 LINE",
"469 714 LINE",
"330 714 LINE",
"17 253 LINE",
"17 148 LINE",
"322 148 LINE",
"322 0 LINE",
"469 0 LINE",
"469 148 LINE",
"555 148 LINE",
"555 265 LINE"
);
},
{
closed = 1;
nodes = (
"281 463 LINE SMOOTH",
"298 488 OFFCURVE",
"312 514 OFFCURVE",
"324 541 CURVE",
"328 541 LINE",
"326 529 OFFCURVE",
"322 427 OFFCURVE",
"322 386 CURVE SMOOTH",
"322 265 LINE",
"150 265 LINE"
);
}
);
width = 571;
}
);
note = four;
unicode = 0034;
},
{
glyphname = five;
lastChange = "2018-06-23 23:49:06 +0000";
layers = (
{
layerId = "120467F4-1FD8-4738-87D7-3EC9C6A2741E";
paths = (
{
closed = 1;
nodes = (
"271 456 OFFCURVE",
"246 454 OFFCURVE",
"226 449 CURVE SMOOTH",
"209 446 LINE",
"222 586 LINE",
"477 586 LINE",
"477 714 LINE",
"90 714 LINE",
"63 350 LINE",
"123 318 LINE",
"149 326 OFFCURVE",
"196 334 OFFCURVE",
"231 334 CURVE SMOOTH",
"326 334 OFFCURVE",
"374 298 OFFCURVE",
"374 226 CURVE SMOOTH",
"374 150 OFFCURVE",
"328 113 OFFCURVE",
"236 113 CURVE SMOOTH",
"175 113 OFFCURVE",
"100 132 OFFCURVE",
"49 159 CURVE",
"49 29 LINE",
"98 3 OFFCURVE",
"162 -10 OFFCURVE",
"241 -10 CURVE SMOOTH",
"424 -10 OFFCURVE",
"526 79 OFFCURVE",
"526 239 CURVE SMOOTH",
"526 374 OFFCURVE",
"438 456 OFFCURVE",
"300 456 CURVE SMOOTH"
);
}
);
width = 571;
}
);
note = five;
unicode = 0035;
},
{
glyphname = six;
lastChange = "2018-06-23 23:49:06 +0000";
layers = (
{
layerId = "120467F4-1FD8-4738-87D7-3EC9C6A2741E";
paths = (
{
closed = 1;
nodes = (
"35 237 OFFCURVE",
"46 181 OFFCURVE",
"67 134 CURVE SMOOTH",
"110 40 OFFCURVE",
"190 -10 OFFCURVE",
"296 -10 CURVE SMOOTH",
"448 -10 OFFCURVE",
"539 85 OFFCURVE",
"539 238 CURVE SMOOTH",
"539 379 OFFCURVE",
"462 464 OFFCURVE",
"335 464 CURVE SMOOTH",
"264 464 OFFCURVE",
"212 436 OFFCURVE",
"180 381 CURVE",
"174 381 LINE",
"177 437 OFFCURVE",
"187 480 OFFCURVE",
"203 511 CURVE SMOOTH",
"235 572 OFFCURVE",
"299 604 OFFCURVE",
"403 604 CURVE SMOOTH",
"431 604 OFFCURVE",
"460 601 OFFCURVE",
"489 594 CURVE",
"489 715 LINE",
"466 720 OFFCURVE",
"434 722 OFFCURVE",
"393 722 CURVE SMOOTH",
"155 722 OFFCURVE",
"35 586 OFFCURVE",
"35 303 CURVE SMOOTH"
);
},
{
closed = 1;
nodes = (
"230 111 OFFCURVE",
"185 171 OFFCURVE",
"185 249 CURVE SMOOTH",
"185 302 OFFCURVE",
"235 348 OFFCURVE",
"296 348 CURVE SMOOTH",
"361 348 OFFCURVE",
"393 306 OFFCURVE",
"393 236 CURVE SMOOTH",
"393 156 OFFCURVE",
"357 111 OFFCURVE",
"293 111 CURVE SMOOTH"
);
}
);
width = 571;
}
);
note = six;
unicode = 0036;
},
{
glyphname = seven;
lastChange = "2018-06-23 23:49:06 +0000";
layers = (
{
layerId = "120467F4-1FD8-4738-87D7-3EC9C6A2741E";
paths = (
{
closed = 1;
nodes = (
"539 618 LINE",
"539 713 LINE",
"27 713 LINE",
"27 586 LINE",
"379 586 LINE",
"111 0 LINE",
"269 0 LINE"
);
}
);
width = 571;
}
);
note = seven;
unicode = 0037;
},
{
glyphname = eight;
lastChange = "2018-06-23 23:49:06 +0000";
layers = (
{
layerId = "120467F4-1FD8-4738-87D7-3EC9C6A2741E";
paths = (
{
closed = 1;
nodes = (
"150 723 OFFCURVE",
"57 654 OFFCURVE",
"57 552 CURVE SMOOTH",
"57 482 OFFCURVE",
"90 424 OFFCURVE",
"172 373 CURVE",
"76 325 OFFCURVE",
"35 263 OFFCURVE",
"35 181 CURVE SMOOTH",
"35 60 OFFCURVE",
"130 -10 OFFCURVE",
"286 -10 CURVE SMOOTH",
"436 -10 OFFCURVE",
"536 68 OFFCURVE",
"536 185 CURVE SMOOTH",
"536 259 OFFCURVE",
"493 320 OFFCURVE",
"386 377 CURVE",
"476 422 OFFCURVE",
"514 478 OFFCURVE",
"514 551 CURVE SMOOTH",
"514 656 OFFCURVE",
"423 723 OFFCURVE",
"286 723 CURVE SMOOTH"
);
},
{
closed = 1;
nodes = (
"175 239 OFFCURVE",
"209 279 OFFCURVE",
"279 311 CURVE",
"361 268 OFFCURVE",
"396 232 OFFCURVE",
"396 189 CURVE SMOOTH",
"396 136 OFFCURVE",
"359 101 OFFCURVE",
"284 101 CURVE SMOOTH",
"216 101 OFFCURVE",
"175 134 OFFCURVE",
"175 190 CURVE SMOOTH"
);
},
{
closed = 1;
nodes = (
"336 613 OFFCURVE",
"372 585 OFFCURVE",
"372 540 CURVE SMOOTH",
"372 499 OFFCURVE",
"350 470 OFFCURVE",
"286 440 CURVE",
"220 473 OFFCURVE",
"199 501 OFFCURVE",
"199 540 CURVE SMOOTH",
"199 584 OFFCURVE",
"234 613 OFFCURVE",
"285 613 CURVE SMOOTH"
);
}
);
width = 571;
}
);
note = eight;
unicode = 0038;
},
{
glyphname = nine;
lastChange = "2018-06-23 23:49:06 +0000";
layers = (
{
layerId = "120467F4-1FD8-4738-87D7-3EC9C6A2741E";
paths = (
{
closed = 1;
nodes = (
"536 474 OFFCURVE",
"525 530 OFFCURVE",
"504 578 CURVE SMOOTH",
"462 671 OFFCURVE",
"380 722 OFFCURVE",
"275 722 CURVE SMOOTH",
"125 722 OFFCURVE",
"32 627 OFFCURVE",
"32 474 CURVE SMOOTH",
"32 332 OFFCURVE",
"108 248 OFFCURVE",
"233 248 CURVE SMOOTH",
"307 248 OFFCURVE",
"354 270 OFFCURVE",
"391 331 CURVE",
"397 331 LINE",
"395 275 OFFCURVE",
"384 232 OFFCURVE",
"367 200 CURVE SMOOTH",
"333 137 OFFCURVE",
"269 108 OFFCURVE",
"168 108 CURVE SMOOTH",
"138 108 OFFCURVE",
"109 111 OFFCURVE",
"82 118 CURVE",
"82 -3 LINE",
"104 -7 OFFCURVE",
"136 -10 OFFCURVE",
"178 -10 CURVE SMOOTH",
"418 -10 OFFCURVE",
"536 128 OFFCURVE",
"536 409 CURVE SMOOTH"
);
},
{
closed = 1;
nodes = (
"341 601 OFFCURVE",
"386 541 OFFCURVE",
"386 463 CURVE SMOOTH",
"386 411 OFFCURVE",
"336 364 OFFCURVE",
"275 364 CURVE SMOOTH",
"210 364 OFFCURVE",
"178 407 OFFCURVE",
"178 476 CURVE SMOOTH",
"178 557 OFFCURVE",
"215 601 OFFCURVE",
"278 601 CURVE SMOOTH"
);
}
);
width = 571;
}
);
note = nine;
unicode = 0039;
},
{
glyphname = colon;
lastChange = "2018-06-23 23:49:06 +0000";
layers = (
{
layerId = "120467F4-1FD8-4738-87D7-3EC9C6A2741E";
paths = (
{
closed = 1;
nodes = (
"57 17 OFFCURVE",
"88 -13 OFFCURVE",
"143 -13 CURVE SMOOTH",
"196 -13 OFFCURVE",
"228 19 OFFCURVE",
"228 70 CURVE SMOOTH",
"228 123 OFFCURVE",
"197 153 OFFCURVE",
"143 153 CURVE SMOOTH",
"87 153 OFFCURVE",
"57 125 OFFCURVE",
"57 70 CURVE SMOOTH"
);
},
{
closed = 1;
nodes = (
"57 420 OFFCURVE",
"88 390 OFFCURVE",
"143 390 CURVE SMOOTH",
"196 390 OFFCURVE",
"228 420 OFFCURVE",
"228 473 CURVE SMOOTH",
"228 526 OFFCURVE",
"197 556 OFFCURVE",
"143 556 CURVE SMOOTH",
"87 556 OFFCURVE",
"57 528 OFFCURVE",
"57 473 CURVE SMOOTH"
);
}
);
width = 285;
}
);
note = colon;
unicode = 003A;
},
{
glyphname = semicolon;
lastChange = "2018-06-23 23:49:06 +0000";
layers = (
{
layerId = "120467F4-1FD8-4738-87D7-3EC9C6A2741E";
paths = (
{
closed = 1;
nodes = (
"68 40 OFFCURVE",
"52 -42 OFFCURVE",
"31 -129 CURVE",
"138 -129 LINE",
"179 -39 OFFCURVE",
"207 39 OFFCURVE",
"224 105 CURVE",
"217 116 LINE",
"80 116 LINE"
);
},
{
closed = 1;
nodes = (
"57 420 OFFCURVE",
"88 390 OFFCURVE",
"143 390 CURVE SMOOTH",
"196 390 OFFCURVE",
"228 420 OFFCURVE",
"228 473 CURVE SMOOTH",
"228 526 OFFCURVE",
"197 556 OFFCURVE",
"143 556 CURVE SMOOTH",
"87 556 OFFCURVE",
"57 528 OFFCURVE",
"57 473 CURVE SMOOTH"
);
}
);
width = 290;
}
);
note = semicolon;
unicode = 003B;
},
{
glyphname = less;
lastChange = "2018-06-23 23:49:06 +0000";
layers = (
{
layerId = "120467F4-1FD8-4738-87D7-3EC9C6A2741E";
paths = (
{
closed = 1;
nodes = (
"194 353 LINE",
"528 508 LINE",
"528 625 LINE",
"43 383 LINE",
"43 313 LINE",
"528 99 LINE",
"528 216 LINE"
);
}
);
width = 571;
}
);
note = less;
unicode = 003C;
},
{
glyphname = equal;
lastChange = "2018-06-23 23:49:06 +0000";
layers = (
{
layerId = "120467F4-1FD8-4738-87D7-3EC9C6A2741E";
paths = (
{
closed = 1;
nodes = (
"528 500 LINE",
"43 500 LINE",
"43 393 LINE",
"528 393 LINE"
);
},
{
closed = 1;
nodes = (
"528 311 LINE",
"43 311 LINE",
"43 204 LINE",
"528 204 LINE"
);
}
);
width = 571;
}
);
note = equal;
unicode = 003D;
},
{
glyphname = greater;
lastChange = "2018-06-23 23:49:06 +0000";
layers = (
{
layerId = "120467F4-1FD8-4738-87D7-3EC9C6A2741E";
paths = (
{
closed = 1;
nodes = (
"528 313 LINE",
"528 383 LINE",
"43 625 LINE",
"43 508 LINE",
"377 353 LINE",
"43 216 LINE",
"43 99 LINE"
);
}
);
width = 571;
}
);
note = greater;
unicode = 003E;
},
{
glyphname = question;
lastChange = "2018-06-23 23:49:06 +0000";
layers = (
{
layerId = "120467F4-1FD8-4738-87D7-3EC9C6A2741E";
paths = (
{
closed = 1;
nodes = (
"264 266 LINE SMOOTH",
"264 305 OFFCURVE",
"273 320 OFFCURVE",
"336 366 CURVE SMOOTH",
"427 431 OFFCURVE",
"453 475 OFFCURVE",
"453 547 CURVE SMOOTH",
"453 654 OFFCURVE",
"368 724 OFFCURVE",
"234 724 CURVE SMOOTH",
"152 724 OFFCURVE",
"76 704 OFFCURVE",
"3 663 CURVE",
"56 556 LINE",
"119 588 OFFCURVE",
"174 604 OFFCURVE",
"223 604 CURVE SMOOTH",
"279 604 OFFCURVE",
"312 582 OFFCURVE",
"312 539 CURVE SMOOTH",
"312 501 OFFCURVE",
"296 477 OFFCURVE",
"228 428 CURVE SMOOTH",
"157 376 OFFCURVE",
"135 335 OFFCURVE",
"135 273 CURVE SMOOTH",
"135 237 LINE",
"264 237 LINE"
);
},
{
closed = 1;
nodes = (
"119 17 OFFCURVE",
"150 -13 OFFCURVE",
"205 -13 CURVE SMOOTH",
"258 -13 OFFCURVE",
"290 19 OFFCURVE",
"290 70 CURVE SMOOTH",
"290 123 OFFCURVE",
"259 153 OFFCURVE",
"205 153 CURVE SMOOTH",
"149 153 OFFCURVE",
"119 125 OFFCURVE",
"119 70 CURVE SMOOTH"
);
}
);
width = 477;
}
);
note = question;
unicode = 003F;
},
{
glyphname = at;
lastChange = "2018-06-23 23:49:06 +0000";
layers = (
{
layerId = "120467F4-1FD8-4738-87D7-3EC9C6A2741E";
paths = (
{
closed = 1;
nodes = (
"847 438 OFFCURVE",
"832 500 OFFCURVE",
"801 554 CURVE SMOOTH",
"740 662 OFFCURVE",
"622 723 OFFCURVE",
"479 723 CURVE SMOOTH",
"394 723 OFFCURVE",
"319 705 OFFCURVE",
"254 667 CURVE SMOOTH",
"123 593 OFFCURVE",
"50 455 OFFCURVE",
"50 294 CURVE SMOOTH",
"50 62 OFFCURVE",
"195 -75 OFFCURVE",
"443 -75 CURVE SMOOTH",
"528 -75 OFFCURVE",
"605 -61 OFFCURVE",
"675 -31 CURVE",
"675 63 LINE",
"595 34 OFFCURVE",
"508 18 OFFCURVE",
"439 18 CURVE SMOOTH",
"257 18 OFFCURVE",
"158 117 OFFCURVE",
"158 297 CURVE SMOOTH",
"158 364 OFFCURVE",
"171 422 OFFCURVE",
"197 474 CURVE SMOOTH",
"249 575 OFFCURVE",
"349 631 OFFCURVE",
"480 631 CURVE SMOOTH",
"531 631 OFFCURVE",
"576 620 OFFCURVE",
"616 599 CURVE SMOOTH",
"695 557 OFFCURVE",
"740 473 OFFCURVE",
"740 368 CURVE SMOOTH",
"740 319 OFFCURVE",
"734 279 OFFCURVE",
"722 249 CURVE SMOOTH",
"709 218 OFFCURVE",
"693 203 OFFCURVE",
"672 203 CURVE SMOOTH",
"647 203 OFFCURVE",
"635 226 OFFCURVE",
"635 271 CURVE",
"646 510 LINE",
"603 525 OFFCURVE",
"526 537 OFFCURVE",
"470 537 CURVE SMOOTH",
"330 537 OFFCURVE",
"234 445 OFFCURVE",
"234 308 CURVE SMOOTH",
"234 188 OFFCURVE",
"305 114 OFFCURVE",
"420 114 CURVE SMOOTH",
"474 114 OFFCURVE",
"519 135 OFFCURVE",
"554 177 CURVE",
"562 177 LINE",
"578 139 OFFCURVE",
"618 114 OFFCURVE",
"666 114 CURVE SMOOTH",
"702 114 OFFCURVE",
"734 125 OFFCURVE",
"761 147 CURVE SMOOTH",
"816 191 OFFCURVE",
"847 273 OFFCURVE",
"847 367 CURVE SMOOTH"
);
},
{
closed = 1;
nodes = (
"347 394 OFFCURVE",
"395 448 OFFCURVE",
"476 448 CURVE SMOOTH",
"497 448 OFFCURVE",
"516 446 OFFCURVE",
"532 443 CURVE",
"526 335 LINE SMOOTH",
"520 242 OFFCURVE",
"490 203 OFFCURVE",
"431 203 CURVE SMOOTH",
"375 203 OFFCURVE",
"347 237 OFFCURVE",
"347 306 CURVE SMOOTH"
);
}
);
width = 897;
}
);
note = at;
unicode = 0040;
},
{
glyphname = A;
lastChange = "2018-06-23 23:49:06 +0000";
layers = (
{
anchors = (
{
name = bottom;
position = "{345, 0}";
},
{
name = ogonek;
position = "{621, 5}";
},
{
name = top;
position = "{345, 714}";
}
);
layerId = "120467F4-1FD8-4738-87D7-3EC9C6A2741E";
paths = (
{
closed = 1;
nodes = (
"437 717 LINE",
"252 717 LINE",
"0 0 LINE",
"163 0 LINE",
"215 170 LINE",
"475 170 LINE",
"527 0 LINE",
"690 0 LINE"
);
},
{
closed = 1;
nodes = (
"304 461 OFFCURVE",
"334 564 OFFCURVE",
"345 606 CURVE",
"348 594 OFFCURVE",
"352 578 OFFCURVE",
"358 558 CURVE SMOOTH",
"364 538 OFFCURVE",
"391 451 OFFCURVE",
"439 297 CURVE",
"253 297 LINE"
);
}
);
width = 690;
}
);
note = A;
unicode = 0041;
},
{
glyphname = B;
lastChange = "2018-06-23 23:49:06 +0000";
layers = (
{
anchors = (
{
name = bottom;
position = "{336, 0}";
},
{
name = top;
position = "{336, 714}";
}
);
layerId = "120467F4-1FD8-4738-87D7-3EC9C6A2741E";
paths = (
{
closed = 1;
nodes = (
"357 0 LINE SMOOTH",
"519 0 OFFCURVE",
"619 77 OFFCURVE",
"619 207 CURVE SMOOTH",
"619 299 OFFCURVE",
"582 354 OFFCURVE",
"491 374 CURVE",
"491 379 LINE",
"558 390 OFFCURVE",
"601 448 OFFCURVE",
"601 533 CURVE SMOOTH",
"601 659 OFFCURVE",
"515 714 OFFCURVE",
"312 714 CURVE SMOOTH",
"90 714 LINE",
"90 0 LINE"
);
},
{
closed = 1;
nodes = (
"321 590 LINE SMOOTH",
"407 590 OFFCURVE",
"446 568 OFFCURVE",
"446 513 CURVE SMOOTH",
"446 455 OFFCURVE",
"411 431 OFFCURVE",
"329 431 CURVE SMOOTH",
"241 431 LINE",
"241 590 LINE"
);
},
{
closed = 1;
nodes = (
"419 311 OFFCURVE",
"462 281 OFFCURVE",
"462 222 CURVE SMOOTH",
"462 156 OFFCURVE",
"423 125 OFFCURVE",
"340 125 CURVE SMOOTH",
"241 125 LINE",
"241 311 LINE",
"335 311 LINE SMOOTH"
);
}
);
width = 672;
}
);
note = B;
unicode = 0042;
},
{
glyphname = C;
lastChange = "2018-06-23 23:49:06 +0000";
layers = (
{
anchors = (
{
name = bottom;
position = "{319, 0}";
},
{
name = top;
position = "{319, 714}";
}
);
layerId = "120467F4-1FD8-4738-87D7-3EC9C6A2741E";
paths = (
{
closed = 1;
nodes = (
"445 598 OFFCURVE",
"500 576 OFFCURVE",
"553 551 CURVE",
"602 674 LINE",
"532 708 OFFCURVE",
"462 724 OFFCURVE",
"393 724 CURVE SMOOTH",
"325 724 OFFCURVE",
"266 709 OFFCURVE",
"215 680 CURVE SMOOTH",
"114 620 OFFCURVE",
"58 504 OFFCURVE",
"58 356 CURVE SMOOTH",
"58 120 OFFCURVE",
"171 -10 OFFCURVE",
"379 -10 CURVE SMOOTH",
"451 -10 OFFCURVE",
"517 2 OFFCURVE",
"575 27 CURVE",
"575 154 LINE",
"504 129 OFFCURVE",
"443 116 OFFCURVE",
"393 116 CURVE SMOOTH",
"273 116 OFFCURVE",
"214 196 OFFCURVE",
"214 355 CURVE SMOOTH",
"214 508 OFFCURVE",
"279 598 OFFCURVE",
"393 598 CURVE SMOOTH"
);
}
);
width = 637;
}
);
note = C;
unicode = 0043;
},
{
glyphname = D;
lastChange = "2018-06-23 23:49:06 +0000";
layers = (
{
anchors = (
{
name = bottom;
position = "{370, 0}";
},
{
name = center;
position = "{370, 357}";
},
{
name = top;
position = "{370, 714}";
}
);
layerId = "120467F4-1FD8-4738-87D7-3EC9C6A2741E";
paths = (
{
closed = 1;
nodes = (
"682 584 OFFCURVE",
"547 714 OFFCURVE",
"314 714 CURVE SMOOTH",
"90 714 LINE",
"90 0 LINE",
"292 0 LINE SMOOTH",
"544 0 OFFCURVE",
"682 129 OFFCURVE",
"682 364 CURVE SMOOTH"
);
},
{
closed = 1;
nodes = (
"525 203 OFFCURVE",
"452 125 OFFCURVE",
"306 125 CURVE SMOOTH",
"241 125 LINE",
"241 590 LINE",
"322 590 LINE SMOOTH",
"457 590 OFFCURVE",
"525 513 OFFCURVE",
"525 360 CURVE SMOOTH"
);
}
);
width = 740;
}
);
note = D;
unicode = 0044;
},
{
glyphname = E;
lastChange = "2018-06-23 23:49:06 +0000";
layers = (
{
anchors = (
{
name = bottom;
position = "{280, 0}";
},
{
name = ogonek;
position = "{504, 5}";
},
{
name = top;
position = "{280, 714}";
},
{
name = topleft;
position = "{10, 714}";
}
);
layerId = "120467F4-1FD8-4738-87D7-3EC9C6A2741E";
paths = (
{
closed = 1;
nodes = (
"241 125 LINE",
"241 309 LINE",
"483 309 LINE",
"483 433 LINE",
"241 433 LINE",
"241 590 LINE",
"501 590 LINE",
"501 714 LINE",
"90 714 LINE",
"90 0 LINE",
"501 0 LINE",
"501 125 LINE"
);
}
);
width = 560;
}
);
note = E;
unicode = 0045;
},
{
glyphname = F;
lastChange = "2018-06-23 23:49:06 +0000";
layers = (
{
anchors = (
{
name = bottom;
position = "{274, 0}";
},
{
name = top;
position = "{274, 714}";
}
);
layerId = "120467F4-1FD8-4738-87D7-3EC9C6A2741E";
paths = (
{
closed = 1;
nodes = (
"481 282 LINE",
"481 406 LINE",
"239 406 LINE",
"239 590 LINE",
"499 590 LINE",
"499 714 LINE",
"90 714 LINE",
"90 0 LINE",
"239 0 LINE",
"239 282 LINE"
);
}
);
width = 549;
}
);
note = F;
unicode = 0046;
},
{
glyphname = G;
lastChange = "2018-06-23 23:49:06 +0000";
layers = (
{
anchors = (
{
name = bottom;
position = "{362, 0}";
},
{
name = top;
position = "{362, 714}";
}
);
layerId = "120467F4-1FD8-4738-87D7-3EC9C6A2741E";
paths = (
{
closed = 1;
nodes = (
"496 275 LINE",
"496 126 LINE",
"463 120 OFFCURVE",
"432 116 OFFCURVE",
"400 116 CURVE SMOOTH",
"279 116 OFFCURVE",
"214 200 OFFCURVE",
"214 355 CURVE SMOOTH",
"214 503 OFFCURVE",
"299 598 OFFCURVE",
"430 598 CURVE SMOOTH",
"486 598 OFFCURVE",
"541 585 OFFCURVE",
"593 559 CURVE",
"643 680 LINE",
"575 709 OFFCURVE",
"504 724 OFFCURVE",
"431 724 CURVE SMOOTH",
"197 724 OFFCURVE",
"58 588 OFFCURVE",
"58 358 CURVE SMOOTH",
"58 121 OFFCURVE",
"175 -10 OFFCURVE",
"390 -10 CURVE SMOOTH",
"475 -10 OFFCURVE",
"552 1 OFFCURVE",
"644 31 CURVE",
"644 401 LINE",
"361 401 LINE",
"361 275 LINE"
);
}
);
width = 724;
}
);
note = G;
unicode = 0047;
},
{
glyphname = H;
lastChange = "2018-06-23 23:49:06 +0000";
layers = (
{
anchors = (
{
name = bottom;
position = "{383, 0}";
},
{
name = center;
position = "{383, 357}";
},
{
name = top;
position = "{383, 714}";
},
{
name = topleft;
position = "{10, 714}";
}
);
layerId = "120467F4-1FD8-4738-87D7-3EC9C6A2741E";
paths = (
{
closed = 1;
nodes = (
"524 714 LINE",
"524 434 LINE",
"241 434 LINE",
"241 714 LINE",
"90 714 LINE",
"90 0 LINE",
"241 0 LINE",
"241 308 LINE",
"524 308 LINE",
"524 0 LINE",
"675 0 LINE",
"675 714 LINE"
);
}
);
width = 765;
}
);
note = H;
unicode = 0048;
},
{
glyphname = I.alt;
lastChange = "2018-06-23 23:49:06 +0000";
layers = (
{
anchors = (
{
name = bottom;
position = "{195, 0}";
},
{
name = ogonek;
position = "{350, 5}";
},
{
name = top;
position = "{195, 714}";
},
{
name = topleft;
position = "{10, 714}";
}
);
layerId = "120467F4-1FD8-4738-87D7-3EC9C6A2741E";
paths = (
{
closed = 1;
nodes = (
"270 126 LINE",
"270 588 LINE",
"357 628 LINE",
"357 714 LINE",
"32 714 LINE",
"32 628 LINE",
"119 588 LINE",
"119 126 LINE",
"32 86 LINE",
"32 0 LINE",
"357 0 LINE",
"357 86 LINE"
);
}
);
width = 389;
}
);
note = I.alt;
},
{
glyphname = J;
lastChange = "2018-06-23 23:49:06 +0000";
layers = (
{
anchors = (
{
name = bottom;
position = "{166, 0}";
},
{
name = top;
position = "{166, 714}";
}
);
layerId = "120467F4-1FD8-4738-87D7-3EC9C6A2741E";
paths = (
{
closed = 1;
nodes = (
"164 -210 OFFCURVE",
"241 -121 OFFCURVE",
"241 46 CURVE SMOOTH",
"241 714 LINE",
"90 714 LINE",
"90 45 LINE SMOOTH",
"90 -43 OFFCURVE",
"63 -83 OFFCURVE",
"-3 -83 CURVE SMOOTH",
"-24 -83 OFFCURVE",
"-48 -80 OFFCURVE",
"-74 -73 CURVE",
"-74 -199 LINE",
"-49 -207 OFFCURVE",
"-19 -210 OFFCURVE",
"15 -210 CURVE SMOOTH"
);
}
);
width = 331;
}
);
note = J;
unicode = 004A;
},
{
glyphname = K;
lastChange = "2018-06-23 23:49:06 +0000";
layers = (
{
anchors = (
{
name = bottom;
position = "{332, 0}";
},
{
name = top;
position = "{332, 714}";
}
);
layerId = "120467F4-1FD8-4738-87D7-3EC9C6A2741E";
paths = (
{
closed = 1;
nodes = (
"662 714 LINE",
"494 714 LINE",
"301 471 LINE",
"241 387 LINE",
"241 714 LINE",
"90 714 LINE",
"90 0 LINE",
"241 0 LINE",
"241 255 LINE",
"305 301 LINE",
"492 0 LINE",
"664 0 LINE",
"413 398 LINE"
);
}
);
width = 664;
}
);
note = K;
unicode = 004B;
},
{
glyphname = L;
lastChange = "2018-06-23 23:49:06 +0000";
layers = (
{
anchors = (
{
name = bottom;
position = "{283, 0}";
},
{
name = center;
position = "{283, 357}";
},
{
name = top;
position = "{283, 714}";
},
{
name = topright;
position = "{555, 714}";
}
);
layerId = "120467F4-1FD8-4738-87D7-3EC9C6A2741E";
paths = (
{
closed = 1;
nodes = (
"531 125 LINE",
"241 125 LINE",
"241 714 LINE",
"90 714 LINE",
"90 0 LINE",
"531 0 LINE"
);
}
);
width = 565;
}
);
note = L;
unicode = 004C;
},
{
glyphname = M;
lastChange = "2018-06-23 23:49:06 +0000";
layers = (
{
anchors = (
{
name = bottom;
position = "{472, 0}";
},
{
name = top;
position = "{472, 714}";
}
);
layerId = "120467F4-1FD8-4738-87D7-3EC9C6A2741E";
paths = (
{
closed = 1;
nodes = (
"715 559 LINE",
"719 559 LINE",
"715 469 OFFCURVE",
"713 414 OFFCURVE",
"713 393 CURVE SMOOTH",
"712 372 OFFCURVE",
"712 354 OFFCURVE",
"712 338 CURVE SMOOTH",
"712 0 LINE",
"853 0 LINE",
"853 714 LINE",
"647 714 LINE",
"468 168 LINE",
"465 168 LINE",
"296 714 LINE",
"90 714 LINE",
"90 0 LINE",
"225 0 LINE",
"225 332 LINE SMOOTH",
"225 370 OFFCURVE",
"222 446 OFFCURVE",
"216 560 CURVE",
"220 560 LINE",
"392 0 LINE",
"531 0 LINE"
);
}
);
width = 943;
}
);
note = M;
unicode = 004D;
},
{
glyphname = N;
lastChange = "2018-06-23 23:49:06 +0000";
layers = (
{
anchors = (
{
name = bottom;
position = "{407, 0}";
},
{
name = top;
position = "{407, 714}";
}
);
layerId = "120467F4-1FD8-4738-87D7-3EC9C6A2741E";
paths = (
{
closed = 1;
nodes = (
"587 714 LINE",
"587 376 LINE SMOOTH",
"587 337 OFFCURVE",
"589 272 OFFCURVE",
"594 179 CURVE",
"591 179 LINE",
"281 714 LINE",
"90 714 LINE",
"90 0 LINE",
"225 0 LINE",
"225 336 LINE SMOOTH",
"225 376 OFFCURVE",
"222 445 OFFCURVE",
"216 540 CURVE",
"220 540 LINE",
"531 0 LINE",
"723 0 LINE",
"723 714 LINE"
);
}
);
width = 813;
}
);
note = N;
unicode = 004E;
},
{
glyphname = O;
lastChange = "2018-06-23 23:49:06 +0000";
layers = (
{
anchors = (
{
name = bottom;
position = "{398, 0}";
},
{
name = center;
position = "{398, 357}";
},
{
name = ogonek;
position = "{716, 5}";
},
{
name = top;
position = "{398, 714}";
},
{
name = topleft;
position = "{10, 714}";
},
{
name = topright;
position = "{786, 714}";
}
);
layerId = "120467F4-1FD8-4738-87D7-3EC9C6A2741E";
paths = (
{
closed = 1;
nodes = (
"738 595 OFFCURVE",
"618 725 OFFCURVE",
"399 725 CURVE SMOOTH",
"180 725 OFFCURVE",
"58 597 OFFCURVE",
"58 359 CURVE SMOOTH",
"58 121 OFFCURVE",
"179 -10 OFFCURVE",
"398 -10 CURVE SMOOTH",
"617 -10 OFFCURVE",
"738 122 OFFCURVE",
"738 358 CURVE SMOOTH"
);
},
{
closed = 1;
nodes = (
"217 518 OFFCURVE",
"278 599 OFFCURVE",
"399 599 CURVE SMOOTH",
"519 599 OFFCURVE",
"579 519 OFFCURVE",
"579 358 CURVE SMOOTH",
"579 197 OFFCURVE",
"519 117 OFFCURVE",
"398 117 CURVE SMOOTH",
"277 117 OFFCURVE",
"217 198 OFFCURVE",
"217 358 CURVE SMOOTH"
);
}
);
width = 796;
}
);
note = O;
unicode = 004F;
},
{
glyphname = P;
lastChange = "2018-06-23 23:49:06 +0000";
layers = (
{
anchors = (
{
name = bottom;
position = "{314, 0}";
},
{
name = top;
position = "{314, 714}";
}
);
layerId = "120467F4-1FD8-4738-87D7-3EC9C6A2741E";
paths = (
{
closed = 1;
nodes = (
"310 590 LINE SMOOTH",
"393 590 OFFCURVE",
"430 557 OFFCURVE",
"430 486 CURVE SMOOTH",
"430 416 OFFCURVE",
"384 378 OFFCURVE",
"291 378 CURVE SMOOTH",
"241 378 LINE",
"241 590 LINE"
);
},
{
closed = 1;
nodes = (
"583 639 OFFCURVE",
"491 714 OFFCURVE",
"318 714 CURVE SMOOTH",
"90 714 LINE",
"90 0 LINE",
"241 0 LINE",
"241 254 LINE",
"306 254 LINE SMOOTH",
"483 254 OFFCURVE",
"583 337 OFFCURVE",
"583 491 CURVE SMOOTH"
);
}
);
width = 628;
}
);
note = P;
unicode = 0050;
},
{
glyphname = Q;
lastChange = "2018-06-23 23:49:06 +0000";
layers = (
{
anchors = (
{
name = bottom;
position = "{398, 0}";
},
{
name = top;
position = "{398, 714}";
}
);
layerId = "120467F4-1FD8-4738-87D7-3EC9C6A2741E";
paths = (
{
closed = 1;
nodes = (
"738 595 OFFCURVE",
"618 725 OFFCURVE",
"399 725 CURVE SMOOTH",
"180 725 OFFCURVE",
"58 597 OFFCURVE",
"58 359 CURVE SMOOTH",
"58 121 OFFCURVE",
"179 -10 OFFCURVE",
"398 -10 CURVE SMOOTH",
"409 -10 LINE",
"540 -170 LINE",
"734 -170 LINE",
"562 22 LINE",
"677 75 OFFCURVE",
"738 190 OFFCURVE",
"738 358 CURVE SMOOTH"
);
},
{
closed = 1;
nodes = (
"217 518 OFFCURVE",
"278 599 OFFCURVE",
"399 599 CURVE SMOOTH",
"519 599 OFFCURVE",
"579 519 OFFCURVE",
"579 358 CURVE SMOOTH",
"579 197 OFFCURVE",
"519 117 OFFCURVE",
"398 117 CURVE SMOOTH",
"277 117 OFFCURVE",
"217 198 OFFCURVE",
"217 358 CURVE SMOOTH"
);
}
);
width = 796;
}
);
note = Q;
unicode = 0051;
},
{
glyphname = R;
lastChange = "2018-06-23 23:49:06 +0000";
layers = (
{
anchors = (
{
name = bottom;
position = "{330, 0}";
},
{
name = top;
position = "{330, 714}";
}
);
layerId = "120467F4-1FD8-4738-87D7-3EC9C6A2741E";
paths = (
{
closed = 1;
nodes = (
"287 590 LINE SMOOTH",
"385 590 OFFCURVE",
"430 564 OFFCURVE",
"430 496 CURVE SMOOTH",
"430 428 OFFCURVE",
"386 397 OFFCURVE",
"290 397 CURVE SMOOTH",
"241 397 LINE",
"241 590 LINE"
);
},
{
closed = 1;
nodes = (
"492 0 LINE",
"660 0 LINE",
"627 47 OFFCURVE",
"558 150 OFFCURVE",
"450 311 CURVE",
"535 348 OFFCURVE",
"583 416 OFFCURVE",
"583 500 CURVE SMOOTH",
"583 644 OFFCURVE",
"492 714 OFFCURVE",
"298 714 CURVE SMOOTH",
"90 714 LINE",
"90 0 LINE",
"241 0 LINE",
"241 274 LINE",
"322 274 LINE"
);
}
);
width = 660;
}
);
note = R;
unicode = 0052;
},
{
glyphname = S;
lastChange = "2018-06-23 23:49:06 +0000";
layers = (
{
anchors = (
{
name = bottom;
position = "{275, 0}";
},
{
name = top;
position = "{275, 714}";
}
);
layerId = "120467F4-1FD8-4738-87D7-3EC9C6A2741E";
paths = (
{
closed = 1;
nodes = (
"511 292 OFFCURVE",
"470 348 OFFCURVE",
"337 412 CURVE SMOOTH",
"287 436 OFFCURVE",
"254 453 OFFCURVE",
"241 462 CURVE SMOOTH",
"214 481 OFFCURVE",
"202 499 OFFCURVE",
"202 526 CURVE SMOOTH",
"202 569 OFFCURVE",
"234 598 OFFCURVE",
"291 598 CURVE SMOOTH",
"339 598 OFFCURVE",
"383 587 OFFCURVE",
"459 556 CURVE",
"508 674 LINE",
"434 706 OFFCURVE",
"370 724 OFFCURVE",
"296 724 CURVE SMOOTH",
"145 724 OFFCURVE",
"54 647 OFFCURVE",
"54 521 CURVE SMOOTH",
"54 487 OFFCURVE",
"61 458 OFFCURVE",
"74 433 CURVE SMOOTH",
"100 383 OFFCURVE",
"137 349 OFFCURVE",
"224 308 CURVE SMOOTH",
"271 286 OFFCURVE",
"302 270 OFFCURVE",
"317 260 CURVE SMOOTH",
"347 240 OFFCURVE",
"363 219 OFFCURVE",
"363 191 CURVE SMOOTH",
"363 141 OFFCURVE",
"326 115 OFFCURVE",
"260 115 CURVE SMOOTH",
"205 115 OFFCURVE",
"142 131 OFFCURVE",
"46 174 CURVE",
"46 33 LINE",
"104 4 OFFCURVE",
"172 -10 OFFCURVE",
"248 -10 CURVE SMOOTH",
"414 -10 OFFCURVE",
"511 69 OFFCURVE",
"511 198 CURVE SMOOTH"
);
}
);
width = 551;
}
);
note = S;
unicode = 0053;
},
{
glyphname = T;
lastChange = "2018-06-23 23:49:06 +0000";
layers = (
{
anchors = (
{
name = bottom;
position = "{290, 0}";
},
{
name = center;
position = "{290, 357}";
},
{
name = top;
position = "{290, 714}";
}
);
layerId = "120467F4-1FD8-4738-87D7-3EC9C6A2741E";
paths = (
{
closed = 1;
nodes = (
"559 588 LINE",
"559 714 LINE",
"20 714 LINE",
"20 588 LINE",
"214 588 LINE",
"214 0 LINE",
"365 0 LINE",
"365 588 LINE"
);
}
);
width = 579;
}
);
note = T;
unicode = 0054;
},
{
glyphname = U;
lastChange = "2018-06-23 23:49:06 +0000";
layers = (
{
anchors = (
{
name = bottom;
position = "{378, 0}";
},
{
name = ogonek;
position = "{680, 5}";
},
{
name = top;
position = "{378, 714}";
},
{
name = topright;
position = "{746, 714}";
}
);
layerId = "120467F4-1FD8-4738-87D7-3EC9C6A2741E";
paths = (
{
closed = 1;
nodes = (
"520 278 LINE SMOOTH",
"520 167 OFFCURVE",
"478 117 OFFCURVE",
"379 117 CURVE SMOOTH",
"277 117 OFFCURVE",
"236 167 OFFCURVE",
"236 277 CURVE SMOOTH",
"236 714 LINE",
"85 714 LINE",
"85 254 LINE SMOOTH",
"85 90 OFFCURVE",
"191 -10 OFFCURVE",
"375 -10 CURVE SMOOTH",
"436 -10 OFFCURVE",
"489 1 OFFCURVE",
"533 22 CURVE SMOOTH",
"623 64 OFFCURVE",
"671 146 OFFCURVE",
"671 252 CURVE SMOOTH",
"671 714 LINE",
"520 714 LINE"
);
}
);
width = 756;
}
);
note = U;
unicode = 0055;
},
{
glyphname = V;
lastChange = "2018-06-23 23:49:06 +0000";
layers = (
{
anchors = (
{
name = bottom;
position = "{325, 0}";
},
{
name = top;
position = "{325, 714}";
}
);
layerId = "120467F4-1FD8-4738-87D7-3EC9C6A2741E";
paths = (
{
closed = 1;
nodes = (
"341 214 OFFCURVE",
"329 162 OFFCURVE",
"325 132 CURVE",
"321 158 OFFCURVE",
"302 239 OFFCURVE",
"287 289 CURVE SMOOTH",
"153 714 LINE",
"0 714 LINE",
"242 0 LINE",
"407 0 LINE",
"650 714 LINE",
"497 714 LINE",
"362 289 LINE SMOOTH"
);
}
);
width = 650;
}
);
note = V;
unicode = 0056;
},
{
glyphname = W;
lastChange = "2018-06-23 23:49:06 +0000";
layers = (
{
anchors = (
{
name = bottom;
position = "{483, 0}";
},
{
name = top;
position = "{483, 714}";
}
);
layerId = "120467F4-1FD8-4738-87D7-3EC9C6A2741E";
paths = (
{
closed = 1;
nodes = (
"818 714 LINE",
"727 324 LINE SMOOTH",
"715 277 OFFCURVE",
"698 188 OFFCURVE",
"692 137 CURVE",
"685 190 OFFCURVE",
"668 278 OFFCURVE",
"659 314 CURVE SMOOTH",
"555 714 LINE",
"412 714 LINE",
"308 314 LINE SMOOTH",
"296 271 OFFCURVE",
"279 174 OFFCURVE",
"275 137 CURVE",
"268 190 OFFCURVE",
"256 252 OFFCURVE",
"240 324 CURVE SMOOTH",
"149 714 LINE",
"0 714 LINE",
"182 0 LINE",
"354 0 LINE",
"450 374 LINE SMOOTH",
"458 407 OFFCURVE",
"479 507 OFFCURVE",
"483 542 CURVE",
"485 513 OFFCURVE",
"509 402 OFFCURVE",
"516 375 CURVE SMOOTH",
"613 0 LINE",
"785 0 LINE",
"967 714 LINE"
);
}
);
width = 967;
}
);
note = W;
unicode = 0057;
},
{
glyphname = X;
lastChange = "2018-06-23 23:49:06 +0000";
layers = (
{
anchors = (
{
name = bottom;
position = "{333, 0}";
},
{
name = top;
position = "{333, 714}";
}
);
layerId = "120467F4-1FD8-4738-87D7-3EC9C6A2741E";
paths = (
{
closed = 1;
nodes = (
"650 714 LINE",
"487 714 LINE",
"336 457 LINE",
"182 714 LINE",
"15 714 LINE",
"237 368 LINE",
"0 0 LINE",
"162 0 LINE",
"328 270 LINE",
"494 0 LINE",
"667 0 LINE",
"426 360 LINE"
);
}
);
width = 667;
}
);
note = X;
unicode = 0058;
},
{
glyphname = Y;
lastChange = "2018-06-23 23:49:06 +0000";
layers = (
{
anchors = (
{
name = bottom;
position = "{312, 0}";
},
{
name = top;
position = "{312, 714}";
},
{
name = topleft;
position = "{10, 714}";
}
);
layerId = "120467F4-1FD8-4738-87D7-3EC9C6A2741E";
paths = (
{
closed = 1;
nodes = (
"0 714 LINE",
"237 273 LINE",
"237 0 LINE",
"387 0 LINE",
"387 278 LINE",
"624 714 LINE",
"461 714 LINE",
"312 420 LINE",
"164 714 LINE"
);
}
);
width = 624;
}
);
note = Y;
unicode = 0059;
},
{
glyphname = Z;
lastChange = "2018-06-23 23:49:06 +0000";
layers = (
{
anchors = (
{
name = bottom;
position = "{290, 0}";
},
{
name = top;
position = "{290, 714}";
}
);
layerId = "120467F4-1FD8-4738-87D7-3EC9C6A2741E";
paths = (
{
closed = 1;
nodes = (
"204 125 LINE",
"546 616 LINE",
"546 714 LINE",
"33 714 LINE",
"33 589 LINE",
"366 589 LINE",
"24 98 LINE",
"24 0 LINE",
"555 0 LINE",
"555 125 LINE"
);
}
);
width = 579;
}
);
note = Z;
unicode = 005A;
},
{
glyphname = bracketleft;
lastChange = "2018-06-23 23:49:06 +0000";
layers = (
{
layerId = "120467F4-1FD8-4738-87D7-3EC9C6A2741E";
paths = (
{
closed = 1;
nodes = (
"197 -55 LINE",
"197 611 LINE",
"306 611 LINE",
"306 714 LINE",
"70 714 LINE",
"70 -158 LINE",
"306 -158 LINE",
"306 -55 LINE"
);
}
);
width = 331;
}
);
note = bracketleft;
unicode = 005B;
},
{
glyphname = backslash;
lastChange = "2018-06-23 23:49:06 +0000";
layers = (
{
layerId = "120467F4-1FD8-4738-87D7-3EC9C6A2741E";
paths = (
{
closed = 1;
nodes = (
"272 0 LINE",
"407 0 LINE",
"141 714 LINE",
"6 714 LINE"
);
}
);
width = 413;
}
);
note = backslash;
unicode = 005C;
},
{
glyphname = bracketright;
lastChange = "2018-06-23 23:49:06 +0000";
layers = (
{
layerId = "120467F4-1FD8-4738-87D7-3EC9C6A2741E";
paths = (
{
closed = 1;
nodes = (
"261 -158 LINE",
"261 714 LINE",
"25 714 LINE",
"25 611 LINE",
"134 611 LINE",
"134 -55 LINE",
"25 -55 LINE",
"25 -158 LINE"
);
}
);
width = 331;
}
);
note = bracketright;
unicode = 005D;
},
{
glyphname = asciicircum;
lastChange = "2018-06-23 23:49:06 +0000";
layers = (
{
layerId = "120467F4-1FD8-4738-87D7-3EC9C6A2741E";
paths = (
{
closed = 1;
nodes = (
"256 568 LINE",
"413 254 LINE",
"530 254 LINE",
"288 718 LINE",
"218 718 LINE",
"4 254 LINE",
"119 254 LINE"
);
}
);
width = 532;
}
);
note = asciicircum;
unicode = 005E;
},
{
glyphname = underscore;
lastChange = "2018-06-23 23:49:06 +0000";
layers = (
{
layerId = "120467F4-1FD8-4738-87D7-3EC9C6A2741E";
paths = (
{
closed = 1;
nodes = (
"-2 -90 LINE",
"-2 -158 LINE",
"413 -158 LINE",
"413 -90 LINE"
);
}
);
width = 411;
}
);
note = underscore;
unicode = 005F;
},
{
glyphname = grave;
lastChange = "2018-06-23 23:49:06 +0000";
layers = (
{
layerId = "120467F4-1FD8-4738-87D7-3EC9C6A2741E";
paths = (
{
closed = 1;
nodes = (
"444 619 LINE",
"388 684 OFFCURVE",
"350 733 OFFCURVE",
"329 766 CURVE",
"162 766 LINE",
"162 756 LINE",
"207 713 OFFCURVE",
"304 635 OFFCURVE",
"345 606 CURVE",
"444 606 LINE"
);
}
);
width = 607;
}
);
note = grave;
unicode = 0060;
},
{
glyphname = a;
lastChange = "2018-06-23 23:49:06 +0000";
layers = (
{
anchors = (
{
name = bottom;
position = "{302, 0}";
},
{
name = ogonek;
position = "{543, 5}";
},
{
name = top;
position = "{302, 546}";
}
);
layerId = "120467F4-1FD8-4738-87D7-3EC9C6A2741E";
paths = (
{
closed = 1;
nodes = (
"529 364 LINE SMOOTH",
"529 494 OFFCURVE",
"448 557 OFFCURVE",
"302 557 CURVE SMOOTH",
"225 557 OFFCURVE",
"156 541 OFFCURVE",
"93 508 CURVE",
"142 407 LINE",
"201 434 OFFCURVE",
"252 447 OFFCURVE",
"296 447 CURVE SMOOTH",
"353 447 OFFCURVE",
"381 419 OFFCURVE",
"381 364 CURVE SMOOTH",
"381 340 LINE",
"286 337 LINE SMOOTH",
"123 331 OFFCURVE",
"42 279 OFFCURVE",
"42 163 CURVE SMOOTH",
"42 52 OFFCURVE",
"106 -10 OFFCURVE",
"211 -10 CURVE SMOOTH",
"296 -10 OFFCURVE",
"342 11 OFFCURVE",
"392 74 CURVE",
"396 74 LINE",
"425 0 LINE",
"529 0 LINE"
);
},
{
closed = 1;
nodes = (
"381 142 OFFCURVE",
"336 99 OFFCURVE",
"267 99 CURVE SMOOTH",
"219 99 OFFCURVE",
"195 120 OFFCURVE",
"195 162 CURVE SMOOTH",
"195 221 OFFCURVE",
"237 249 OFFCURVE",
"323 251 CURVE SMOOTH",
"381 253 LINE",
"381 208 LINE SMOOTH"
);
}
);
width = 604;
}
);
note = a;
unicode = 0061;
},
{
glyphname = b;
lastChange = "2018-06-23 23:49:06 +0000";
layers = (
{
anchors = (
{
name = bottom;
position = "{316, 0}";
},
{
name = top;
position = "{316, 546}";
}
);
layerId = "120467F4-1FD8-4738-87D7-3EC9C6A2741E";
paths = (
{
closed = 1;
nodes = (
"313 556 OFFCURVE",
"262 529 OFFCURVE",
"227 475 CURVE",
"221 475 LINE",
"225 524 OFFCURVE",
"227 561 OFFCURVE",
"227 583 CURVE SMOOTH",
"227 760 LINE",
"78 760 LINE",
"78 0 LINE",
"192 0 LINE",
"217 60 LINE",
"227 60 LINE",
"264 14 OFFCURVE",
"314 -10 OFFCURVE",
"378 -10 CURVE SMOOTH",
"507 -10 OFFCURVE",
"588 94 OFFCURVE",
"588 274 CURVE SMOOTH",
"588 449 OFFCURVE",
"511 556 OFFCURVE",
"382 556 CURVE SMOOTH"
);
},
{
closed = 1;
nodes = (
"397 437 OFFCURVE",
"436 383 OFFCURVE",
"436 276 CURVE SMOOTH",
"436 168 OFFCURVE",
"397 111 OFFCURVE",
"336 111 CURVE SMOOTH",
"260 111 OFFCURVE",
"227 158 OFFCURVE",
"227 275 CURVE SMOOTH",
"227 291 LINE SMOOTH",
"229 395 OFFCURVE",
"260 437 OFFCURVE",
"334 437 CURVE SMOOTH"
);
}
);
width = 633;
}
);
note = b;
unicode = 0062;
},
{
glyphname = c;
lastChange = "2018-06-23 23:49:06 +0000";
layers = (
{
anchors = (
{
name = bottom;
position = "{257, 0}";
},
{
name = top;
position = "{292, 546}";
}
);
layerId = "120467F4-1FD8-4738-87D7-3EC9C6A2741E";
paths = (
{
closed = 1;
nodes = (
"375 -10 OFFCURVE",
"417 0 OFFCURVE",
"466 31 CURVE",
"466 158 LINE",
"417 125 OFFCURVE",
"370 111 OFFCURVE",
"313 111 CURVE SMOOTH",
"235 111 OFFCURVE",
"197 164 OFFCURVE",
"197 271 CURVE SMOOTH",
"197 381 OFFCURVE",
"235 436 OFFCURVE",
"313 436 CURVE SMOOTH",
"354 436 OFFCURVE",
"392 423 OFFCURVE",
"439 404 CURVE",
"483 519 LINE",
"433 544 OFFCURVE",
"376 556 OFFCURVE",
"313 556 CURVE SMOOTH",
"141 556 OFFCURVE",
"45 456 OFFCURVE",
"45 270 CURVE SMOOTH",
"45 83 OFFCURVE",
"130 -10 OFFCURVE",
"300 -10 CURVE SMOOTH"
);
}
);
width = 514;
}
);
note = c;
unicode = 0063;
},
{
glyphname = d;
lastChange = "2018-06-23 23:49:06 +0000";
layers = (
{
anchors = (
{
name = bottom;
position = "{316, 0}";
},
{
name = center;
position = "{316, 273}";
},
{
name = top;
position = "{316, 546}";
},
{
name = topright;
position = "{623, 546}";
}
);
layerId = "120467F4-1FD8-4738-87D7-3EC9C6A2741E";
paths = (
{
closed = 1;
nodes = (
"320 -10 OFFCURVE",
"372 17 OFFCURVE",
"406 71 CURVE",
"412 71 LINE",
"441 0 LINE",
"555 0 LINE",
"555 760 LINE",
"406 760 LINE",
"406 585 LINE SMOOTH",
"406 553 OFFCURVE",
"410 517 OFFCURVE",
"417 476 CURVE",
"412 476 LINE",
"376 529 OFFCURVE",
"324 556 OFFCURVE",
"255 556 CURVE SMOOTH",
"124 556 OFFCURVE",
"45 451 OFFCURVE",
"45 272 CURVE SMOOTH",
"45 96 OFFCURVE",
"123 -10 OFFCURVE",
"251 -10 CURVE SMOOTH"
);
},
{
closed = 1;
nodes = (
"234 109 OFFCURVE",
"196 163 OFFCURVE",
"196 270 CURVE SMOOTH",
"196 377 OFFCURVE",
"234 435 OFFCURVE",
"301 435 CURVE SMOOTH",
"382 435 OFFCURVE",
"416 388 OFFCURVE",
"416 271 CURVE SMOOTH",
"416 255 LINE SMOOTH",
"413 149 OFFCURVE",
"379 109 OFFCURVE",
"303 109 CURVE SMOOTH"
);
}
);
width = 633;
}
);
note = d;
unicode = 0064;
},
{
glyphname = e;
lastChange = "2018-06-23 23:49:06 +0000";
layers = (
{
anchors = (
{
name = bottom;
position = "{295, 0}";
},
{
name = ogonek;
position = "{532, 5}";
},
{
name = top;
position = "{320, 546}";
}
);
layerId = "120467F4-1FD8-4738-87D7-3EC9C6A2741E";
paths = (
{
closed = 1;
nodes = (
"367 450 OFFCURVE",
"407 409 OFFCURVE",
"408 335 CURVE",
"199 335 LINE",
"205 409 OFFCURVE",
"241 450 OFFCURVE",
"304 450 CURVE SMOOTH"
);
},
{
closed = 1;
nodes = (
"411 -10 OFFCURVE",
"465 3 OFFCURVE",
"517 29 CURVE",
"517 144 LINE",
"453 114 OFFCURVE",
"398 101 OFFCURVE",
"332 101 CURVE SMOOTH",
"248 101 OFFCURVE",
"199 151 OFFCURVE",
"196 236 CURVE",
"548 236 LINE",
"548 308 LINE SMOOTH",
"548 463 OFFCURVE",
"458 556 OFFCURVE",
"303 556 CURVE SMOOTH",
"142 556 OFFCURVE",
"45 452 OFFCURVE",
"45 269 CURVE SMOOTH",
"45 91 OFFCURVE",
"149 -10 OFFCURVE",
"325 -10 CURVE SMOOTH"
);
}
);
width = 591;
}
);
note = e;
unicode = 0065;
},
{
glyphname = f;
lastChange = "2018-06-23 23:49:06 +0000";
layers = (
{
anchors = (
{
name = bottom;
position = "{194, 0}";
},
{
name = top;
position = "{194, 546}";
}
);
layerId = "120467F4-1FD8-4738-87D7-3EC9C6A2741E";
paths = (
{
closed = 1;
nodes = (
"251 546 LINE",
"251 580 LINE SMOOTH",
"251 619 OFFCURVE",
"269 647 OFFCURVE",
"311 647 CURVE SMOOTH",
"336 647 OFFCURVE",
"364 642 OFFCURVE",
"394 633 CURVE",
"432 742 LINE",
"392 757 OFFCURVE",
"346 765 OFFCURVE",
"295 765 CURVE SMOOTH",
"160 765 OFFCURVE",
"102 710 OFFCURVE",
"102 586 CURVE SMOOTH",
"102 546 LINE",
"20 506 LINE",
"20 434 LINE",
"102 434 LINE",
"102 0 LINE",
"251 0 LINE",
"251 434 LINE",
"380 434 LINE",
"380 546 LINE"
);
}
);
width = 387;
}
);
note = f;
unicode = 0066;
},
{
glyphname = g;
lastChange = "2018-06-23 23:49:06 +0000";
layers = (
{
anchors = (
{
name = bottom;
position = "{283, 0}";
},
{
name = top;
position = "{283, 546}";
}
);
layerId = "120467F4-1FD8-4738-87D7-3EC9C6A2741E";
paths = (
{
closed = 1;
nodes = (
"351 548 OFFCURVE",
"299 556 OFFCURVE",
"268 556 CURVE SMOOTH",
"124 556 OFFCURVE",
"44 488 OFFCURVE",
"44 369 CURVE SMOOTH",
"44 295 OFFCURVE",
"80 238 OFFCURVE",
"137 213 CURVE",
"92 186 OFFCURVE",
"67 162 OFFCURVE",
"67 120 CURVE SMOOTH",
"67 87 OFFCURVE",
"93 54 OFFCURVE",
"124 41 CURVE",
"44 22 OFFCURVE",
"3 -23 OFFCURVE",
"3 -89 CURVE SMOOTH",
"3 -185 OFFCURVE",
"85 -240 OFFCURVE",
"238 -240 CURVE SMOOTH",
"437 -240 OFFCURVE",
"547 -167 OFFCURVE",
"547 -39 CURVE SMOOTH",
"547 61 OFFCURVE",
"482 113 OFFCURVE",
"363 113 CURVE SMOOTH",
"270 113 LINE SMOOTH",
"215 113 OFFCURVE",
"188 124 OFFCURVE",
"188 145 CURVE SMOOTH",
"188 159 OFFCURVE",
"196 172 OFFCURVE",
"211 184 CURVE",
"233 182 LINE",
"260 180 LINE",
"405 180 OFFCURVE",
"491 249 OFFCURVE",
"491 366 CURVE SMOOTH",
"491 396 OFFCURVE",
"483 424 OFFCURVE",
"468 448 CURVE",
"553 470 LINE",
"553 546 LINE",
"363 546 LINE"
);
},
{
closed = 1;
nodes = (
"132 -35 OFFCURVE",
"173 -7 OFFCURVE",
"228 -7 CURVE SMOOTH",
"305 -7 LINE SMOOTH",
"380 -7 OFFCURVE",
"415 -20 OFFCURVE",
"415 -61 CURVE SMOOTH",
"415 -112 OFFCURVE",
"351 -143 OFFCURVE",
"244 -143 CURVE SMOOTH",
"173 -143 OFFCURVE",
"132 -118 OFFCURVE",
"132 -77 CURVE SMOOTH"
);
},
{
closed = 1;
nodes = (
"186 433 OFFCURVE",
"213 466 OFFCURVE",
"268 466 CURVE SMOOTH",
"322 466 OFFCURVE",
"349 433 OFFCURVE",
"349 367 CURVE SMOOTH",
"349 308 OFFCURVE",
"324 271 OFFCURVE",
"268 271 CURVE SMOOTH",
"213 271 OFFCURVE",
"186 308 OFFCURVE",
"186 367 CURVE SMOOTH"
);
}
);
width = 565;
}
);
note = g;
unicode = 0067;
},
{
glyphname = h;
lastChange = "2018-06-23 23:49:06 +0000";
layers = (
{
anchors = (
{
name = bottom;
position = "{329, 0}";
},
{
name = center;
position = "{329, 273}";
},
{
name = top;
position = "{329, 546}";
}
);
layerId = "120467F4-1FD8-4738-87D7-3EC9C6A2741E";
paths = (
{
closed = 1;
nodes = (
"582 485 OFFCURVE",
"515 556 OFFCURVE",
"386 556 CURVE SMOOTH",
"314 556 OFFCURVE",
"261 529 OFFCURVE",
"228 476 CURVE",
"220 476 LINE",
"224 520 LINE SMOOTH",
"226 564 OFFCURVE",
"227 593 OFFCURVE",
"227 605 CURVE SMOOTH",
"227 760 LINE",
"78 760 LINE",
"78 0 LINE",
"227 0 LINE",
"227 257 LINE SMOOTH",
"227 384 OFFCURVE",
"262 437 OFFCURVE",
"345 437 CURVE SMOOTH",
"404 437 OFFCURVE",
"433 397 OFFCURVE",
"433 319 CURVE SMOOTH",
"433 0 LINE",
"582 0 LINE",
"582 356 LINE SMOOTH"
);
}
);
width = 657;
}
);
note = h;
unicode = 0068;
},
{
glyphname = i;
lastChange = "2018-06-23 23:49:06 +0000";
layers = (
{
anchors = (
{
name = bottom;
position = "{153, 0}";
}
);
layerId = "120467F4-1FD8-4738-87D7-3EC9C6A2741E";
paths = (
{
closed = 1;
nodes = (
"72 638 OFFCURVE",
"99 614 OFFCURVE",
"153 614 CURVE SMOOTH",
"207 614 OFFCURVE",
"234 641 OFFCURVE",
"234 687 CURVE SMOOTH",
"234 735 OFFCURVE",
"207 760 OFFCURVE",
"153 760 CURVE SMOOTH",
"99 760 OFFCURVE",
"72 735 OFFCURVE",
"72 687 CURVE SMOOTH"
);
},
{
closed = 1;
nodes = (
"78 546 LINE",
"78 0 LINE",
"227 0 LINE",
"227 546 LINE"
);
}
);
width = 305;
}
);
note = i;
unicode = 0069;
},
{
glyphname = j;
lastChange = "2018-06-23 23:49:06 +0000";
layers = (
{
layerId = "120467F4-1FD8-4738-87D7-3EC9C6A2741E";
paths = (
{
closed = 1;
nodes = (
"157 -240 OFFCURVE",
"227 -175 OFFCURVE",
"227 -59 CURVE SMOOTH",
"227 531 LINE",
"78 531 LINE",
"78 -37 LINE SMOOTH",
"78 -92 OFFCURVE",
"56 -120 OFFCURVE",
"6 -120 CURVE SMOOTH",
"-18 -120 OFFCURVE",
"-41 -117 OFFCURVE",
"-64 -111 CURVE",
"-64 -228 LINE",
"-37 -236 OFFCURVE",
"-4 -240 OFFCURVE",
"34 -240 CURVE SMOOTH"
);
},
{
closed = 1;
nodes = (
"72 638 OFFCURVE",
"99 614 OFFCURVE",
"153 614 CURVE SMOOTH",
"207 614 OFFCURVE",
"234 641 OFFCURVE",
"234 687 CURVE SMOOTH",
"234 735 OFFCURVE",
"207 760 OFFCURVE",
"153 760 CURVE SMOOTH",
"99 760 OFFCURVE",
"72 735 OFFCURVE",
"72 687 CURVE SMOOTH"
);
}
);
width = 305;
}
);
note = j;
unicode = 006A;
},
{
glyphname = k;
lastChange = "2018-06-23 23:49:06 +0000";
layers = (
{
anchors = (
{
name = bottom;
position = "{310, 0}";
},
{
name = top;
position = "{378, 546}";
}
);
layerId = "120467F4-1FD8-4738-87D7-3EC9C6A2741E";
paths = (
{
closed = 1;
nodes = (
"227 421 LINE",
"227 760 LINE",
"78 760 LINE",
"78 0 LINE",
"227 0 LINE",
"227 170 LINE",
"291 221 LINE",
"448 0 LINE",
"620 0 LINE",
"390 309 LINE",
"607 546 LINE",
"439 546 LINE",
"286 380 LINE",
"221 297 LINE",
"219 297 LINE"
);
}
);
width = 620;
}
);
note = k;
unicode = 006B;
},
{
glyphname = l;
lastChange = "2018-06-23 23:49:06 +0000";
layers = (
{
anchors = (
{
name = bottom;
position = "{153, 0}";
},
{
name = center;
position = "{153, 273}";
},
{
name = top;
position = "{369, 546}";
},
{
name = topright;
position = "{295, 546}";
}
);
layerId = "120467F4-1FD8-4738-87D7-3EC9C6A2741E";
paths = (
{
closed = 1;
nodes = (
"78 760 LINE",
"78 0 LINE",
"227 0 LINE",
"227 760 LINE"
);
}
);
width = 305;
}
);
note = l;
unicode = 006C;
},
{
glyphname = m;
lastChange = "2018-06-23 23:49:06 +0000";
layers = (
{
anchors = (
{
name = bottom;
position = "{491, 0}";
},
{
name = top;
position = "{545, 546}";
}
);
layerId = "120467F4-1FD8-4738-87D7-3EC9C6A2741E";
paths = (
{
closed = 1;
nodes = (
"567 387 OFFCURVE",
"603 437 OFFCURVE",
"676 437 CURVE SMOOTH",
"732 437 OFFCURVE",
"758 397 OFFCURVE",
"758 319 CURVE SMOOTH",
"758 0 LINE",
"907 0 LINE",
"907 356 LINE SMOOTH",
"907 496 OFFCURVE",
"843 556 OFFCURVE",
"719 556 CURVE SMOOTH",
"647 556 OFFCURVE",
"587 527 OFFCURVE",
"558 476 CURVE",
"545 476 LINE",
"516 529 OFFCURVE",
"460 556 OFFCURVE",
"379 556 CURVE SMOOTH",
"307 556 OFFCURVE",
"250 526 OFFCURVE",
"220 476 CURVE",
"212 476 LINE",
"192 546 LINE",
"78 546 LINE",
"78 0 LINE",
"227 0 LINE",
"227 257 LINE SMOOTH",
"227 385 OFFCURVE",
"260 437 OFFCURVE",
"336 437 CURVE SMOOTH",
"393 437 OFFCURVE",
"418 397 OFFCURVE",
"418 319 CURVE SMOOTH",
"418 0 LINE",
"567 0 LINE",
"567 274 LINE SMOOTH"
);
}
);
width = 982;
}
);
note = m;
unicode = 006D;
},
{
glyphname = n;
lastChange = "2018-06-23 23:49:06 +0000";
layers = (
{
anchors = (
{
name = bottom;
position = "{329, 0}";
},
{
name = top;
position = "{378, 546}";
}
);
layerId = "120467F4-1FD8-4738-87D7-3EC9C6A2741E";
paths = (
{
closed = 1;
nodes = (
"582 485 OFFCURVE",
"515 556 OFFCURVE",
"388 556 CURVE SMOOTH",
"314 556 OFFCURVE",
"253 529 OFFCURVE",
"220 476 CURVE",
"212 476 LINE",
"192 546 LINE",
"78 546 LINE",
"78 0 LINE",
"227 0 LINE",
"227 257 LINE SMOOTH",
"227 386 OFFCURVE",
"262 437 OFFCURVE",
"345 437 CURVE SMOOTH",
"406 437 OFFCURVE",
"433 397 OFFCURVE",
"433 319 CURVE SMOOTH",
"433 0 LINE",
"582 0 LINE",
"582 356 LINE SMOOTH"
);
}
);
width = 657;
}
);
note = n;
unicode = 006E;
},
{
glyphname = o;
lastChange = "2018-06-23 23:49:06 +0000";
layers = (
{
anchors = (
{
name = bottom;
position = "{310, 0}";
},
{
name = center;
position = "{310, 273}";
},
{
name = ogonek;
position = "{557, 5}";
},
{
name = top;
position = "{310, 546}";
},
{
name = topright;
position = "{609, 546}";
}
);
layerId = "120467F4-1FD8-4738-87D7-3EC9C6A2741E";
paths = (
{
closed = 1;
nodes = (
"197 383 OFFCURVE",
"229 436 OFFCURVE",
"309 436 CURVE SMOOTH",
"389 436 OFFCURVE",
"422 382 OFFCURVE",
"422 274 CURVE SMOOTH",
"422 165 OFFCURVE",
"390 110 OFFCURVE",
"310 110 CURVE SMOOTH",
"230 110 OFFCURVE",
"197 166 OFFCURVE",
"197 274 CURVE SMOOTH"
);
},
{
closed = 1;
nodes = (
"574 331 OFFCURVE",
"563 381 OFFCURVE",
"542 424 CURVE SMOOTH",
"499 509 OFFCURVE",
"416 556 OFFCURVE",
"311 556 CURVE SMOOTH",
"143 556 OFFCURVE",
"45 452 OFFCURVE",
"45 274 CURVE SMOOTH",
"45 217 OFFCURVE",
"56 167 OFFCURVE",
"77 124 CURVE SMOOTH",
"120 38 OFFCURVE",
"203 -10 OFFCURVE",
"308 -10 CURVE SMOOTH",
"476 -10 OFFCURVE",
"574 96 OFFCURVE",
"574 274 CURVE SMOOTH"
);
}
);
width = 619;
}
);
note = o;
unicode = 006F;
},
{
glyphname = p;
lastChange = "2018-06-23 23:49:06 +0000";
layers = (
{
anchors = (
{
name = bottom;
position = "{316, 0}";
},
{
name = top;
position = "{316, 546}";
}
);
layerId = "120467F4-1FD8-4738-87D7-3EC9C6A2741E";
paths = (
{
closed = 1;
nodes = (
"420 -10 OFFCURVE",
"458 1 OFFCURVE",
"489 24 CURVE SMOOTH",
"552 69 OFFCURVE",
"588 157 OFFCURVE",
"588 274 CURVE SMOOTH",
"588 451 OFFCURVE",
"511 556 OFFCURVE",
"382 556 CURVE SMOOTH",
"313 556 OFFCURVE",
"262 529 OFFCURVE",
"227 475 CURVE",
"220 475 LINE",
"199 546 LINE",
"78 546 LINE",
"78 -240 LINE",
"227 -240 LINE",
"227 -19 LINE SMOOTH",
"227 -12 OFFCURVE",
"225 15 OFFCURVE",
"219 60 CURVE",
"227 60 LINE",
"264 14 OFFCURVE",
"314 -10 OFFCURVE",
"378 -10 CURVE SMOOTH"
);
},
{
closed = 1;
nodes = (
"404 437 OFFCURVE",
"436 383 OFFCURVE",
"436 276 CURVE SMOOTH",
"436 166 OFFCURVE",
"403 111 OFFCURVE",
"336 111 CURVE SMOOTH",
"260 111 OFFCURVE",
"227 158 OFFCURVE",
"227 275 CURVE SMOOTH",
"227 291 LINE SMOOTH",
"229 395 OFFCURVE",
"260 437 OFFCURVE",
"334 437 CURVE SMOOTH"
);
}
);
width = 633;
}
);
note = p;
unicode = 0070;
},
{
glyphname = q;
lastChange = "2018-06-23 23:49:06 +0000";
layers = (
{
anchors = (
{
name = bottom;
position = "{316, 0}";
},
{
name = top;
position = "{373, 546}";
}
);
layerId = "120467F4-1FD8-4738-87D7-3EC9C6A2741E";
paths = (
{
closed = 1;
nodes = (
"230 107 OFFCURVE",
"197 161 OFFCURVE",
"197 270 CURVE SMOOTH",
"197 380 OFFCURVE",
"232 435 OFFCURVE",
"302 435 CURVE SMOOTH",
"382 435 OFFCURVE",
"416 388 OFFCURVE",
"416 271 CURVE SMOOTH",
"416 253 LINE SMOOTH",
"413 145 OFFCURVE",
"380 107 OFFCURVE",
"304 107 CURVE SMOOTH"
);
},
{
closed = 1;
nodes = (
"320 -10 OFFCURVE",
"374 18 OFFCURVE",
"406 71 CURVE",
"412 71 LINE",
"408 36 OFFCURVE",
"406 9 OFFCURVE",
"406 -11 CURVE SMOOTH",
"406 -240 LINE",
"555 -240 LINE",
"555 546 LINE",
"429 546 LINE",
"416 476 LINE",
"412 476 LINE",
"373 531 OFFCURVE",
"323 556 OFFCURVE",
"254 556 CURVE SMOOTH",
"125 556 OFFCURVE",
"45 450 OFFCURVE",
"45 272 CURVE SMOOTH",
"45 95 OFFCURVE",
"122 -10 OFFCURVE",
"251 -10 CURVE SMOOTH"
);
}
);
width = 633;
}
);
note = q;
unicode = 0071;
},
{
glyphname = r;
lastChange = "2018-06-23 23:49:06 +0000";
layers = (
{
anchors = (
{
name = bottom;
position = "{227, 0}";
},
{
name = top;
position = "{227, 546}";
}
);
layerId = "120467F4-1FD8-4738-87D7-3EC9C6A2741E";
paths = (
{
closed = 1;
nodes = (
"315 556 OFFCURVE",
"254 515 OFFCURVE",
"220 454 CURVE",
"213 454 LINE",
"191 546 LINE",
"78 546 LINE",
"78 0 LINE",
"227 0 LINE",
"227 278 LINE SMOOTH",
"227 366 OFFCURVE",
"283 417 OFFCURVE",
"378 417 CURVE SMOOTH",
"395 417 OFFCURVE",
"410 416 OFFCURVE",
"422 412 CURVE",
"433 552 LINE",
"420 555 OFFCURVE",
"403 556 OFFCURVE",
"383 556 CURVE SMOOTH"
);
}
);
width = 454;
}
);
note = r;
unicode = 0072;
},
{
glyphname = s;
lastChange = "2018-06-23 23:49:06 +0000";
layers = (
{
anchors = (
{
name = bottom;
position = "{249, 0}";
},
{
name = top;
position = "{249, 546}";
}
);
layerId = "120467F4-1FD8-4738-87D7-3EC9C6A2741E";
paths = (
{
closed = 1;
nodes = (
"459 189 OFFCURVE",
"454 212 OFFCURVE",
"445 232 CURVE SMOOTH",
"426 271 OFFCURVE",
"393 297 OFFCURVE",
"307 332 CURVE SMOOTH",
"259 351 OFFCURVE",
"229 366 OFFCURVE",
"214 375 CURVE SMOOTH",
"200 385 OFFCURVE",
"193 397 OFFCURVE",
"193 410 CURVE SMOOTH",
"193 434 OFFCURVE",
"215 446 OFFCURVE",
"259 446 CURVE SMOOTH",
"308 446 OFFCURVE",
"354 429 OFFCURVE",
"408 406 CURVE",
"453 513 LINE",
"391 542 OFFCURVE",
"327 556 OFFCURVE",
"261 556 CURVE SMOOTH",
"123 556 OFFCURVE",
"45 501 OFFCURVE",
"45 404 CURVE SMOOTH",
"45 375 OFFCURVE",
"49 352 OFFCURVE",
"59 333 CURVE SMOOTH",
"76 293 OFFCURVE",
"110 267 OFFCURVE",
"194 232 CURVE SMOOTH",
"223 220 OFFCURVE",
"247 209 OFFCURVE",
"264 200 CURVE SMOOTH",
"299 181 OFFCURVE",
"312 169 OFFCURVE",
"312 146 CURVE SMOOTH",
"312 115 OFFCURVE",
"285 99 OFFCURVE",
"231 99 CURVE SMOOTH",
"178 99 OFFCURVE",
"101 119 OFFCURVE",
"46 145 CURVE",
"46 22 LINE",
"95 1 OFFCURVE",
"146 -10 OFFCURVE",
"226 -10 CURVE SMOOTH",
"381 -10 OFFCURVE",
"459 50 OFFCURVE",
"459 162 CURVE SMOOTH"
);
}
);
width = 497;
}
);
note = s;
unicode = 0073;
},
{
glyphname = t;
lastChange = "2018-06-23 23:49:06 +0000";
layers = (
{
anchors = (
{
name = bottom;
position = "{217, 0}";
},
{
name = center;
position = "{217, 273}";
},
{
name = top;
position = "{370, 546}";
},
{
name = topright;
position = "{424, 546}";
}
);
layerId = "120467F4-1FD8-4738-87D7-3EC9C6A2741E";
paths = (
{
closed = 1;
nodes = (
"269 109 OFFCURVE",
"243 128 OFFCURVE",
"243 171 CURVE SMOOTH",
"243 434 LINE",
"396 434 LINE",
"396 546 LINE",
"243 546 LINE",
"243 662 LINE",
"148 662 LINE",
"105 547 LINE",
"23 497 LINE",
"23 434 LINE",
"94 434 LINE",
"94 171 LINE SMOOTH",
"94 50 OFFCURVE",
"146 -10 OFFCURVE",
"265 -10 CURVE SMOOTH",
"319 -10 OFFCURVE",
"365 -1 OFFCURVE",
"402 15 CURVE",
"402 126 LINE",
"365 115 OFFCURVE",
"334 109 OFFCURVE",
"308 109 CURVE SMOOTH"
);
}
);
width = 434;
}
);
note = t;
unicode = 0074;
},
{
glyphname = u;
lastChange = "2018-06-23 23:49:06 +0000";
layers = (
{
anchors = (
{
name = bottom;
position = "{329, 0}";
},
{
name = ogonek;
position = "{591, 5}";
},
{
name = top;
position = "{329, 546}";
},
{
name = topright;
position = "{647, 546}";
}
);
layerId = "120467F4-1FD8-4738-87D7-3EC9C6A2741E";
paths = (
{
closed = 1;
nodes = (
"579 546 LINE",
"430 546 LINE",
"430 289 LINE SMOOTH",
"430 160 OFFCURVE",
"396 109 OFFCURVE",
"312 109 CURVE SMOOTH",
"251 109 OFFCURVE",
"224 148 OFFCURVE",
"224 227 CURVE SMOOTH",
"224 546 LINE",
"75 546 LINE",
"75 190 LINE SMOOTH",
"75 61 OFFCURVE",
"141 -10 OFFCURVE",
"269 -10 CURVE SMOOTH",
"344 -10 OFFCURVE",
"405 19 OFFCURVE",
"437 70 CURVE",
"445 70 LINE",
"465 0 LINE",
"579 0 LINE"
);
}
);
width = 657;
}
);
note = u;
unicode = 0075;
},
{
glyphname = v;
lastChange = "2018-06-23 23:49:06 +0000";
layers = (
{
anchors = (
{
name = bottom;
position = "{285, 0}";
},
{
name = top;
position = "{285, 546}";
}
);
layerId = "120467F4-1FD8-4738-87D7-3EC9C6A2741E";
paths = (
{
closed = 1;
nodes = (
"569 546 LINE",
"413 546 LINE",
"308 235 LINE SMOOTH",
"295 191 OFFCURVE",
"288 154 OFFCURVE",
"286 123 CURVE",
"283 123 LINE",
"280 158 OFFCURVE",
"273 195 OFFCURVE",
"261 235 CURVE",
"156 546 LINE",
"0 546 LINE",
"208 0 LINE",
"361 0 LINE"
);
}
);
width = 569;
}
);
note = v;
unicode = 0076;
},
{
glyphname = w;
lastChange = "2018-06-23 23:49:06 +0000";
layers = (
{
anchors = (
{
name = bottom;
position = "{428, 0}";
},
{
name = top;
position = "{428, 546}";
}
);
layerId = "120467F4-1FD8-4738-87D7-3EC9C6A2741E";
paths = (
{
closed = 1;
nodes = (
"846 546 LINE",
"700 546 LINE",
"635 304 LINE",
"628 275 OFFCURVE",
"609 172 OFFCURVE",
"603 125 CURVE",
"600 125 LINE",
"600 134 OFFCURVE",
"599 146 OFFCURVE",
"597 162 CURVE SMOOTH",
"592 192 OFFCURVE",
"587 225 OFFCURVE",
"582 252 CURVE SMOOTH",
"579 267 OFFCURVE",
"577 277 OFFCURVE",
"575 284 CURVE",
"511 546 LINE",
"347 546 LINE",
"280 284 LINE",
"272 243 LINE SMOOTH",
"262 189 OFFCURVE",
"256 150 OFFCURVE",
"255 125 CURVE",
"252 125 LINE",
"242 201 OFFCURVE",
"231 261 OFFCURVE",
"221 304 CURVE SMOOTH",
"158 546 LINE",
"10 546 LINE",
"165 0 LINE",
"325 0 LINE",
"425 432 LINE",
"428 432 LINE",
"485 191 LINE",
"527 0 LINE",
"689 0 LINE"
);
}
);
width = 856;
}
);
note = w;
unicode = 0077;
},
{
glyphname = x;
lastChange = "2018-06-23 23:49:06 +0000";
layers = (
{
anchors = (
{
name = bottom;
position = "{289, 0}";
},
{
name = top;
position = "{289, 546}";
}
);
layerId = "120467F4-1FD8-4738-87D7-3EC9C6A2741E";
paths = (
{
closed = 1;
nodes = (
"174 0 LINE",
"289 187 LINE",
"404 0 LINE",
"573 0 LINE",
"387 279 LINE",
"565 546 LINE",
"396 546 LINE",
"289 372 LINE",
"183 546 LINE",
"14 546 LINE",
"190 279 LINE",
"5 0 LINE"
);
}
);
width = 578;
}
);
note = x;
unicode = 0078;
},
{
glyphname = y;
lastChange = "2018-06-23 23:49:06 +0000";
layers = (
{
anchors = (
{
name = bottom;
position = "{285, 0}";
},
{
name = top;
position = "{295, 546}";
}
);
layerId = "120467F4-1FD8-4738-87D7-3EC9C6A2741E";
paths = (
{
closed = 1;
nodes = (
"208 -23 LINE SMOOTH",
"186 -88 OFFCURVE",
"146 -120 OFFCURVE",
"93 -120 CURVE SMOOTH",
"72 -120 OFFCURVE",
"52 -118 OFFCURVE",
"34 -114 CURVE",
"34 -232 LINE",
"59 -237 OFFCURVE",
"84 -240 OFFCURVE",
"110 -240 CURVE SMOOTH",
"215 -240 OFFCURVE",
"295 -184 OFFCURVE",
"338 -70 CURVE SMOOTH",
"569 546 LINE",
"409 546 LINE",
"308 239 LINE SMOOTH",
"298 209 OFFCURVE",
"291 178 OFFCURVE",
"287 144 CURVE",
"284 144 LINE",
"281 181 OFFCURVE",
"275 212 OFFCURVE",
"266 239 CURVE SMOOTH",
"163 546 LINE",
"0 546 LINE",
"217 4 LINE"
);
}
);
width = 569;
}
);
note = y;
unicode = 0079;
},
{
glyphname = z;
lastChange = "2018-06-23 23:49:06 +0000";
layers = (
{
anchors = (
{
name = bottom;
position = "{244, 0}";
},
{
name = top;
position = "{244, 546}";
}
);
layerId = "120467F4-1FD8-4738-87D7-3EC9C6A2741E";
paths = (
{
closed = 1;
nodes = (
"203 114 LINE",
"449 449 LINE",
"449 546 LINE",
"42 546 LINE",
"42 432 LINE",
"280 432 LINE",
"27 88 LINE",
"27 0 LINE",
"458 0 LINE",
"458 114 LINE"
);
}
);
width = 488;
}
);
note = z;
unicode = 007A;
},
{
glyphname = braceleft;
lastChange = "2018-06-23 23:49:06 +0000";
layers = (
{
layerId = "120467F4-1FD8-4738-87D7-3EC9C6A2741E";
paths = (
{
closed = 1;
nodes = (
"140 -122 OFFCURVE",
"195 -158 OFFCURVE",
"354 -158 CURVE",
"354 -48 LINE",
"289 -46 OFFCURVE",
"269 -23 OFFCURVE",
"269 21 CURVE SMOOTH",
"269 167 LINE",
"269 171 LINE SMOOTH",
"269 229 OFFCURVE",
"231 264 OFFCURVE",
"155 275 CURVE",
"155 281 LINE",
"229 292 OFFCURVE",
"267 328 OFFCURVE",
"269 389 CURVE SMOOTH",
"269 535 LINE SMOOTH",
"269 580 OFFCURVE",
"290 602 OFFCURVE",
"354 604 CURVE",
"354 714 LINE",
"195 714 OFFCURVE",
"140 678 OFFCURVE",
"140 578 CURVE SMOOTH",
"140 423 LINE",
"140 419 LINE SMOOTH",
"140 366 OFFCURVE",
"97 336 OFFCURVE",
"15 336 CURVE",
"15 219 LINE",
"97 219 OFFCURVE",
"140 188 OFFCURVE",
"140 132 CURVE SMOOTH",
"140 -22 LINE SMOOTH"
);
}
);
width = 394;
}
);
note = braceleft;
unicode = 007B;
},
{
glyphname = bar;
lastChange = "2018-06-23 23:49:06 +0000";
layers = (
{
layerId = "120467F4-1FD8-4738-87D7-3EC9C6A2741E";
paths = (
{
closed = 1;
nodes = (
"329 -227 LINE",
"329 757 LINE",
"222 757 LINE",
"222 -227 LINE"
);
}
);
width = 551;
}
);
note = bar;
unicode = 007C;
},
{
glyphname = braceright;
lastChange = "2018-06-23 23:49:06 +0000";
layers = (
{
layerId = "120467F4-1FD8-4738-87D7-3EC9C6A2741E";
paths = (
{
closed = 1;
nodes = (
"254 195 OFFCURVE",
"297 219 OFFCURVE",
"379 219 CURVE",
"379 336 LINE",
"292 336 OFFCURVE",
"254 363 OFFCURVE",
"254 418 CURVE SMOOTH",
"254 423 LINE",
"254 578 LINE SMOOTH",
"254 614 OFFCURVE",
"248 641 OFFCURVE",
"234 660 CURVE SMOOTH",
"208 697 OFFCURVE",
"149 714 OFFCURVE",
"40 714 CURVE",
"40 604 LINE",
"105 602 OFFCURVE",
"125 581 OFFCURVE",
"125 535 CURVE SMOOTH",
"125 389 LINE SMOOTH",
"127 328 OFFCURVE",
"165 292 OFFCURVE",
"239 281 CURVE",
"239 275 LINE",
"164 264 OFFCURVE",
"125 229 OFFCURVE",
"125 172 CURVE SMOOTH",
"125 167 LINE",
"125 21 LINE SMOOTH",
"125 -25 OFFCURVE",
"104 -46 OFFCURVE",
"40 -48 CURVE",
"40 -158 LINE",
"94 -158 OFFCURVE",
"137 -154 OFFCURVE",
"168 -145 CURVE SMOOTH",
"229 -128 OFFCURVE",
"254 -95 OFFCURVE",
"254 -22 CURVE SMOOTH",
"254 132 LINE SMOOTH"
);
}
);
width = 394;
}
);
note = braceright;
unicode = 007D;
},
{
glyphname = asciitilde;
lastChange = "2018-06-23 23:49:06 +0000";
layers = (
{
layerId = "120467F4-1FD8-4738-87D7-3EC9C6A2741E";
paths = (
{
closed = 1;
nodes = (
"188 328 OFFCURVE",
"226 319 OFFCURVE",
"268 301 CURVE SMOOTH",
"327 277 OFFCURVE",
"360 270 OFFCURVE",
"403 270 CURVE SMOOTH",
"453 270 OFFCURVE",
"495 288 OFFCURVE",
"528 323 CURVE",
"528 436 LINE",
"493 399 OFFCURVE",
"449 377 OFFCURVE",
"414 377 CURVE SMOOTH",
"382 377 OFFCURVE",
"345 386 OFFCURVE",
"303 404 CURVE SMOOTH",
"254 425 OFFCURVE",
"215 435 OFFCURVE",
"168 435 CURVE SMOOTH",
"118 435 OFFCURVE",
"77 417 OFFCURVE",
"43 382 CURVE",
"43 269 LINE",
"78 304 OFFCURVE",
"122 328 OFFCURVE",
"157 328 CURVE SMOOTH"
);
}
);
width = 571;
}
);
note = asciitilde;
unicode = 007E;
},
{
glyphname = exclamdown;
lastChange = "2018-06-23 23:49:06 +0000";
layers = (
{
layerId = "120467F4-1FD8-4738-87D7-3EC9C6A2741E";
paths = (
{
closed = 1;
nodes = (
"226 -180 LINE",
"201 296 LINE",
"82 296 LINE",
"57 -180 LINE"
);
},
{
closed = 1;
nodes = (
"228 516 OFFCURVE",
"197 546 OFFCURVE",
"142 546 CURVE SMOOTH",
"89 546 OFFCURVE",
"57 516 OFFCURVE",
"57 463 CURVE SMOOTH",
"57 410 OFFCURVE",
"88 380 OFFCURVE",
"142 380 CURVE SMOOTH",
"198 380 OFFCURVE",
"228 408 OFFCURVE",
"228 463 CURVE SMOOTH"
);
}
);
width = 286;
}
);
note = exclamdown;
unicode = 00A1;
},
{
glyphname = cent;
lastChange = "2018-06-23 23:49:06 +0000";
layers = (
{
layerId = "120467F4-1FD8-4738-87D7-3EC9C6A2741E";
paths = (
{
closed = 1;
nodes = (
"362 -10 LINE",
"362 82 LINE",
"407 85 OFFCURVE",
"450 96 OFFCURVE",
"491 116 CURVE",
"491 240 LINE",
"426 211 OFFCURVE",
"391 203 OFFCURVE",
"338 203 CURVE SMOOTH",
"261 203 OFFCURVE",
"222 256 OFFCURVE",
"222 363 CURVE SMOOTH",
"222 474 OFFCURVE",
"259 528 OFFCURVE",
"338 528 CURVE SMOOTH",
"378 528 OFFCURVE",
"417 515 OFFCURVE",
"464 496 CURVE",
"508 611 LINE",
"464 632 OFFCURVE",
"416 644 OFFCURVE",
"362 647 CURVE",
"362 724 LINE",
"275 724 LINE",
"275 643 LINE",
"138 623 OFFCURVE",
"70 532 OFFCURVE",
"70 362 CURVE SMOOTH",
"70 197 OFFCURVE",
"138 105 OFFCURVE",
"275 86 CURVE",
"275 -10 LINE"
);
}
);
width = 571;
}
);
note = cent;
unicode = 00A2;
},
{
glyphname = sterling;
lastChange = "2018-06-23 23:49:06 +0000";
layers = (
{
layerId = "120467F4-1FD8-4738-87D7-3EC9C6A2741E";
paths = (
{
closed = 1;
nodes = (
"206 724 OFFCURVE",
"128 651 OFFCURVE",
"128 520 CURVE SMOOTH",
"128 425 LINE",
"41 425 LINE",
"41 318 LINE",
"128 318 LINE",
"128 247 LINE SMOOTH",
"128 182 OFFCURVE",
"107 150 OFFCURVE",
"40 121 CURVE",
"40 0 LINE",
"552 0 LINE",
"552 127 LINE",
"201 127 LINE",
"250 152 OFFCURVE",
"275 193 OFFCURVE",
"275 248 CURVE SMOOTH",
"275 318 LINE",
"458 318 LINE",
"458 425 LINE",
"275 425 LINE",
"275 519 LINE SMOOTH",
"275 573 OFFCURVE",
"303 603 OFFCURVE",
"354 603 CURVE SMOOTH",
"392 603 OFFCURVE",
"436 593 OFFCURVE",
"487 572 CURVE",
"532 684 LINE",
"469 711 OFFCURVE",
"405 724 OFFCURVE",
"342 724 CURVE SMOOTH"
);
}
);
width = 571;
}
);
note = sterling;
unicode = 00A3;
},
{
glyphname = currency;
lastChange = "2018-06-23 23:49:06 +0000";
layers = (
{
layerId = "120467F4-1FD8-4738-87D7-3EC9C6A2741E";
paths = (
{
closed = 1;
nodes = (
"92 319 OFFCURVE",
"101 287 OFFCURVE",
"118 257 CURVE",
"56 196 LINE",
"127 125 LINE",
"188 185 LINE",
"215 168 OFFCURVE",
"248 160 OFFCURVE",
"285 160 CURVE SMOOTH",
"318 160 OFFCURVE",
"350 168 OFFCURVE",
"381 185 CURVE",
"443 124 LINE",
"514 195 LINE",
"453 256 LINE",
"470 286 OFFCURVE",
"479 318 OFFCURVE",
"479 353 CURVE SMOOTH",
"479 389 OFFCURVE",
"470 421 OFFCURVE",
"453 450 CURVE",
"516 513 LINE",
"443 583 LINE",
"381 520 LINE",
"351 538 OFFCURVE",
"319 547 OFFCURVE",
"285 547 CURVE SMOOTH",
"250 547 OFFCURVE",
"219 538 OFFCURVE",
"189 521 CURVE",
"127 583 LINE",
"55 511 LINE",
"118 449 LINE",
"101 418 OFFCURVE",
"92 386 OFFCURVE",
"92 353 CURVE SMOOTH"
);
},
{
closed = 1;
nodes = (
"193 404 OFFCURVE",
"234 446 OFFCURVE",
"285 446 CURVE SMOOTH",
"336 446 OFFCURVE",
"379 405 OFFCURVE",
"379 353 CURVE SMOOTH",
"379 302 OFFCURVE",
"338 261 OFFCURVE",
"285 261 CURVE SMOOTH",
"233 261 OFFCURVE",
"193 303 OFFCURVE",
"193 353 CURVE SMOOTH"
);
}
);
width = 571;
}
);
note = currency;
unicode = 00A4;
},
{
glyphname = yen;
lastChange = "2018-06-23 23:49:06 +0000";
layers = (
{
layerId = "120467F4-1FD8-4738-87D7-3EC9C6A2741E";
paths = (
{
closed = 1;
nodes = (
"3 714 LINE",
"187 349 LINE",
"94 349 LINE",
"94 262 LINE",
"215 262 LINE",
"215 195 LINE",
"94 195 LINE",
"94 108 LINE",
"215 108 LINE",
"215 0 LINE",
"355 0 LINE",
"355 108 LINE",
"475 108 LINE",
"475 195 LINE",
"355 195 LINE",
"355 262 LINE",
"475 262 LINE",
"475 349 LINE",
"380 349 LINE",
"567 714 LINE",
"414 714 LINE",
"285 420 LINE",
"157 714 LINE"
);
}
);
width = 571;
}
);
note = yen;
unicode = 00A5;
},
{
glyphname = brokenbar;
lastChange = "2018-06-23 23:49:06 +0000";
layers = (
{
layerId = "120467F4-1FD8-4738-87D7-3EC9C6A2741E";
paths = (
{
closed = 1;
nodes = (
"329 359 LINE",
"329 757 LINE",
"222 757 LINE",
"222 359 LINE"
);
},
{
closed = 1;
nodes = (
"329 -227 LINE",
"329 171 LINE",
"222 171 LINE",
"222 -227 LINE"
);
}
);
width = 551;
}
);
note = brokenbar;
unicode = 00A6;
},
{
glyphname = section;
lastChange = "2018-06-23 23:49:06 +0000";
layers = (
{
layerId = "120467F4-1FD8-4738-87D7-3EC9C6A2741E";
paths = (
{
closed = 1;
nodes = (
"59 317 OFFCURVE",
"97 271 OFFCURVE",
"216 223 CURVE SMOOTH",
"242 212 OFFCURVE",
"262 203 OFFCURVE",
"277 194 CURVE SMOOTH",
"306 178 OFFCURVE",
"317 165 OFFCURVE",
"317 139 CURVE SMOOTH",
"317 101 OFFCURVE",
"285 82 OFFCURVE",
"222 82 CURVE SMOOTH",
"177 82 OFFCURVE",
"104 103 OFFCURVE",
"52 130 CURVE",
"52 29 LINE",
"99 3 OFFCURVE",
"156 -10 OFFCURVE",
"222 -10 CURVE SMOOTH",
"353 -10 OFFCURVE",
"437 52 OFFCURVE",
"437 148 CURVE SMOOTH",
"437 196 OFFCURVE",
"417 229 OFFCURVE",
"376 255 CURVE",
"417 282 OFFCURVE",
"437 324 OFFCURVE",
"437 382 CURVE SMOOTH",
"437 453 OFFCURVE",
"388 507 OFFCURVE",
"282 549 CURVE SMOOTH",
"245 563 OFFCURVE",
"219 577 OFFCURVE",
"203 589 CURVE SMOOTH",
"187 601 OFFCURVE",
"178 615 OFFCURVE",
"178 631 CURVE SMOOTH",
"178 662 OFFCURVE",
"201 677 OFFCURVE",
"254 677 CURVE SMOOTH",
"305 677 OFFCURVE",
"350 657 OFFCURVE",
"394 636 CURVE",
"434 729 LINE",
"371 756 OFFCURVE",
"312 770 OFFCURVE",
"257 770 CURVE SMOOTH",
"138 770 OFFCURVE",
"59 714 OFFCURVE",
"59 629 CURVE SMOOTH",
"59 581 OFFCURVE",
"81 542 OFFCURVE",
"124 515 CURVE",
"84 489 OFFCURVE",
"59 444 OFFCURVE",
"59 393 CURVE SMOOTH"
);
},
{
closed = 1;
nodes = (
"168 435 OFFCURVE",
"188 463 OFFCURVE",
"212 472 CURVE",
"298 440 OFFCURVE",
"326 414 OFFCURVE",
"326 369 CURVE SMOOTH",
"326 340 OFFCURVE",
"313 316 OFFCURVE",
"288 298 CURVE",
"212 328 OFFCURVE",
"168 360 OFFCURVE",
"168 404 CURVE SMOOTH"
);
}
);
width = 486;
}
);
note = section;
unicode = 00A7;
},
{
glyphname = dieresis;
lastChange = "2018-06-23 23:49:06 +0000";
layers = (
{
layerId = "120467F4-1FD8-4738-87D7-3EC9C6A2741E";
paths = (
{
closed = 1;
nodes = (
"136 645 OFFCURVE",
"163 621 OFFCURVE",
"204 621 CURVE SMOOTH",
"247 621 OFFCURVE",
"273 647 OFFCURVE",
"273 686 CURVE SMOOTH",
"273 726 OFFCURVE",
"247 752 OFFCURVE",
"204 752 CURVE SMOOTH",
"163 752 OFFCURVE",
"136 729 OFFCURVE",
"136 686 CURVE SMOOTH"
);
},
{
closed = 1;
nodes = (
"333 642 OFFCURVE",
"363 621 OFFCURVE",
"402 621 CURVE SMOOTH",
"443 621 OFFCURVE",
"471 646 OFFCURVE",
"471 686 CURVE SMOOTH",
"471 727 OFFCURVE",
"444 752 OFFCURVE",
"402 752 CURVE SMOOTH",
"363 752 OFFCURVE",
"333 731 OFFCURVE",
"333 686 CURVE SMOOTH"
);
}
);
width = 607;
}
);
note = dieresis;
unicode = 00A8;
},
{
glyphname = copyright;
lastChange = "2018-06-23 23:49:06 +0000";
layers = (
{
layerId = "120467F4-1FD8-4738-87D7-3EC9C6A2741E";
paths = (
{
closed = 1;
nodes = (
"471 493 OFFCURVE",
"506 484 OFFCURVE",
"543 465 CURVE",
"579 547 LINE",
"528 572 OFFCURVE",
"479 585 OFFCURVE",
"430 585 CURVE SMOOTH",
"301 585 OFFCURVE",
"225 501 OFFCURVE",
"225 358 CURVE SMOOTH",
"225 214 OFFCURVE",
"301 128 OFFCURVE",
"434 128 CURVE SMOOTH",
"477 128 OFFCURVE",
"518 137 OFFCURVE",
"557 156 CURVE",
"557 249 LINE",
"520 230 OFFCURVE",
"474 220 OFFCURVE",
"437 220 CURVE SMOOTH",
"371 220 OFFCURVE",
"338 266 OFFCURVE",
"338 357 CURVE SMOOTH",
"338 442 OFFCURVE",
"374 493 OFFCURVE",
"437 493 CURVE SMOOTH"
);
},
{
closed = 1;
nodes = (
"49 292 OFFCURVE",
"65 232 OFFCURVE",
"97 176 CURVE SMOOTH",
"160 63 OFFCURVE",
"281 -10 OFFCURVE",
"416 -10 CURVE SMOOTH",
"484 -10 OFFCURVE",
"546 7 OFFCURVE",
"603 41 CURVE SMOOTH",
"717 109 OFFCURVE",
"783 229 OFFCURVE",
"783 357 CURVE SMOOTH",
"783 423 OFFCURVE",
"767 484 OFFCURVE",
"734 541 CURVE SMOOTH",
"668 655 OFFCURVE",
"546 724 OFFCURVE",
"416 724 CURVE SMOOTH",
"350 724 OFFCURVE",
"289 708 OFFCURVE",
"232 675 CURVE SMOOTH",
"118 609 OFFCURVE",
"49 487 OFFCURVE",
"49 357 CURVE SMOOTH"
);
},
{
closed = 1;
nodes = (
"118 410 OFFCURVE",
"131 459 OFFCURVE",
"158 505 CURVE SMOOTH",
"211 598 OFFCURVE",
"309 655 OFFCURVE",
"416 655 CURVE SMOOTH",
"469 655 OFFCURVE",
"518 642 OFFCURVE",
"564 615 CURVE SMOOTH",
"657 562 OFFCURVE",
"714 464 OFFCURVE",
"714 357 CURVE SMOOTH",
"714 304 OFFCURVE",
"701 255 OFFCURVE",
"674 208 CURVE SMOOTH",
"621 116 OFFCURVE",
"523 59 OFFCURVE",
"416 59 CURVE SMOOTH",
"363 59 OFFCURVE",
"314 72 OFFCURVE",
"268 99 CURVE SMOOTH",
"175 152 OFFCURVE",
"118 250 OFFCURVE",
"118 357 CURVE SMOOTH"
);
}
);
width = 832;
}
);
note = copyright;
unicode = 00A9;
},
{
glyphname = ordfeminine;
lastChange = "2018-06-23 23:49:06 +0000";
layers = (
{
layerId = "120467F4-1FD8-4738-87D7-3EC9C6A2741E";
paths = (
{
closed = 1;
nodes = (
"340 589 LINE SMOOTH",
"340 674 OFFCURVE",
"290 722 OFFCURVE",
"200 722 CURVE SMOOTH",
"136 722 OFFCURVE",
"85 703 OFFCURVE",
"42 682 CURVE",
"74 616 LINE",
"119 636 OFFCURVE",
"154 646 OFFCURVE",
"180 646 CURVE SMOOTH",
"222 646 OFFCURVE",
"242 627 OFFCURVE",
"242 589 CURVE",
"194 587 LINE SMOOTH",
"73 581 OFFCURVE",
"23 547 OFFCURVE",
"23 476 CURVE SMOOTH",
"23 407 OFFCURVE",
"65 367 OFFCURVE",
"141 367 CURVE SMOOTH",
"189 367 OFFCURVE",
"231 389 OFFCURVE",
"259 427 CURVE",
"274 373 LINE",
"340 373 LINE"
);
},
{
closed = 1;
nodes = (
"123 508 OFFCURVE",
"146 524 OFFCURVE",
"194 528 CURVE SMOOTH",
"242 531 LINE",
"242 513 LINE SMOOTH",
"242 471 OFFCURVE",
"211 441 OFFCURVE",
"161 441 CURVE SMOOTH",
"140 441 OFFCURVE",
"123 452 OFFCURVE",
"123 477 CURVE SMOOTH"
);
}
);
width = 383;
}
);
note = ordfeminine;
unicode = 00AA;
},
{
glyphname = guillemotleft;
lastChange = "2018-06-23 23:49:06 +0000";
layers = (
{
layerId = "120467F4-1FD8-4738-87D7-3EC9C6A2741E";
paths = (
{
closed = 1;
nodes = (
"221 46 LINE",
"328 104 LINE",
"192 274 LINE",
"328 444 LINE",
"221 502 LINE",
"40 280 LINE",
"40 267 LINE"
);
},
{
closed = 1;
nodes = (
"468 46 LINE",
"575 104 LINE",
"439 274 LINE",
"575 444 LINE",
"468 502 LINE",
"287 280 LINE",
"287 267 LINE"
);
}
);
width = 615;
}
);
note = guillemotleft;
unicode = 00AB;
},
{
glyphname = logicalnot;
lastChange = "2018-06-23 23:49:06 +0000";
layers = (
{
layerId = "120467F4-1FD8-4738-87D7-3EC9C6A2741E";
paths = (
{
closed = 1;
nodes = (
"43 406 LINE",
"43 299 LINE",
"421 299 LINE",
"421 121 LINE",
"528 121 LINE",
"528 406 LINE"
);
}
);
width = 571;
}
);
note = logicalnot;
unicode = 00AC;
},
{
glyphname = registered;
lastChange = "2018-06-23 23:49:06 +0000";
layers = (
{
layerId = "120467F4-1FD8-4738-87D7-3EC9C6A2741E";
paths = (
{
closed = 1;
nodes = (
"565 535 OFFCURVE",
"512 580 OFFCURVE",
"394 580 CURVE SMOOTH",
"265 580 LINE",
"265 133 LINE",
"377 133 LINE",
"377 298 LINE",
"400 298 LINE",
"487 133 LINE",
"611 133 LINE",
"495 328 LINE",
"542 349 OFFCURVE",
"565 387 OFFCURVE",
"565 442 CURVE SMOOTH"
);
},
{
closed = 1;
nodes = (
"391 498 LINE SMOOTH",
"436 498 OFFCURVE",
"452 482 OFFCURVE",
"452 440 CURVE SMOOTH",
"452 397 OFFCURVE",
"435 380 OFFCURVE",
"392 380 CURVE SMOOTH",
"377 380 LINE",
"377 498 LINE"
);
},
{
closed = 1;
nodes = (
"49 292 OFFCURVE",
"65 232 OFFCURVE",
"97 176 CURVE SMOOTH",
"160 63 OFFCURVE",
"281 -10 OFFCURVE",
"416 -10 CURVE SMOOTH",
"484 -10 OFFCURVE",
"546 7 OFFCURVE",
"603 41 CURVE SMOOTH",
"717 109 OFFCURVE",
"783 229 OFFCURVE",
"783 357 CURVE SMOOTH",
"783 423 OFFCURVE",
"767 484 OFFCURVE",
"734 541 CURVE SMOOTH",
"668 655 OFFCURVE",
"546 724 OFFCURVE",
"416 724 CURVE SMOOTH",
"350 724 OFFCURVE",
"289 708 OFFCURVE",
"232 675 CURVE SMOOTH",
"118 609 OFFCURVE",
"49 487 OFFCURVE",
"49 357 CURVE SMOOTH"
);
},
{
closed = 1;
nodes = (
"118 410 OFFCURVE",
"131 459 OFFCURVE",
"158 505 CURVE SMOOTH",
"211 598 OFFCURVE",
"309 655 OFFCURVE",
"416 655 CURVE SMOOTH",
"469 655 OFFCURVE",
"518 642 OFFCURVE",
"564 615 CURVE SMOOTH",
"657 562 OFFCURVE",
"714 464 OFFCURVE",
"714 357 CURVE SMOOTH",
"714 304 OFFCURVE",
"701 255 OFFCURVE",
"674 208 CURVE SMOOTH",
"621 116 OFFCURVE",
"523 59 OFFCURVE",
"416 59 CURVE SMOOTH",
"363 59 OFFCURVE",
"314 72 OFFCURVE",
"268 99 CURVE SMOOTH",
"175 152 OFFCURVE",
"118 250 OFFCURVE",
"118 357 CURVE SMOOTH"
);
}
);
width = 832;
}
);
note = registered;
unicode = 00AE;
},
{
glyphname = overscore;
lastChange = "2018-06-23 23:49:06 +0000";
layers = (
{
layerId = "120467F4-1FD8-4738-87D7-3EC9C6A2741E";
paths = (
{
closed = 1;
nodes = (
"-3 858 LINE",
"-3 760 LINE",
"503 760 LINE",
"503 858 LINE"
);
}
);
width = 500;
}
);
note = overscore;
unicode = 00AF;
},
{
glyphname = degree;
lastChange = "2018-06-23 23:49:06 +0000";
layers = (
{
layerId = "120467F4-1FD8-4738-87D7-3EC9C6A2741E";
paths = (
{
closed = 1;
nodes = (
"45 461 OFFCURVE",
"120 387 OFFCURVE",
"214 387 CURVE SMOOTH",
"244 387 OFFCURVE",
"272 395 OFFCURVE",
"298 409 CURVE SMOOTH",
"351 438 OFFCURVE",
"383 495 OFFCURVE",
"383 555 CURVE SMOOTH",
"383 585 OFFCURVE",
"375 613 OFFCURVE",
"360 640 CURVE SMOOTH",
"330 692 OFFCURVE",
"274 724 OFFCURVE",
"214 724 CURVE SMOOTH",
"183 724 OFFCURVE",
"155 716 OFFCURVE",
"129 701 CURVE SMOOTH",
"77 670 OFFCURVE",
"45 615 OFFCURVE",
"45 555 CURVE SMOOTH"
);
},
{
closed = 1;
nodes = (
"138 598 OFFCURVE",
"172 632 OFFCURVE",
"214 632 CURVE SMOOTH",
"256 632 OFFCURVE",
"290 596 OFFCURVE",
"290 555 CURVE SMOOTH",
"290 515 OFFCURVE",
"257 480 OFFCURVE",
"214 480 CURVE SMOOTH",
"171 480 OFFCURVE",
"138 514 OFFCURVE",
"138 555 CURVE SMOOTH"
);
}
);
width = 428;
}
);
note = degree;
unicode = 00B0;
},
{
glyphname = plusminus;
lastChange = "2018-06-23 23:49:06 +0000";
layers = (
{
layerId = "120467F4-1FD8-4738-87D7-3EC9C6A2741E";
paths = (
{
closed = 1;
nodes = (
"339 141 LINE",
"339 329 LINE",
"528 329 LINE",
"528 436 LINE",
"339 436 LINE",
"339 626 LINE",
"232 626 LINE",
"232 436 LINE",
"43 436 LINE",
"43 329 LINE",
"232 329 LINE",
"232 141 LINE"
);
},
{
closed = 1;
nodes = (
"528 107 LINE",
"43 107 LINE",
"43 0 LINE",
"528 0 LINE"
);
}
);
width = 571;
}
);
note = plusminus;
unicode = 00B1;
},
{
glyphname = twosuperior;
lastChange = "2018-06-23 23:49:06 +0000";
layers = (
{
layerId = "120467F4-1FD8-4738-87D7-3EC9C6A2741E";
paths = (
{
closed = 1;
nodes = (
"171 384 LINE",
"222 430 LINE SMOOTH",
"306 506 OFFCURVE",
"331 547 OFFCURVE",
"331 602 CURVE SMOOTH",
"331 678 OFFCURVE",
"276 724 OFFCURVE",
"187 724 CURVE SMOOTH",
"125 724 OFFCURVE",
"71 703 OFFCURVE",
"23 661 CURVE",
"83 587 LINE",
"115 616 OFFCURVE",
"145 630 OFFCURVE",
"171 630 CURVE SMOOTH",
"197 630 OFFCURVE",
"214 617 OFFCURVE",
"214 592 CURVE SMOOTH",
"214 576 OFFCURVE",
"209 560 OFFCURVE",
"200 546 CURVE SMOOTH",
"191 531 OFFCURVE",
"169 508 OFFCURVE",
"136 475 CURVE SMOOTH",
"27 368 LINE",
"27 286 LINE",
"343 286 LINE",
"343 384 LINE"
);
}
);
width = 379;
}
);
note = twosuperior;
unicode = 00B2;
},
{
glyphname = threesuperior;
lastChange = "2018-06-23 23:49:06 +0000";
layers = (
{
layerId = "120467F4-1FD8-4738-87D7-3EC9C6A2741E";
paths = (
{
closed = 1;
nodes = (
"325 678 OFFCURVE",
"267 723 OFFCURVE",
"184 723 CURVE SMOOTH",
"117 723 OFFCURVE",
"70 701 OFFCURVE",
"30 670 CURVE",
"79 601 LINE",
"116 627 OFFCURVE",
"140 639 OFFCURVE",
"171 639 CURVE SMOOTH",
"204 639 OFFCURVE",
"220 621 OFFCURVE",
"220 596 CURVE SMOOTH",
"220 559 OFFCURVE",
"194 543 OFFCURVE",
"140 543 CURVE SMOOTH",
"95 543 LINE",
"95 465 LINE",
"150 465 LINE SMOOTH",
"201 465 OFFCURVE",
"231 448 OFFCURVE",
"231 413 CURVE SMOOTH",
"231 378 OFFCURVE",
"208 361 OFFCURVE",
"161 361 CURVE SMOOTH",
"121 361 OFFCURVE",
"77 375 OFFCURVE",
"29 405 CURVE",
"29 312 LINE",
"71 289 OFFCURVE",
"116 278 OFFCURVE",
"162 278 CURVE SMOOTH",
"283 278 OFFCURVE",
"339 326 OFFCURVE",
"339 405 CURVE SMOOTH",
"339 456 OFFCURVE",
"303 494 OFFCURVE",
"242 507 CURVE",
"242 513 LINE",
"297 531 OFFCURVE",
"325 563 OFFCURVE",
"325 610 CURVE SMOOTH"
);
}
);
width = 379;
}
);
note = threesuperior;
unicode = 00B3;
},
{
glyphname = acute;
lastChange = "2018-06-23 23:49:06 +0000";
layers = (
{
layerId = "120467F4-1FD8-4738-87D7-3EC9C6A2741E";
paths = (
{
closed = 1;
nodes = (
"308 639 OFFCURVE",
"410 722 OFFCURVE",
"444 756 CURVE",
"444 766 LINE",
"277 766 LINE",
"256 733 OFFCURVE",
"218 684 OFFCURVE",
"162 619 CURVE",
"162 606 LINE",
"261 606 LINE"
);
}
);
width = 607;
}
);
note = acute;
unicode = 00B4;
},
{
glyphname = mu;
lastChange = "2018-06-23 23:49:06 +0000";
layers = (
{
layerId = "120467F4-1FD8-4738-87D7-3EC9C6A2741E";
paths = (
{
closed = 1;
nodes = (
"78 546 LINE",
"78 -240 LINE",
"227 -240 LINE",
"227 -84 LINE",
"225 -7 LINE",
"222 34 LINE",
"243 5 OFFCURVE",
"278 -10 OFFCURVE",
"319 -10 CURVE SMOOTH",
"376 -10 OFFCURVE",
"414 18 OFFCURVE",
"441 73 CURVE",
"448 73 LINE",
"469 0 LINE",
"582 0 LINE",
"582 546 LINE",
"433 546 LINE",
"433 289 LINE SMOOTH",
"433 162 OFFCURVE",
"398 109 OFFCURVE",
"316 109 CURVE SMOOTH",
"255 109 OFFCURVE",
"227 148 OFFCURVE",
"227 227 CURVE SMOOTH",
"227 546 LINE"
);
}
);
width = 660;
}
);
note = mu;
unicode = 00B5;
},
{
glyphname = paragraph;
lastChange = "2018-06-23 23:49:06 +0000";
layers = (
{
layerId = "120467F4-1FD8-4738-87D7-3EC9C6A2741E";
paths = (
{
closed = 1;
nodes = (
"275 760 LINE SMOOTH",
"124 760 OFFCURVE",
"55 678 OFFCURVE",
"55 509 CURVE SMOOTH",
"55 345 OFFCURVE",
"119 264 OFFCURVE",
"260 264 CURVE SMOOTH",
"287 264 OFFCURVE",
"311 267 OFFCURVE",
"331 273 CURVE",
"331 -127 LINE",
"410 -127 LINE",
"410 662 LINE",
"491 662 LINE",
"491 -127 LINE",
"570 -127 LINE",
"570 760 LINE"
);
}
);
width = 655;
}
);
note = paragraph;
unicode = 00B6;
},
{
glyphname = periodcentered;
lastChange = "2018-06-23 23:49:06 +0000";
layers = (
{
layerId = "120467F4-1FD8-4738-87D7-3EC9C6A2741E";
paths = (
{
closed = 1;
nodes = (
"57 300 OFFCURVE",
"88 270 OFFCURVE",
"143 270 CURVE SMOOTH",
"196 270 OFFCURVE",
"228 300 OFFCURVE",
"228 353 CURVE SMOOTH",
"228 406 OFFCURVE",
"197 436 OFFCURVE",
"143 436 CURVE SMOOTH",
"87 436 OFFCURVE",
"57 408 OFFCURVE",
"57 353 CURVE SMOOTH"
);
}
);
width = 285;
}
);
note = periodcentered;
unicode = 00B7;
},
{
glyphname = cedilla;
lastChange = "2018-06-23 23:49:06 +0000";
layers = (
{
layerId = "120467F4-1FD8-4738-87D7-3EC9C6A2741E";
paths = (
{
closed = 1;
nodes = (
"204 -81 OFFCURVE",
"173 -45 OFFCURVE",
"125 -30 CURVE",
"138 0 LINE",
"44 0 LINE",
"6 -75 LINE",
"60 -83 OFFCURVE",
"87 -101 OFFCURVE",
"87 -128 CURVE SMOOTH",
"87 -148 OFFCURVE",
"75 -158 OFFCURVE",
"52 -158 CURVE SMOOTH",
"36 -158 OFFCURVE",
"0 -152 OFFCURVE",
"-18 -148 CURVE",
"-18 -230 LINE",
"4 -237 OFFCURVE",
"28 -240 OFFCURVE",
"53 -240 CURVE SMOOTH",
"156 -240 OFFCURVE",
"204 -206 OFFCURVE",
"204 -122 CURVE SMOOTH"
);
}
);
width = 205;
}
);
note = cedilla;
unicode = 00B8;
},
{
glyphname = onesuperior;
lastChange = "2018-06-23 23:49:06 +0000";
layers = (
{
layerId = "120467F4-1FD8-4738-87D7-3EC9C6A2741E";
paths = (
{
closed = 1;
nodes = (
"192 714 LINE",
"45 599 LINE",
"98 537 LINE",
"136 567 LINE",
"152 581 OFFCURVE",
"164 593 OFFCURVE",
"173 605 CURVE",
"170 559 LINE",
"169 504 LINE",
"169 286 LINE",
"285 286 LINE",
"285 714 LINE"
);
}
);
width = 379;
}
);
note = onesuperior;
unicode = 00B9;
},
{
glyphname = ordmasculine;
lastChange = "2018-06-23 23:49:06 +0000";
layers = (
{
layerId = "120467F4-1FD8-4738-87D7-3EC9C6A2741E";
paths = (
{
closed = 1;
nodes = (
"360 653 OFFCURVE",
"294 722 OFFCURVE",
"195 722 CURVE SMOOTH",
"89 722 OFFCURVE",
"28 655 OFFCURVE",
"28 545 CURVE SMOOTH",
"28 436 OFFCURVE",
"93 367 OFFCURVE",
"193 367 CURVE SMOOTH",
"296 367 OFFCURVE",
"360 434 OFFCURVE",
"360 545 CURVE SMOOTH"
);
},
{
closed = 1;
nodes = (
"127 610 OFFCURVE",
"147 642 OFFCURVE",
"194 642 CURVE SMOOTH",
"241 642 OFFCURVE",
"260 610 OFFCURVE",
"260 545 CURVE SMOOTH",
"260 480 OFFCURVE",
"241 447 OFFCURVE",
"194 447 CURVE SMOOTH",
"147 447 OFFCURVE",
"127 480 OFFCURVE",
"127 545 CURVE SMOOTH"
);
}
);
width = 388;
}
);
note = ordmasculine;
unicode = 00BA;
},
{
glyphname = guillemotright;
lastChange = "2018-06-23 23:49:06 +0000";
layers = (
{
layerId = "120467F4-1FD8-4738-87D7-3EC9C6A2741E";
paths = (
{
closed = 1;
nodes = (
"394 502 LINE",
"287 444 LINE",
"423 274 LINE",
"287 104 LINE",
"394 46 LINE",
"575 267 LINE",
"575 280 LINE"
);
},
{
closed = 1;
nodes = (
"147 502 LINE",
"40 444 LINE",
"176 274 LINE",
"40 104 LINE",
"147 46 LINE",
"328 267 LINE",
"328 280 LINE"
);
}
);
width = 615;
}
);
note = guillemotright;
unicode = 00BB;
},
{
glyphname = onequarter;
lastChange = "2018-06-23 23:49:06 +0000";
layers = (
{
layerId = "120467F4-1FD8-4738-87D7-3EC9C6A2741E";
paths = (
{
closed = 1;
nodes = (
"192 714 LINE",
"45 599 LINE",
"98 537 LINE",
"136 567 LINE",
"152 581 OFFCURVE",
"164 593 OFFCURVE",
"173 605 CURVE",
"170 559 LINE",
"169 504 LINE",
"169 286 LINE",
"285 286 LINE",
"285 714 LINE"
);
},
{
closed = 1;
nodes = (
"187 0 LINE",
"304 0 LINE",
"700 714 LINE",
"583 714 LINE"
);
},
{
closed = 1;
nodes = (
"818 156 LINE",
"818 431 LINE",
"703 431 LINE",
"515 149 LINE",
"515 74 LINE",
"702 74 LINE",
"702 0 LINE",
"818 0 LINE",
"818 74 LINE",
"879 74 LINE",
"879 156 LINE"
);
},
{
closed = 1;
nodes = (
"667 249 LINE SMOOTH",
"677 264 OFFCURVE",
"699 309 OFFCURVE",
"705 326 CURVE",
"703 294 OFFCURVE",
"702 264 OFFCURVE",
"702 236 CURVE SMOOTH",
"702 156 LINE",
"605 156 LINE"
);
}
);
width = 888;
}
);
note = onequarter;
unicode = 00BC;
},
{
glyphname = onehalf;
lastChange = "2018-06-23 23:49:06 +0000";
layers = (
{
layerId = "120467F4-1FD8-4738-87D7-3EC9C6A2741E";
paths = (
{
closed = 1;
nodes = (
"192 714 LINE",
"45 599 LINE",
"98 537 LINE",
"136 567 LINE",
"152 581 OFFCURVE",
"164 593 OFFCURVE",
"173 605 CURVE",
"170 559 LINE",
"169 504 LINE",
"169 286 LINE",
"285 286 LINE",
"285 714 LINE"
);
},
{
closed = 1;
nodes = (
"172 0 LINE",
"289 0 LINE",
"685 714 LINE",
"568 714 LINE"
);
},
{
closed = 1;
nodes = (
"680 98 LINE",
"731 144 LINE SMOOTH",
"815 220 OFFCURVE",
"840 261 OFFCURVE",
"840 316 CURVE SMOOTH",
"840 392 OFFCURVE",
"785 438 OFFCURVE",
"696 438 CURVE SMOOTH",
"634 438 OFFCURVE",
"580 417 OFFCURVE",
"532 375 CURVE",
"592 301 LINE",
"624 330 OFFCURVE",
"653 344 OFFCURVE",
"680 344 CURVE SMOOTH",
"706 344 OFFCURVE",
"723 331 OFFCURVE",
"723 306 CURVE SMOOTH",
"723 290 OFFCURVE",
"718 274 OFFCURVE",
"709 260 CURVE SMOOTH",
"700 245 OFFCURVE",
"678 222 OFFCURVE",
"645 189 CURVE SMOOTH",
"536 82 LINE",
"536 0 LINE",
"852 0 LINE",
"852 98 LINE"
);
}
);
width = 888;
}
);
note = onehalf;
unicode = 00BD;
},
{
glyphname = threequarters;
lastChange = "2018-06-23 23:49:06 +0000";
layers = (
{
layerId = "120467F4-1FD8-4738-87D7-3EC9C6A2741E";
paths = (
{
closed = 1;
nodes = (
"325 678 OFFCURVE",
"267 723 OFFCURVE",
"184 723 CURVE SMOOTH",
"117 723 OFFCURVE",
"70 701 OFFCURVE",
"30 670 CURVE",
"79 601 LINE",
"116 627 OFFCURVE",
"140 639 OFFCURVE",
"171 639 CURVE SMOOTH",
"204 639 OFFCURVE",
"220 621 OFFCURVE",
"220 596 CURVE SMOOTH",
"220 559 OFFCURVE",
"194 543 OFFCURVE",
"140 543 CURVE SMOOTH",
"95 543 LINE",
"95 465 LINE",
"150 465 LINE SMOOTH",
"201 465 OFFCURVE",
"231 448 OFFCURVE",
"231 413 CURVE SMOOTH",
"231 378 OFFCURVE",
"208 361 OFFCURVE",
"161 361 CURVE SMOOTH",
"121 361 OFFCURVE",
"77 375 OFFCURVE",
"29 405 CURVE",
"29 312 LINE",
"71 289 OFFCURVE",
"116 278 OFFCURVE",
"162 278 CURVE SMOOTH",
"283 278 OFFCURVE",
"339 326 OFFCURVE",
"339 405 CURVE SMOOTH",
"339 456 OFFCURVE",
"303 494 OFFCURVE",
"242 507 CURVE",
"242 513 LINE",
"297 531 OFFCURVE",
"325 563 OFFCURVE",
"325 610 CURVE SMOOTH"
);
},
{
closed = 1;
nodes = (
"211 0 LINE",
"328 0 LINE",
"724 714 LINE",
"607 714 LINE"
);
},
{
closed = 1;
nodes = (
"818 156 LINE",
"818 431 LINE",
"703 431 LINE",
"515 149 LINE",
"515 74 LINE",
"702 74 LINE",
"702 0 LINE",
"818 0 LINE",
"818 74 LINE",
"879 74 LINE",
"879 156 LINE"
);
},
{
closed = 1;
nodes = (
"667 249 LINE SMOOTH",
"677 264 OFFCURVE",
"699 309 OFFCURVE",
"705 326 CURVE",
"703 294 OFFCURVE",
"702 264 OFFCURVE",
"702 236 CURVE SMOOTH",
"702 156 LINE",
"605 156 LINE"
);
}
);
width = 888;
}
);
note = threequarters;
unicode = 00BE;
},
{
glyphname = questiondown;
lastChange = "2018-06-23 23:49:06 +0000";
layers = (
{
layerId = "120467F4-1FD8-4738-87D7-3EC9C6A2741E";
paths = (
{
closed = 1;
nodes = (
"219 267 LINE SMOOTH",
"219 228 OFFCURVE",
"209 212 OFFCURVE",
"147 167 CURVE SMOOTH",
"54 99 OFFCURVE",
"30 56 OFFCURVE",
"30 -14 CURVE SMOOTH",
"30 -124 OFFCURVE",
"117 -191 OFFCURVE",
"260 -191 CURVE SMOOTH",
"329 -191 OFFCURVE",
"416 -167 OFFCURVE",
"480 -130 CURVE",
"430 -22 LINE",
"368 -49 OFFCURVE",
"308 -71 OFFCURVE",
"257 -71 CURVE SMOOTH",
"199 -71 OFFCURVE",
"171 -44 OFFCURVE",
"171 -7 CURVE SMOOTH",
"171 34 OFFCURVE",
"181 54 OFFCURVE",
"252 105 CURVE SMOOTH",
"322 155 OFFCURVE",
"348 196 OFFCURVE",
"348 260 CURVE SMOOTH",
"348 296 LINE",
"219 296 LINE"
);
},
{
closed = 1;
nodes = (
"364 516 OFFCURVE",
"333 546 OFFCURVE",
"278 546 CURVE SMOOTH",
"225 546 OFFCURVE",
"193 516 OFFCURVE",
"193 463 CURVE SMOOTH",
"193 410 OFFCURVE",
"224 380 OFFCURVE",
"278 380 CURVE SMOOTH",
"334 380 OFFCURVE",
"364 408 OFFCURVE",
"364 463 CURVE SMOOTH"
);
}
);
width = 477;
}
);
note = questiondown;
unicode = 00BF;
},
{
glyphname = AE;
lastChange = "2018-06-23 23:49:06 +0000";
layers = (
{
anchors = (
{
name = bottom;
position = "{476, 0}";
},
{
name = top;
position = "{476, 714}";
}
);
layerId = "120467F4-1FD8-4738-87D7-3EC9C6A2741E";
paths = (
{
closed = 1;
nodes = (
"618 125 LINE",
"618 309 LINE",
"875 309 LINE",
"875 433 LINE",
"618 433 LINE",
"618 590 LINE",
"893 590 LINE",
"893 714 LINE",
"320 714 LINE",
"0 0 LINE",
"154 0 LINE",
"227 170 LINE",
"467 170 LINE",
"467 0 LINE",
"893 0 LINE",
"893 125 LINE"
);
},
{
closed = 1;
nodes = (
"467 585 LINE",
"467 297 LINE",
"282 297 LINE",
"405 585 LINE"
);
}
);
width = 952;
}
);
note = AE;
unicode = 00C6;
},
{
glyphname = Eth;
lastChange = "2018-06-23 23:49:06 +0000";
layers = (
{
layerId = "120467F4-1FD8-4738-87D7-3EC9C6A2741E";
paths = (
{
closed = 1;
nodes = (
"90 291 LINE",
"90 0 LINE",
"292 0 LINE SMOOTH",
"544 0 OFFCURVE",
"682 129 OFFCURVE",
"682 364 CURVE SMOOTH",
"682 584 OFFCURVE",
"547 714 OFFCURVE",
"314 714 CURVE SMOOTH",
"90 714 LINE",
"90 415 LINE",
"23 415 LINE",
"23 291 LINE"
);
},
{
closed = 1;
nodes = (
"525 203 OFFCURVE",
"452 125 OFFCURVE",
"305 125 CURVE SMOOTH",
"241 125 LINE",
"241 291 LINE",
"357 291 LINE",
"357 415 LINE",
"241 415 LINE",
"241 590 LINE",
"321 590 LINE SMOOTH",
"458 590 OFFCURVE",
"525 511 OFFCURVE",
"525 360 CURVE SMOOTH"
);
}
);
width = 740;
}
);
note = Eth;
unicode = 00D0;
},
{
glyphname = multiply;
lastChange = "2018-06-23 23:49:06 +0000";
layers = (
{
layerId = "120467F4-1FD8-4738-87D7-3EC9C6A2741E";
paths = (
{
closed = 1;
nodes = (
"137 132 LINE",
"284 278 LINE",
"433 131 LINE",
"506 205 LINE",
"359 353 LINE",
"508 502 LINE",
"433 575 LINE",
"284 429 LINE",
"137 575 LINE",
"63 500 LINE",
"209 353 LINE",
"64 206 LINE"
);
}
);
width = 571;
}
);
note = multiply;
unicode = 00D7;
},
{
glyphname = Oslash;
lastChange = "2018-06-23 23:49:06 +0000";
layers = (
{
anchors = (
{
name = bottom;
position = "{398, 0}";
},
{
name = top;
position = "{398, 714}";
}
);
layerId = "120467F4-1FD8-4738-87D7-3EC9C6A2741E";
paths = (
{
closed = 1;
nodes = (
"738 481 OFFCURVE",
"706 574 OFFCURVE",
"643 637 CURVE",
"686 701 LINE",
"608 752 LINE",
"567 691 LINE",
"520 714 OFFCURVE",
"463 725 OFFCURVE",
"399 725 CURVE SMOOTH",
"180 725 OFFCURVE",
"58 597 OFFCURVE",
"58 359 CURVE SMOOTH",
"58 233 OFFCURVE",
"90 138 OFFCURVE",
"155 75 CURVE",
"111 9 LINE",
"190 -44 LINE",
"234 22 LINE",
"279 1 OFFCURVE",
"334 -10 OFFCURVE",
"398 -10 CURVE SMOOTH",
"617 -10 OFFCURVE",
"738 122 OFFCURVE",
"738 358 CURVE SMOOTH"
);
},
{
closed = 1;
nodes = (
"217 518 OFFCURVE",
"278 599 OFFCURVE",
"399 599 CURVE SMOOTH",
"433 599 OFFCURVE",
"464 592 OFFCURVE",
"491 577 CURVE",
"244 208 LINE",
"226 246 OFFCURVE",
"217 296 OFFCURVE",
"217 358 CURVE SMOOTH"
);
},
{
closed = 1;
nodes = (
"579 197 OFFCURVE",
"519 117 OFFCURVE",
"398 117 CURVE SMOOTH",
"364 117 OFFCURVE",
"335 124 OFFCURVE",
"310 136 CURVE",
"554 503 LINE",
"571 465 OFFCURVE",
"579 417 OFFCURVE",
"579 358 CURVE SMOOTH"
);
}
);
width = 796;
}
);
note = Oslash;
unicode = 00D8;
},
{
glyphname = Thorn;
lastChange = "2018-06-23 23:49:06 +0000";
layers = (
{
anchors = (
{
name = bottom;
position = "{314, 0}";
},
{
name = top;
position = "{314, 714}";
}
);
layerId = "120467F4-1FD8-4738-87D7-3EC9C6A2741E";
paths = (
{
closed = 1;
nodes = (
"583 522 OFFCURVE",
"494 602 OFFCURVE",
"328 602 CURVE SMOOTH",
"241 602 LINE",
"241 714 LINE",
"90 714 LINE",
"90 0 LINE",
"241 0 LINE",
"241 143 LINE",
"316 143 LINE SMOOTH",
"486 143 OFFCURVE",
"583 227 OFFCURVE",
"583 376 CURVE SMOOTH"
);
},
{
closed = 1;
nodes = (
"302 479 LINE SMOOTH",
"390 479 OFFCURVE",
"430 446 OFFCURVE",
"430 376 CURVE SMOOTH",
"430 296 OFFCURVE",
"384 265 OFFCURVE",
"290 265 CURVE SMOOTH",
"241 265 LINE",
"241 479 LINE"
);
}
);
width = 628;
}
);
note = Thorn;
unicode = 00DE;
},
{
glyphname = germandbls;
lastChange = "2018-06-23 23:49:06 +0000";
layers = (
{
anchors = (
{
name = bottom;
position = "{355, 0}";
},
{
name = top;
position = "{355, 546}";
}
);
layerId = "120467F4-1FD8-4738-87D7-3EC9C6A2741E";
paths = (
{
closed = 1;
nodes = (
"610 703 OFFCURVE",
"506 765 OFFCURVE",
"347 765 CURVE SMOOTH",
"179 765 OFFCURVE",
"78 687 OFFCURVE",
"78 556 CURVE SMOOTH",
"78 0 LINE",
"227 0 LINE",
"227 551 LINE SMOOTH",
"227 613 OFFCURVE",
"271 649 OFFCURVE",
"347 649 CURVE SMOOTH",
"412 649 OFFCURVE",
"458 619 OFFCURVE",
"458 580 CURVE SMOOTH",
"458 550 OFFCURVE",
"440 527 OFFCURVE",
"390 492 CURVE SMOOTH",
"345 460 OFFCURVE",
"322 426 OFFCURVE",
"322 385 CURVE SMOOTH",
"322 332 OFFCURVE",
"349 299 OFFCURVE",
"431 252 CURVE SMOOTH",
"455 238 OFFCURVE",
"474 227 OFFCURVE",
"487 217 CURVE SMOOTH",
"514 197 OFFCURVE",
"523 184 OFFCURVE",
"523 157 CURVE SMOOTH",
"523 117 OFFCURVE",
"496 97 OFFCURVE",
"441 97 CURVE SMOOTH",
"399 97 OFFCURVE",
"338 116 OFFCURVE",
"303 139 CURVE",
"303 21 LINE",
"342 -1 OFFCURVE",
"387 -10 OFFCURVE",
"451 -10 CURVE SMOOTH",
"599 -10 OFFCURVE",
"676 47 OFFCURVE",
"676 159 CURVE SMOOTH",
"676 210 OFFCURVE",
"660 249 OFFCURVE",
"625 281 CURVE SMOOTH",
"608 297 OFFCURVE",
"576 319 OFFCURVE",
"528 349 CURVE SMOOTH",
"507 362 OFFCURVE",
"492 373 OFFCURVE",
"483 381 CURVE SMOOTH",
"475 390 OFFCURVE",
"470 398 OFFCURVE",
"470 407 CURVE SMOOTH",
"470 421 OFFCURVE",
"485 435 OFFCURVE",
"506 450 CURVE SMOOTH",
"527 466 OFFCURVE",
"553 484 OFFCURVE",
"574 509 CURVE SMOOTH",
"595 534 OFFCURVE",
"610 564 OFFCURVE",
"610 606 CURVE SMOOTH"
);
}
);
width = 711;
}
);
note = germandbls;
unicode = 00DF;
},
{
glyphname = ae;
lastChange = "2018-06-23 23:49:06 +0000";
layers = (
{
anchors = (
{
name = bottom;
position = "{458, 0}";
},
{
name = top;
position = "{458, 546}";
}
);
layerId = "120467F4-1FD8-4738-87D7-3EC9C6A2741E";
paths = (
{
closed = 1;
nodes = (
"736 -10 OFFCURVE",
"792 3 OFFCURVE",
"843 29 CURVE",
"843 144 LINE",
"783 115 OFFCURVE",
"721 101 OFFCURVE",
"657 101 CURVE SMOOTH",
"573 101 OFFCURVE",
"524 151 OFFCURVE",
"521 236 CURVE",
"874 236 LINE",
"874 308 LINE SMOOTH",
"874 460 OFFCURVE",
"785 556 OFFCURVE",
"641 556 CURVE SMOOTH",
"563 556 OFFCURVE",
"509 535 OFFCURVE",
"466 493 CURVE",
"428 536 OFFCURVE",
"373 557 OFFCURVE",
"299 557 CURVE SMOOTH",
"223 557 OFFCURVE",
"154 541 OFFCURVE",
"93 508 CURVE",
"141 409 LINE",
"195 434 OFFCURVE",
"245 447 OFFCURVE",
"290 447 CURVE SMOOTH",
"340 447 OFFCURVE",
"371 426 OFFCURVE",
"371 381 CURVE SMOOTH",
"371 340 LINE",
"278 337 LINE SMOOTH",
"121 331 OFFCURVE",
"42 279 OFFCURVE",
"42 163 CURVE SMOOTH",
"42 56 OFFCURVE",
"111 -10 OFFCURVE",
"216 -10 CURVE SMOOTH",
"319 -10 OFFCURVE",
"373 15 OFFCURVE",
"437 91 CURVE",
"484 22 OFFCURVE",
"560 -10 OFFCURVE",
"649 -10 CURVE SMOOTH"
);
},
{
closed = 1;
nodes = (
"371 142 OFFCURVE",
"329 99 OFFCURVE",
"263 99 CURVE SMOOTH",
"218 99 OFFCURVE",
"195 120 OFFCURVE",
"195 162 CURVE SMOOTH",
"195 221 OFFCURVE",
"235 249 OFFCURVE",
"316 251 CURVE SMOOTH",
"371 253 LINE",
"371 208 LINE SMOOTH"
);
},
{
closed = 1;
nodes = (
"695 450 OFFCURVE",
"732 408 OFFCURVE",
"734 335 CURVE",
"524 335 LINE",
"529 412 OFFCURVE",
"567 450 OFFCURVE",
"638 450 CURVE SMOOTH"
);
}
);
width = 917;
}
);
note = ae;
unicode = 00E6;
},
{
glyphname = eth;
lastChange = "2018-06-23 23:49:06 +0000";
layers = (
{
layerId = "120467F4-1FD8-4738-87D7-3EC9C6A2741E";
paths = (
{
closed = 1;
nodes = (
"212 508 LINE",
"324 577 LINE",
"365 539 OFFCURVE",
"396 493 OFFCURVE",
"418 440 CURVE",
"414 438 LINE",
"391 470 OFFCURVE",
"347 486 OFFCURVE",
"280 486 CURVE SMOOTH",
"136 486 OFFCURVE",
"45 391 OFFCURVE",
"45 239 CURVE SMOOTH",
"45 86 OFFCURVE",
"148 -10 OFFCURVE",
"308 -10 CURVE SMOOTH",
"474 -10 OFFCURVE",
"574 98 OFFCURVE",
"574 280 CURVE SMOOTH",
"574 431 OFFCURVE",
"527 547 OFFCURVE",
"426 640 CURVE",
"509 691 LINE",
"460 766 LINE",
"350 698 LINE",
"313 723 OFFCURVE",
"271 746 OFFCURVE",
"224 767 CURVE",
"175 681 LINE",
"198 668 OFFCURVE",
"223 653 OFFCURVE",
"249 636 CURVE",
"163 584 LINE"
);
},
{
closed = 1;
nodes = (
"422 154 OFFCURVE",
"390 100 OFFCURVE",
"310 100 CURVE SMOOTH",
"237 100 OFFCURVE",
"197 146 OFFCURVE",
"197 238 CURVE SMOOTH",
"197 333 OFFCURVE",
"231 376 OFFCURVE",
"310 376 CURVE SMOOTH",
"380 376 OFFCURVE",
"422 330 OFFCURVE",
"422 260 CURVE SMOOTH"
);
}
);
width = 619;
}
);
note = eth;
unicode = 00F0;
},
{
glyphname = divide;
lastChange = "2018-06-23 23:49:06 +0000";
layers = (
{
layerId = "120467F4-1FD8-4738-87D7-3EC9C6A2741E";
paths = (
{
closed = 1;
nodes = (
"528 406 LINE",
"43 406 LINE",
"43 299 LINE",
"528 299 LINE"
);
},
{
closed = 1;
nodes = (
"217 134 OFFCURVE",
"243 108 OFFCURVE",
"285 108 CURVE SMOOTH",
"328 108 OFFCURVE",
"353 137 OFFCURVE",
"353 182 CURVE SMOOTH",
"353 229 OFFCURVE",
"328 256 OFFCURVE",
"285 256 CURVE SMOOTH",
"242 256 OFFCURVE",
"217 231 OFFCURVE",
"217 182 CURVE SMOOTH"
);
},
{
closed = 1;
nodes = (
"217 476 OFFCURVE",
"243 449 OFFCURVE",
"285 449 CURVE SMOOTH",
"328 449 OFFCURVE",
"353 478 OFFCURVE",
"353 523 CURVE SMOOTH",
"353 569 OFFCURVE",
"329 597 OFFCURVE",
"285 597 CURVE SMOOTH",
"242 597 OFFCURVE",
"217 572 OFFCURVE",
"217 523 CURVE SMOOTH"
);
}
);
width = 571;
}
);
note = divide;
unicode = 00F7;
},
{
glyphname = oslash;
lastChange = "2018-06-23 23:49:06 +0000";
layers = (
{
anchors = (
{
name = top;
position = "{310, 546}";
}
);
layerId = "120467F4-1FD8-4738-87D7-3EC9C6A2741E";
paths = (
{
closed = 1;
nodes = (
"574 359 OFFCURVE",
"551 427 OFFCURVE",
"505 477 CURVE",
"533 518 LINE",
"459 571 LINE",
"432 531 LINE",
"395 548 OFFCURVE",
"354 556 OFFCURVE",
"311 556 CURVE SMOOTH",
"143 556 OFFCURVE",
"45 452 OFFCURVE",
"45 274 CURVE SMOOTH",
"45 184 OFFCURVE",
"70 114 OFFCURVE",
"119 63 CURVE",
"86 14 LINE",
"161 -37 LINE",
"194 12 LINE",
"229 -2 OFFCURVE",
"267 -10 OFFCURVE",
"308 -10 CURVE SMOOTH",
"476 -10 OFFCURVE",
"574 96 OFFCURVE",
"574 274 CURVE SMOOTH"
);
},
{
closed = 1;
nodes = (
"197 383 OFFCURVE",
"229 436 OFFCURVE",
"309 436 CURVE SMOOTH",
"330 436 OFFCURVE",
"347 432 OFFCURVE",
"361 425 CURVE",
"206 193 LINE",
"200 216 OFFCURVE",
"197 243 OFFCURVE",
"197 274 CURVE SMOOTH"
);
},
{
closed = 1;
nodes = (
"422 165 OFFCURVE",
"390 110 OFFCURVE",
"310 110 CURVE SMOOTH",
"292 110 OFFCURVE",
"277 112 OFFCURVE",
"265 117 CURVE",
"416 343 LINE",
"420 323 OFFCURVE",
"422 300 OFFCURVE",
"422 274 CURVE SMOOTH"
);
}
);
width = 619;
}
);
note = oslash;
unicode = 00F8;
},
{
glyphname = thorn;
lastChange = "2018-06-23 23:49:06 +0000";
layers = (
{
anchors = (
{
name = bottom;
position = "{316, 0}";
},
{
name = top;
position = "{316, 546}";
}
);
layerId = "120467F4-1FD8-4738-87D7-3EC9C6A2741E";
paths = (
{
closed = 1;
nodes = (
"224 510 LINE",
"227 569 LINE",
"227 760 LINE",
"78 760 LINE",
"78 -240 LINE",
"227 -240 LINE",
"227 -19 LINE",
"224 27 LINE",
"220 57 LINE",
"227 57 LINE",
"261 13 OFFCURVE",
"313 -10 OFFCURVE",
"382 -10 CURVE SMOOTH",
"511 -10 OFFCURVE",
"588 96 OFFCURVE",
"588 274 CURVE SMOOTH",
"588 449 OFFCURVE",
"511 556 OFFCURVE",
"382 556 CURVE SMOOTH",
"313 556 OFFCURVE",
"260 528 OFFCURVE",
"227 475 CURVE",
"220 475 LINE"
);
},
{
closed = 1;
nodes = (
"404 437 OFFCURVE",
"436 383 OFFCURVE",
"436 276 CURVE SMOOTH",
"436 166 OFFCURVE",
"403 111 OFFCURVE",
"336 111 CURVE SMOOTH",
"260 111 OFFCURVE",
"227 158 OFFCURVE",
"227 275 CURVE SMOOTH",
"227 291 LINE SMOOTH",
"229 395 OFFCURVE",
"260 437 OFFCURVE",
"334 437 CURVE SMOOTH"
);
}
);
width = 633;
}
);
note = thorn;
unicode = 00FE;
},
{
glyphname = dcroat;
lastChange = "2018-06-23 23:49:06 +0000";
layers = (
{
layerId = "120467F4-1FD8-4738-87D7-3EC9C6A2741E";
paths = (
{
closed = 1;
nodes = (
"313 -10 OFFCURVE",
"363 17 OFFCURVE",
"397 71 CURVE",
"403 71 LINE",
"434 0 LINE",
"555 0 LINE",
"555 584 LINE",
"631 584 LINE",
"631 681 LINE",
"555 681 LINE",
"555 760 LINE",
"406 760 LINE",
"406 681 LINE",
"252 681 LINE",
"252 584 LINE",
"406 584 LINE",
"406 559 LINE SMOOTH",
"406 526 OFFCURVE",
"410 488 OFFCURVE",
"417 446 CURVE",
"412 446 LINE",
"377 498 OFFCURVE",
"321 526 OFFCURVE",
"251 526 CURVE SMOOTH",
"105 526 OFFCURVE",
"45 440 OFFCURVE",
"45 257 CURVE SMOOTH",
"45 89 OFFCURVE",
"121 -10 OFFCURVE",
"246 -10 CURVE SMOOTH"
);
},
{
closed = 1;
nodes = (
"238 109 OFFCURVE",
"207 158 OFFCURVE",
"207 255 CURVE SMOOTH",
"207 365 OFFCURVE",
"229 405 OFFCURVE",
"302 405 CURVE SMOOTH",
"388 405 OFFCURVE",
"416 371 OFFCURVE",
"416 256 CURVE SMOOTH",
"416 242 LINE SMOOTH",
"414 145 OFFCURVE",
"381 109 OFFCURVE",
"309 109 CURVE SMOOTH"
);
}
);
width = 649;
}
);
note = dcroat;
unicode = 0111;
},
{
glyphname = Hbar;
lastChange = "2018-06-23 23:49:06 +0000";
layers = (
{
layerId = "120467F4-1FD8-4738-87D7-3EC9C6A2741E";
paths = (
{
closed = 1;
nodes = (
"524 714 LINE",
"524 619 LINE",
"241 619 LINE",
"241 714 LINE",
"90 714 LINE",
"90 619 LINE",
"0 619 LINE",
"0 522 LINE",
"90 522 LINE",
"90 0 LINE",
"241 0 LINE",
"241 308 LINE",
"524 308 LINE",
"524 0 LINE",
"675 0 LINE",
"675 522 LINE",
"765 522 LINE",
"765 619 LINE",
"675 619 LINE",
"675 714 LINE"
);
},
{
closed = 1;
nodes = (
"241 522 LINE",
"524 522 LINE",
"524 434 LINE",
"241 434 LINE"
);
}
);
width = 765;
}
);
note = Hbar;
unicode = 0126;
},
{
glyphname = hbar;
lastChange = "2018-06-23 23:49:06 +0000";
layers = (
{
layerId = "120467F4-1FD8-4738-87D7-3EC9C6A2741E";
paths = (
{
closed = 1;
nodes = (
"582 456 OFFCURVE",
"516 526 OFFCURVE",
"387 526 CURVE SMOOTH",
"315 526 OFFCURVE",
"262 499 OFFCURVE",
"229 446 CURVE",
"220 446 LINE",
"225 505 OFFCURVE",
"227 548 OFFCURVE",
"227 575 CURVE SMOOTH",
"227 584 LINE",
"381 584 LINE",
"381 681 LINE",
"227 681 LINE",
"227 760 LINE",
"78 760 LINE",
"78 681 LINE",
"2 681 LINE",
"2 584 LINE",
"78 584 LINE",
"78 0 LINE",
"227 0 LINE",
"227 227 LINE SMOOTH",
"227 354 OFFCURVE",
"263 407 OFFCURVE",
"345 407 CURVE SMOOTH",
"404 407 OFFCURVE",
"433 368 OFFCURVE",
"433 289 CURVE SMOOTH",
"433 0 LINE",
"582 0 LINE",
"582 326 LINE SMOOTH"
);
}
);
width = 657;
}
);
note = hbar;
unicode = 0127;
},
{
glyphname = dotlessi;
lastChange = "2018-06-23 23:49:06 +0000";
layers = (
{
anchors = (
{
name = bottom;
position = "{153, 0}";
},
{
name = ogonek;
position = "{274, 5}";
},
{
name = top;
position = "{153, 546}";
}
);
layerId = "120467F4-1FD8-4738-87D7-3EC9C6A2741E";
paths = (
{
closed = 1;
nodes = (
"78 546 LINE",
"78 0 LINE",
"227 0 LINE",
"227 546 LINE"
);
}
);
width = 305;
}
);
note = dotlessi;
unicode = 0131;
},
{
glyphname = kgreenlandic;
lastChange = "2018-06-23 23:49:06 +0000";
layers = (
{
anchors = (
{
name = bottom;
position = "{310, 0}";
},
{
name = top;
position = "{310, 546}";
}
);
layerId = "120467F4-1FD8-4738-87D7-3EC9C6A2741E";
paths = (
{
closed = 1;
nodes = (
"226 324 LINE",
"227 403 LINE",
"227 546 LINE",
"78 546 LINE",
"78 0 LINE",
"227 0 LINE",
"227 164 LINE",
"297 208 LINE",
"450 0 LINE",
"620 0 LINE",
"392 296 LINE",
"607 546 LINE",
"448 546 LINE",
"295 367 LINE",
"226 284 LINE",
"224 284 LINE"
);
}
);
width = 620;
}
);
note = kgreenlandic;
unicode = 0138;
},
{
glyphname = Lslash;
lastChange = "2018-06-23 23:49:06 +0000";
layers = (
{
layerId = "120467F4-1FD8-4738-87D7-3EC9C6A2741E";
paths = (
{
closed = 1;
nodes = (
"531 125 LINE",
"241 125 LINE",
"241 332 LINE",
"368 409 LINE",
"311 505 LINE",
"241 462 LINE",
"241 714 LINE",
"90 714 LINE",
"90 370 LINE",
"1 316 LINE",
"56 220 LINE",
"90 240 LINE",
"90 0 LINE",
"531 0 LINE"
);
}
);
width = 565;
}
);
note = Lslash;
unicode = 0141;
},
{
glyphname = lslash;
lastChange = "2018-06-23 23:49:06 +0000";
layers = (
{
layerId = "120467F4-1FD8-4738-87D7-3EC9C6A2741E";
paths = (
{
closed = 1;
nodes = (
"90 760 LINE",
"90 363 LINE",
"0 308 LINE",
"55 212 LINE",
"90 233 LINE",
"90 0 LINE",
"239 0 LINE",
"239 324 LINE",
"330 379 LINE",
"273 475 LINE",
"239 454 LINE",
"239 760 LINE"
);
}
);
width = 330;
}
);
note = lslash;
unicode = 0142;
},
{
glyphname = Eng;
lastChange = "2018-06-23 23:49:06 +0000";
layers = (
{
layerId = "120467F4-1FD8-4738-87D7-3EC9C6A2741E";
paths = (
{
closed = 1;
nodes = (
"642 -210 OFFCURVE",
"723 -135 OFFCURVE",
"723 0 CURVE SMOOTH",
"723 714 LINE",
"587 714 LINE",
"587 476 LINE SMOOTH",
"587 429 OFFCURVE",
"588 388 OFFCURVE",
"590 353 CURVE SMOOTH",
"594 279 LINE",
"591 279 LINE",
"281 714 LINE",
"90 714 LINE",
"90 0 LINE",
"225 0 LINE",
"225 336 LINE SMOOTH",
"225 376 OFFCURVE",
"222 445 OFFCURVE",
"216 540 CURVE",
"220 540 LINE",
"596 2 LINE",
"590 -52 OFFCURVE",
"552 -83 OFFCURVE",
"481 -83 CURVE SMOOTH",
"457 -83 OFFCURVE",
"430 -80 OFFCURVE",
"400 -73 CURVE",
"400 -199 LINE",
"427 -207 OFFCURVE",
"459 -210 OFFCURVE",
"496 -210 CURVE SMOOTH"
);
}
);
width = 813;
}
);
note = Eng;
unicode = 014A;
},
{
glyphname = eng;
lastChange = "2018-06-23 23:49:06 +0000";
layers = (
{
layerId = "120467F4-1FD8-4738-87D7-3EC9C6A2741E";
paths = (
{
closed = 1;
nodes = (
"519 -240 OFFCURVE",
"582 -176 OFFCURVE",
"582 -59 CURVE SMOOTH",
"582 356 LINE SMOOTH",
"582 485 OFFCURVE",
"515 556 OFFCURVE",
"388 556 CURVE SMOOTH",
"313 556 OFFCURVE",
"254 527 OFFCURVE",
"221 476 CURVE",
"212 476 LINE",
"192 546 LINE",
"78 546 LINE",
"78 0 LINE",
"227 0 LINE",
"227 257 LINE SMOOTH",
"227 386 OFFCURVE",
"262 437 OFFCURVE",
"345 437 CURVE SMOOTH",
"404 437 OFFCURVE",
"433 401 OFFCURVE",
"433 330 CURVE SMOOTH",
"433 -37 LINE SMOOTH",
"433 -92 OFFCURVE",
"413 -120 OFFCURVE",
"373 -120 CURVE SMOOTH",
"354 -120 OFFCURVE",
"334 -117 OFFCURVE",
"315 -111 CURVE",
"315 -228 LINE",
"340 -236 OFFCURVE",
"370 -240 OFFCURVE",
"405 -240 CURVE SMOOTH"
);
}
);
width = 657;
}
);
note = eng;
unicode = 014B;
},
{
glyphname = OE;
lastChange = "2018-06-23 23:49:06 +0000";
layers = (
{
anchors = (
{
name = bottom;
position = "{487, 0}";
},
{
name = top;
position = "{487, 714}";
}
);
layerId = "120467F4-1FD8-4738-87D7-3EC9C6A2741E";
paths = (
{
closed = 1;
nodes = (
"639 125 LINE",
"639 309 LINE",
"896 309 LINE",
"896 433 LINE",
"639 433 LINE",
"639 590 LINE",
"914 590 LINE",
"914 714 LINE",
"490 714 LINE",
"467 720 OFFCURVE",
"418 725 OFFCURVE",
"379 725 CURVE SMOOTH",
"172 725 OFFCURVE",
"58 595 OFFCURVE",
"58 359 CURVE SMOOTH",
"58 124 OFFCURVE",
"170 -10 OFFCURVE",
"378 -10 CURVE SMOOTH",
"407 -10 OFFCURVE",
"463 -6 OFFCURVE",
"488 0 CURVE",
"914 0 LINE",
"914 125 LINE"
);
},
{
closed = 1;
nodes = (
"415 599 OFFCURVE",
"465 591 OFFCURVE",
"488 579 CURVE",
"488 136 LINE",
"463 125 OFFCURVE",
"420 117 OFFCURVE",
"378 117 CURVE SMOOTH",
"271 117 OFFCURVE",
"214 199 OFFCURVE",
"214 358 CURVE SMOOTH",
"214 516 OFFCURVE",
"271 599 OFFCURVE",
"379 599 CURVE SMOOTH"
);
}
);
width = 973;
}
);
note = OE;
unicode = 0152;
},
{
glyphname = oe;
lastChange = "2018-06-23 23:49:06 +0000";
layers = (
{
anchors = (
{
name = bottom;
position = "{489, 0}";
},
{
name = top;
position = "{489, 546}";
}
);
layerId = "120467F4-1FD8-4738-87D7-3EC9C6A2741E";
paths = (
{
closed = 1;
nodes = (
"794 -10 OFFCURVE",
"851 3 OFFCURVE",
"904 29 CURVE",
"904 144 LINE",
"839 114 OFFCURVE",
"782 101 OFFCURVE",
"712 101 CURVE SMOOTH",
"625 101 OFFCURVE",
"575 149 OFFCURVE",
"571 232 CURVE",
"571 236 LINE",
"935 236 LINE",
"935 308 LINE SMOOTH",
"935 463 OFFCURVE",
"842 556 OFFCURVE",
"683 556 CURVE SMOOTH",
"605 556 OFFCURVE",
"543 531 OFFCURVE",
"496 480 CURVE",
"450 530 OFFCURVE",
"382 556 OFFCURVE",
"309 556 CURVE SMOOTH",
"141 556 OFFCURVE",
"45 454 OFFCURVE",
"45 274 CURVE SMOOTH",
"45 216 OFFCURVE",
"56 166 OFFCURVE",
"78 123 CURVE SMOOTH",
"121 37 OFFCURVE",
"205 -10 OFFCURVE",
"310 -10 CURVE SMOOTH",
"392 -10 OFFCURVE",
"455 16 OFFCURVE",
"501 66 CURVE",
"549 16 OFFCURVE",
"618 -10 OFFCURVE",
"706 -10 CURVE SMOOTH"
);
},
{
closed = 1;
nodes = (
"197 383 OFFCURVE",
"229 436 OFFCURVE",
"309 436 CURVE SMOOTH",
"389 436 OFFCURVE",
"422 382 OFFCURVE",
"422 274 CURVE SMOOTH",
"422 165 OFFCURVE",
"390 110 OFFCURVE",
"310 110 CURVE SMOOTH",
"230 110 OFFCURVE",
"197 166 OFFCURVE",
"197 274 CURVE SMOOTH"
);
},
{
closed = 1;
nodes = (
"754 450 OFFCURVE",
"793 407 OFFCURVE",
"795 335 CURVE",
"575 335 LINE",
"581 414 OFFCURVE",
"625 450 OFFCURVE",
"686 450 CURVE SMOOTH"
);
}
);
width = 978;
}
);
note = oe;
unicode = 0153;
},
{
glyphname = Tbar;
lastChange = "2018-06-23 23:49:06 +0000";
layers = (
{
layerId = "120467F4-1FD8-4738-87D7-3EC9C6A2741E";
paths = (
{
closed = 1;
nodes = (
"486 291 LINE",
"486 415 LINE",
"365 415 LINE",
"365 588 LINE",
"559 588 LINE",
"559 714 LINE",
"20 714 LINE",
"20 588 LINE",
"214 588 LINE",
"214 415 LINE",
"93 415 LINE",
"93 291 LINE",
"214 291 LINE",
"214 0 LINE",
"365 0 LINE",
"365 291 LINE"
);
}
);
width = 579;
}
);
note = Tbar;
unicode = 0166;
},
{
glyphname = tbar;
lastChange = "2018-06-23 23:49:06 +0000";
layers = (
{
layerId = "120467F4-1FD8-4738-87D7-3EC9C6A2741E";
paths = (
{
closed = 1;
nodes = (
"269 109 OFFCURVE",
"243 128 OFFCURVE",
"243 171 CURVE SMOOTH",
"243 243 LINE",
"379 243 LINE",
"379 340 LINE",
"243 340 LINE",
"243 434 LINE",
"396 434 LINE",
"396 546 LINE",
"243 546 LINE",
"243 662 LINE",
"148 662 LINE",
"105 547 LINE",
"23 497 LINE",
"23 434 LINE",
"94 434 LINE",
"94 340 LINE",
"32 340 LINE",
"32 243 LINE",
"94 243 LINE",
"94 171 LINE SMOOTH",
"94 48 OFFCURVE",
"147 -10 OFFCURVE",
"268 -10 CURVE SMOOTH",
"315 -10 OFFCURVE",
"368 -1 OFFCURVE",
"402 15 CURVE",
"402 126 LINE",
"365 115 OFFCURVE",
"334 109 OFFCURVE",
"308 109 CURVE SMOOTH"
);
}
);
width = 434;
}
);
note = tbar;
unicode = 0167;
},
{
glyphname = longs;
lastChange = "2018-06-23 23:49:06 +0000";
layers = (
{
anchors = (
{
name = bottom;
position = "{191, 0}";
},
{
name = top;
position = "{191, 546}";
}
);
layerId = "120467F4-1FD8-4738-87D7-3EC9C6A2741E";
paths = (
{
closed = 1;
nodes = (
"314 647 OFFCURVE",
"341 642 OFFCURVE",
"371 633 CURVE",
"406 742 LINE",
"367 757 OFFCURVE",
"321 765 OFFCURVE",
"270 765 CURVE SMOOTH",
"137 765 OFFCURVE",
"78 710 OFFCURVE",
"78 586 CURVE SMOOTH",
"78 0 LINE",
"227 0 LINE",
"227 580 LINE SMOOTH",
"227 625 OFFCURVE",
"248 647 OFFCURVE",
"289 647 CURVE SMOOTH"
);
}
);
width = 383;
}
);
note = longs;
unicode = 017F;
},
{
glyphname = florin;
lastChange = "2018-06-23 23:49:06 +0000";
layers = (
{
layerId = "120467F4-1FD8-4738-87D7-3EC9C6A2741E";
paths = (
{
closed = 1;
nodes = (
"475 393 LINE",
"475 505 LINE",
"364 505 LINE",
"364 539 LINE SMOOTH",
"364 583 OFFCURVE",
"381 606 OFFCURVE",
"417 606 CURVE SMOOTH",
"438 606 OFFCURVE",
"461 601 OFFCURVE",
"488 592 CURVE",
"523 701 LINE",
"486 716 OFFCURVE",
"444 724 OFFCURVE",
"395 724 CURVE SMOOTH",
"269 724 OFFCURVE",
"215 668 OFFCURVE",
"215 545 CURVE SMOOTH",
"215 505 LINE",
"133 465 LINE",
"133 393 LINE",
"215 393 LINE",
"215 -37 LINE SMOOTH",
"215 -92 OFFCURVE",
"194 -120 OFFCURVE",
"154 -120 CURVE SMOOTH",
"135 -120 OFFCURVE",
"115 -117 OFFCURVE",
"96 -111 CURVE",
"96 -228 LINE",
"121 -236 OFFCURVE",
"151 -240 OFFCURVE",
"186 -240 CURVE SMOOTH",
"301 -240 OFFCURVE",
"364 -174 OFFCURVE",
"364 -59 CURVE SMOOTH",
"364 393 LINE"
);
}
);
width = 571;
}
);
note = florin;
unicode = 0192;
},
{
glyphname = Aringacute;
lastChange = "2018-06-23 23:49:06 +0000";
layers = (
{
layerId = "120467F4-1FD8-4738-87D7-3EC9C6A2741E";
paths = (
{
closed = 1;
nodes = (
"468 784 OFFCURVE",
"415 829 OFFCURVE",
"344 829 CURVE SMOOTH",
"271 829 OFFCURVE",
"223 785 OFFCURVE",
"223 713 CURVE SMOOTH",
"223 685 OFFCURVE",
"230 661 OFFCURVE",
"244 642 CURVE",
"0 0 LINE",
"162 0 LINE",
"215 161 LINE",
"476 161 LINE",
"528 0 LINE",
"690 0 LINE",
"445 642 LINE",
"460 662 OFFCURVE",
"468 686 OFFCURVE",
"468 714 CURVE SMOOTH"
);
},
{
closed = 1;
nodes = (
"303 445 LINE SMOOTH",
"325 509 OFFCURVE",
"339 552 OFFCURVE",
"345 575 CURVE",
"350 553 OFFCURVE",
"366 504 OFFCURVE",
"394 429 CURVE SMOOTH",
"444 288 LINE",
"248 288 LINE"
);
},
{
closed = 1;
nodes = (
"454 892 OFFCURVE",
"522 935 OFFCURVE",
"537 952 CURVE",
"537 958 LINE",
"370 958 LINE",
"356 938 OFFCURVE",
"315 891 OFFCURVE",
"285 864 CURVE",
"285 856 LINE",
"384 856 LINE"
);
},
{
closed = 1;
nodes = (
"391 685 OFFCURVE",
"373 667 OFFCURVE",
"348 666 CURVE",
"339 666 LINE",
"311 667 OFFCURVE",
"297 683 OFFCURVE",
"297 713 CURVE SMOOTH",
"297 742 OFFCURVE",
"317 760 OFFCURVE",
"344 760 CURVE SMOOTH",
"372 760 OFFCURVE",
"391 742 OFFCURVE",
"391 713 CURVE SMOOTH"
);
}
);
width = 690;
}
);
note = Aringacute;
unicode = 01FA;
},
{
glyphname = aringacute;
lastChange = "2018-06-23 23:49:06 +0000";
layers = (
{
layerId = "120467F4-1FD8-4738-87D7-3EC9C6A2741E";
paths = (
{
closed = 1;
nodes = (
"529 364 LINE SMOOTH",
"529 494 OFFCURVE",
"448 557 OFFCURVE",
"302 557 CURVE SMOOTH",
"225 557 OFFCURVE",
"156 541 OFFCURVE",
"93 508 CURVE",
"142 407 LINE",
"201 434 OFFCURVE",
"252 447 OFFCURVE",
"296 447 CURVE SMOOTH",
"353 447 OFFCURVE",
"381 419 OFFCURVE",
"381 364 CURVE SMOOTH",
"381 340 LINE",
"286 337 LINE SMOOTH",
"123 331 OFFCURVE",
"42 279 OFFCURVE",
"42 163 CURVE SMOOTH",
"42 52 OFFCURVE",
"106 -10 OFFCURVE",
"211 -10 CURVE SMOOTH",
"296 -10 OFFCURVE",
"342 11 OFFCURVE",
"392 74 CURVE",
"396 74 LINE",
"425 0 LINE",
"529 0 LINE"
);
},
{
closed = 1;
nodes = (
"381 142 OFFCURVE",
"336 99 OFFCURVE",
"267 99 CURVE SMOOTH",
"219 99 OFFCURVE",
"195 120 OFFCURVE",
"195 162 CURVE SMOOTH",
"195 221 OFFCURVE",
"237 249 OFFCURVE",
"323 251 CURVE SMOOTH",
"381 253 LINE",
"381 208 LINE SMOOTH"
);
},
{
closed = 1;
nodes = (
"371 878 OFFCURVE",
"405 898 OFFCURVE",
"432 915 CURVE SMOOTH",
"458 932 OFFCURVE",
"475 944 OFFCURVE",
"482 952 CURVE",
"482 958 LINE",
"315 958 LINE",
"301 938 OFFCURVE",
"260 891 OFFCURVE",
"230 864 CURVE",
"230 856 LINE",
"329 856 LINE"
);
},
{
closed = 1;
nodes = (
"430 769 OFFCURVE",
"378 817 OFFCURVE",
"306 817 CURVE SMOOTH",
"232 817 OFFCURVE",
"185 771 OFFCURVE",
"185 701 CURVE SMOOTH",
"185 629 OFFCURVE",
"233 585 OFFCURVE",
"306 585 CURVE SMOOTH",
"379 585 OFFCURVE",
"430 632 OFFCURVE",
"430 702 CURVE SMOOTH"
);
},
{
closed = 1;
nodes = (
"353 672 OFFCURVE",
"333 654 OFFCURVE",
"306 654 CURVE SMOOTH",
"275 654 OFFCURVE",
"259 672 OFFCURVE",
"259 701 CURVE SMOOTH",
"259 730 OFFCURVE",
"279 748 OFFCURVE",
"306 748 CURVE SMOOTH",
"333 748 OFFCURVE",
"353 730 OFFCURVE",
"353 701 CURVE SMOOTH"
);
}
);
width = 604;
}
);
note = aringacute;
unicode = 01FB;
},
{
glyphname = circumflex;
lastChange = "2018-06-23 23:49:06 +0000";
layers = (
{
layerId = "120467F4-1FD8-4738-87D7-3EC9C6A2741E";
paths = (
{
closed = 1;
nodes = (
"515 619 LINE",
"468 665 OFFCURVE",
"410 732 OFFCURVE",
"390 766 CURVE",
"216 766 LINE",
"194 729 OFFCURVE",
"152 681 OFFCURVE",
"91 619 CURVE",
"91 606 LINE",
"190 606 LINE",
"239 637 OFFCURVE",
"276 666 OFFCURVE",
"302 692 CURVE",
"327 665 OFFCURVE",
"365 636 OFFCURVE",
"416 606 CURVE",
"515 606 LINE"
);
}
);
width = 607;
}
);
note = circumflex;
unicode = 02C6;
},
{
glyphname = caron;
lastChange = "2018-06-23 23:49:06 +0000";
layers = (
{
layerId = "120467F4-1FD8-4738-87D7-3EC9C6A2741E";
paths = (
{
closed = 1;
nodes = (
"367 737 OFFCURVE",
"329 708 OFFCURVE",
"302 680 CURVE",
"275 707 OFFCURVE",
"238 736 OFFCURVE",
"190 766 CURVE",
"91 766 LINE",
"91 753 LINE",
"129 713 OFFCURVE",
"158 682 OFFCURVE",
"175 661 CURVE SMOOTH",
"193 640 OFFCURVE",
"207 621 OFFCURVE",
"216 606 CURVE",
"390 606 LINE",
"410 639 OFFCURVE",
"460 698 OFFCURVE",
"515 753 CURVE",
"515 766 LINE",
"416 766 LINE"
);
}
);
width = 607;
}
);
note = caron;
unicode = 02C7;
},
{
glyphname = macron;
lastChange = "2018-06-23 23:49:06 +0000";
layers = (
{
layerId = "120467F4-1FD8-4738-87D7-3EC9C6A2741E";
paths = (
{
closed = 1;
nodes = (
"469 606 LINE",
"469 709 LINE",
"138 709 LINE",
"138 606 LINE"
);
}
);
width = 607;
}
);
note = macron;
unicode = 02C9;
},
{
glyphname = breve;
lastChange = "2018-06-23 23:49:06 +0000";
layers = (
{
layerId = "120467F4-1FD8-4738-87D7-3EC9C6A2741E";
paths = (
{
closed = 1;
nodes = (
"405 730 OFFCURVE",
"369 710 OFFCURVE",
"302 710 CURVE SMOOTH",
"274 710 OFFCURVE",
"253 712 OFFCURVE",
"240 716 CURVE SMOOTH",
"212 724 OFFCURVE",
"196 740 OFFCURVE",
"194 771 CURVE",
"111 771 LINE",
"116 669 OFFCURVE",
"188 606 OFFCURVE",
"301 606 CURVE SMOOTH",
"409 606 OFFCURVE",
"487 671 OFFCURVE",
"495 771 CURVE",
"410 771 LINE"
);
}
);
width = 607;
}
);
note = breve;
unicode = 02D8;
},
{
glyphname = dotaccent;
lastChange = "2018-06-23 23:49:06 +0000";
layers = (
{
layerId = "120467F4-1FD8-4738-87D7-3EC9C6A2741E";
paths = (
{
closed = 1;
nodes = (
"72 638 OFFCURVE",
"99 614 OFFCURVE",
"153 614 CURVE SMOOTH",
"207 614 OFFCURVE",
"234 641 OFFCURVE",
"234 687 CURVE SMOOTH",
"234 735 OFFCURVE",
"207 760 OFFCURVE",
"153 760 CURVE SMOOTH",
"99 760 OFFCURVE",
"72 735 OFFCURVE",
"72 687 CURVE SMOOTH"
);
}
);
width = 305;
}
);
note = dotaccent;
unicode = 02D9;
},
{
glyphname = ring;
lastChange = "2018-06-23 23:49:06 +0000";
layers = (
{
layerId = "120467F4-1FD8-4738-87D7-3EC9C6A2741E";
paths = (
{
closed = 1;
nodes = (
"411 789 OFFCURVE",
"359 837 OFFCURVE",
"287 837 CURVE SMOOTH",
"213 837 OFFCURVE",
"166 792 OFFCURVE",
"166 721 CURVE SMOOTH",
"166 649 OFFCURVE",
"214 605 OFFCURVE",
"287 605 CURVE SMOOTH",
"360 605 OFFCURVE",
"411 652 OFFCURVE",
"411 722 CURVE SMOOTH"
);
},
{
closed = 1;
nodes = (
"334 692 OFFCURVE",
"314 674 OFFCURVE",
"287 674 CURVE SMOOTH",
"256 674 OFFCURVE",
"240 692 OFFCURVE",
"240 721 CURVE SMOOTH",
"240 750 OFFCURVE",
"260 768 OFFCURVE",
"287 768 CURVE SMOOTH",
"314 768 OFFCURVE",
"334 750 OFFCURVE",
"334 721 CURVE SMOOTH"
);
}
);
width = 577;
}
);
note = ring;
unicode = 02DA;
},
{
glyphname = ogonek;
lastChange = "2018-06-23 23:49:06 +0000";
layers = (
{
layerId = "120467F4-1FD8-4738-87D7-3EC9C6A2741E";
paths = (
{
closed = 1;
nodes = (
"108 -77 OFFCURVE",
"135 -43 OFFCURVE",
"180 0 CURVE",
"93 0 LINE",
"25 -50 OFFCURVE",
"5 -84 OFFCURVE",
"5 -128 CURVE SMOOTH",
"5 -195 OFFCURVE",
"53 -240 OFFCURVE",
"127 -240 CURVE SMOOTH",
"151 -240 OFFCURVE",
"176 -236 OFFCURVE",
"203 -229 CURVE",
"203 -142 LINE",
"184 -148 OFFCURVE",
"165 -151 OFFCURVE",
"147 -151 CURVE SMOOTH",
"124 -151 OFFCURVE",
"108 -138 OFFCURVE",
"108 -111 CURVE SMOOTH"
);
}
);
width = 206;
}
);
note = ogonek;
unicode = 02DB;
},
{
glyphname = tilde;
lastChange = "2018-06-23 23:49:06 +0000";
layers = (
{
layerId = "120467F4-1FD8-4738-87D7-3EC9C6A2741E";
paths = (
{
closed = 1;
nodes = (
"247 657 OFFCURVE",
"271 645 OFFCURVE",
"296 632 CURVE SMOOTH",
"321 619 OFFCURVE",
"346 606 OFFCURVE",
"373 606 CURVE SMOOTH",
"449 606 OFFCURVE",
"499 663 OFFCURVE",
"506 757 CURVE",
"433 757 LINE",
"425 722 OFFCURVE",
"404 705 OFFCURVE",
"384 705 CURVE SMOOTH",
"360 705 OFFCURVE",
"336 718 OFFCURVE",
"312 730 CURVE SMOOTH",
"286 743 OFFCURVE",
"261 756 OFFCURVE",
"234 756 CURVE SMOOTH",
"157 756 OFFCURVE",
"108 699 OFFCURVE",
"101 605 CURVE",
"174 605 LINE",
"182 640 OFFCURVE",
"203 657 OFFCURVE",
"223 657 CURVE SMOOTH"
);
}
);
width = 607;
}
);
note = tilde;
unicode = 02DC;
},
{
glyphname = hungarumlaut;
lastChange = "2018-06-23 23:49:06 +0000";
layers = (
{
layerId = "120467F4-1FD8-4738-87D7-3EC9C6A2741E";
paths = (
{
closed = 1;
nodes = (
"203 641 OFFCURVE",
"297 721 OFFCURVE",
"318 756 CURVE",
"318 766 LINE",
"171 766 LINE",
"157 739 OFFCURVE",
"117 674 OFFCURVE",
"76 619 CURVE",
"76 606 LINE",
"155 606 LINE"
);
},
{
closed = 1;
nodes = (
"419 659 OFFCURVE",
"496 728 OFFCURVE",
"512 756 CURVE",
"512 766 LINE",
"365 766 LINE",
"347 730 OFFCURVE",
"315 682 OFFCURVE",
"270 619 CURVE",
"270 606 LINE",
"349 606 LINE"
);
}
);
width = 588;
}
);
note = hungarumlaut;
unicode = 02DD;
},
{
glyphname = tonos;
lastChange = "2018-06-23 23:49:06 +0000";
layers = (
{
anchors = (
{
name = _top;
position = "{319, 546}";
}
);
layerId = "120467F4-1FD8-4738-87D7-3EC9C6A2741E";
paths = (
{
closed = 1;
nodes = (
"317 606 LINE",
"353 664 OFFCURVE",
"383 724 OFFCURVE",
"408 784 CURVE",
"408 796 LINE",
"270 796 LINE",
"263 741 OFFCURVE",
"242 656 OFFCURVE",
"230 621 CURVE",
"230 606 LINE"
);
}
);
width = 577;
}
);
note = tonos;
unicode = 0384;
},
{
glyphname = dieresistonos;
lastChange = "2018-06-23 23:49:06 +0000";
layers = (
{
anchors = (
{
name = _top;
position = "{289, 546}";
}
);
layerId = "120467F4-1FD8-4738-87D7-3EC9C6A2741E";
paths = (
{
closed = 1;
nodes = (
"91 642 OFFCURVE",
"116 621 OFFCURVE",
"154 621 CURVE SMOOTH",
"191 621 OFFCURVE",
"218 642 OFFCURVE",
"218 686 CURVE SMOOTH",
"218 732 OFFCURVE",
"191 752 OFFCURVE",
"154 752 CURVE SMOOTH",
"116 752 OFFCURVE",
"91 732 OFFCURVE",
"91 686 CURVE SMOOTH"
);
},
{
closed = 1;
nodes = (
"358 642 OFFCURVE",
"383 621 OFFCURVE",
"422 621 CURVE SMOOTH",
"459 621 OFFCURVE",
"486 642 OFFCURVE",
"486 686 CURVE SMOOTH",
"486 732 OFFCURVE",
"459 752 OFFCURVE",
"422 752 CURVE SMOOTH",
"379 752 OFFCURVE",
"358 730 OFFCURVE",
"358 686 CURVE SMOOTH"
);
},
{
closed = 1;
nodes = (
"305 678 LINE",
"347 736 OFFCURVE",
"377 787 OFFCURVE",
"396 828 CURVE",
"396 838 LINE",
"268 838 LINE",
"263 796 OFFCURVE",
"248 723 OFFCURVE",
"238 691 CURVE",
"238 678 LINE"
);
}
);
width = 577;
}
);
note = dieresistonos;
unicode = 0385;
},
{
glyphname = Gamma;
lastChange = "2018-06-23 23:49:06 +0000";
layers = (
{
layerId = "120467F4-1FD8-4738-87D7-3EC9C6A2741E";
paths = (
{
closed = 1;
nodes = (
"90 0 LINE",
"241 0 LINE",
"241 589 LINE",
"541 589 LINE",
"541 714 LINE",
"90 714 LINE"
);
}
);
width = 561;
}
);
note = Gamma;
unicode = 0393;
},
{
glyphname = Theta;
lastChange = "2018-06-23 23:49:06 +0000";
layers = (
{
layerId = "120467F4-1FD8-4738-87D7-3EC9C6A2741E";
paths = (
{
closed = 1;
nodes = (
"271 301 LINE",
"525 301 LINE",
"525 425 LINE",
"271 425 LINE"
);
},
{
closed = 1;
nodes = (
"738 595 OFFCURVE",
"618 725 OFFCURVE",
"399 725 CURVE SMOOTH",
"180 725 OFFCURVE",
"58 597 OFFCURVE",
"58 359 CURVE SMOOTH",
"58 121 OFFCURVE",
"179 -10 OFFCURVE",
"398 -10 CURVE SMOOTH",
"617 -10 OFFCURVE",
"738 122 OFFCURVE",
"738 358 CURVE SMOOTH"
);
},
{
closed = 1;
nodes = (
"214 516 OFFCURVE",
"277 599 OFFCURVE",
"399 599 CURVE SMOOTH",
"521 599 OFFCURVE",
"582 516 OFFCURVE",
"582 358 CURVE SMOOTH",
"582 200 OFFCURVE",
"521 117 OFFCURVE",
"398 117 CURVE SMOOTH",
"277 117 OFFCURVE",
"214 200 OFFCURVE",
"214 358 CURVE SMOOTH"
);
}
);
width = 796;
}
);
note = Theta;
unicode = 0398;
},
{
glyphname = Lambda;
lastChange = "2018-06-23 23:49:06 +0000";
layers = (
{
layerId = "120467F4-1FD8-4738-87D7-3EC9C6A2741E";
paths = (
{
closed = 1;
nodes = (
"331 552 OFFCURVE",
"357 448 OFFCURVE",
"364 429 CURVE SMOOTH",
"497 0 LINE",
"650 0 LINE",
"407 714 LINE",
"242 714 LINE",
"0 0 LINE",
"153 0 LINE",
"288 428 LINE SMOOTH",
"296 455 OFFCURVE",
"317 546 OFFCURVE",
"325 587 CURVE"
);
}
);
width = 650;
}
);
note = Lambda;
unicode = 039B;
},
{
glyphname = Xi;
lastChange = "2018-06-23 23:49:06 +0000";
layers = (
{
layerId = "120467F4-1FD8-4738-87D7-3EC9C6A2741E";
paths = (
{
closed = 1;
nodes = (
"471 309 LINE",
"471 433 LINE",
"100 433 LINE",
"100 309 LINE"
);
},
{
closed = 1;
nodes = (
"511 590 LINE",
"511 714 LINE",
"60 714 LINE",
"60 590 LINE"
);
},
{
closed = 1;
nodes = (
"40 0 LINE",
"531 0 LINE",
"531 125 LINE",
"40 125 LINE"
);
}
);
width = 571;
}
);
note = Xi;
unicode = 039E;
},
{
glyphname = Pi;
lastChange = "2018-06-23 23:49:06 +0000";
layers = (
{
layerId = "120467F4-1FD8-4738-87D7-3EC9C6A2741E";
paths = (
{
closed = 1;
nodes = (
"90 714 LINE",
"90 0 LINE",
"241 0 LINE",
"241 588 LINE",
"504 588 LINE",
"504 0 LINE",
"655 0 LINE",
"655 714 LINE"
);
}
);
width = 745;
}
);
note = Pi;
unicode = 03A0;
},
{
glyphname = Sigma;
lastChange = "2018-06-23 23:49:06 +0000";
layers = (
{
layerId = "120467F4-1FD8-4738-87D7-3EC9C6A2741E";
paths = (
{
closed = 1;
nodes = (
"559 125 LINE",
"333 125 LINE SMOOTH",
"318 125 OFFCURVE",
"272 123 OFFCURVE",
"194 119 CURVE",
"427 375 LINE",
"205 595 LINE",
"262 592 OFFCURVE",
"299 590 OFFCURVE",
"316 590 CURVE SMOOTH",
"530 590 LINE",
"530 714 LINE",
"44 714 LINE",
"44 598 LINE",
"268 374 LINE",
"38 119 LINE",
"38 0 LINE",
"559 0 LINE"
);
}
);
width = 593;
}
);
note = Sigma;
unicode = 03A3;
},
{
glyphname = Phi;
lastChange = "2018-06-23 23:49:06 +0000";
layers = (
{
layerId = "120467F4-1FD8-4738-87D7-3EC9C6A2741E";
paths = (
{
closed = 1;
nodes = (
"518 518 LINE SMOOTH",
"614 518 OFFCURVE",
"673 459 OFFCURVE",
"673 371 CURVE SMOOTH",
"673 275 OFFCURVE",
"610 217 OFFCURVE",
"505 217 CURVE SMOOTH",
"498 217 LINE",
"498 518 LINE"
);
},
{
closed = 1;
nodes = (
"498 100 LINE",
"509 100 LINE SMOOTH",
"569 100 OFFCURVE",
"623 111 OFFCURVE",
"668 132 CURVE SMOOTH",
"759 175 OFFCURVE",
"815 266 OFFCURVE",
"815 370 CURVE SMOOTH",
"815 420 OFFCURVE",
"803 466 OFFCURVE",
"780 507 CURVE SMOOTH",
"733 588 OFFCURVE",
"643 636 OFFCURVE",
"524 636 CURVE SMOOTH",
"498 636 LINE",
"498 724 LINE",
"362 724 LINE",
"362 636 LINE",
"336 636 LINE SMOOTH",
"276 636 OFFCURVE",
"225 625 OFFCURVE",
"181 602 CURVE SMOOTH",
"93 556 OFFCURVE",
"45 471 OFFCURVE",
"45 370 CURVE SMOOTH",
"45 318 OFFCURVE",
"58 271 OFFCURVE",
"84 228 CURVE SMOOTH",
"137 143 OFFCURVE",
"230 100 OFFCURVE",
"351 100 CURVE SMOOTH",
"362 100 LINE",
"362 -10 LINE",
"498 -10 LINE"
);
},
{
closed = 1;
nodes = (
"355 217 LINE SMOOTH",
"248 217 OFFCURVE",
"187 277 OFFCURVE",
"187 371 CURVE SMOOTH",
"187 460 OFFCURVE",
"246 518 OFFCURVE",
"342 518 CURVE SMOOTH",
"362 518 LINE",
"362 217 LINE"
);
}
);
width = 860;
}
);
note = Phi;
unicode = 03A6;
},
{
glyphname = Psi;
lastChange = "2018-06-23 23:49:06 +0000";
layers = (
{
layerId = "120467F4-1FD8-4738-87D7-3EC9C6A2741E";
paths = (
{
closed = 1;
nodes = (
"681 714 LINE",
"681 478 LINE SMOOTH",
"681 382 OFFCURVE",
"634 335 OFFCURVE",
"521 335 CURVE SMOOTH",
"506 335 LINE",
"506 714 LINE",
"370 714 LINE",
"370 335 LINE",
"355 335 LINE SMOOTH",
"239 335 OFFCURVE",
"195 378 OFFCURVE",
"195 480 CURVE SMOOTH",
"195 714 LINE",
"53 714 LINE",
"53 478 LINE SMOOTH",
"53 297 OFFCURVE",
"146 213 OFFCURVE",
"345 213 CURVE SMOOTH",
"370 213 LINE",
"370 0 LINE",
"506 0 LINE",
"506 213 LINE",
"531 213 LINE SMOOTH",
"727 213 OFFCURVE",
"823 297 OFFCURVE",
"823 480 CURVE SMOOTH",
"823 714 LINE"
);
}
);
width = 876;
}
);
note = Psi;
unicode = 03A8;
},
{
glyphname = uni03A9;
lastChange = "2018-06-23 23:49:06 +0000";
layers = (
{
anchors = (
{
name = bottom;
position = "{393, 0}";
},
{
name = topleft;
position = "{10, 714}";
}
);
layerId = "120467F4-1FD8-4738-87D7-3EC9C6A2741E";
paths = (
{
closed = 1;
nodes = (
"510 599 OFFCURVE",
"577 524 OFFCURVE",
"577 395 CURVE SMOOTH",
"577 265 OFFCURVE",
"535 183 OFFCURVE",
"445 136 CURVE",
"445 0 LINE",
"759 0 LINE",
"759 127 LINE",
"576 127 LINE",
"677 189 OFFCURVE",
"733 296 OFFCURVE",
"733 425 CURVE SMOOTH",
"733 608 OFFCURVE",
"601 725 OFFCURVE",
"393 725 CURVE SMOOTH",
"325 725 OFFCURVE",
"265 713 OFFCURVE",
"214 688 CURVE SMOOTH",
"111 640 OFFCURVE",
"53 545 OFFCURVE",
"53 426 CURVE SMOOTH",
"53 297 OFFCURVE",
"109 188 OFFCURVE",
"208 127 CURVE",
"27 127 LINE",
"27 0 LINE",
"339 0 LINE",
"339 136 LINE",
"251 183 OFFCURVE",
"209 262 OFFCURVE",
"209 394 CURVE SMOOTH",
"209 524 OFFCURVE",
"275 599 OFFCURVE",
"393 599 CURVE SMOOTH"
);
}
);
width = 786;
}
);
note = uni03A9;
unicode = 03A9;
},
{
glyphname = alpha;
lastChange = "2018-06-23 23:49:06 +0000";
layers = (
{
anchors = (
{
name = top;
position = "{324, 546}";
}
);
layerId = "120467F4-1FD8-4738-87D7-3EC9C6A2741E";
paths = (
{
closed = 1;
nodes = (
"230 109 OFFCURVE",
"197 163 OFFCURVE",
"197 270 CURVE SMOOTH",
"197 381 OFFCURVE",
"232 436 OFFCURVE",
"302 436 CURVE SMOOTH",
"382 436 OFFCURVE",
"416 389 OFFCURVE",
"416 272 CURVE SMOOTH",
"416 266 LINE SMOOTH",
"414 149 OFFCURVE",
"381 109 OFFCURVE",
"304 109 CURVE SMOOTH"
);
},
{
closed = 1;
nodes = (
"330 -10 OFFCURVE",
"383 18 OFFCURVE",
"419 72 CURVE",
"429 72 LINE",
"451 13 OFFCURVE",
"485 -10 OFFCURVE",
"558 -10 CURVE SMOOTH",
"578 -10 OFFCURVE",
"615 -3 OFFCURVE",
"625 3 CURVE",
"625 120 LINE",
"616 117 OFFCURVE",
"606 115 OFFCURVE",
"596 115 CURVE SMOOTH",
"569 115 OFFCURVE",
"555 134 OFFCURVE",
"555 173 CURVE SMOOTH",
"555 325 LINE SMOOTH",
"555 393 OFFCURVE",
"569 483 OFFCURVE",
"590 546 CURVE",
"467 546 LINE",
"453 528 OFFCURVE",
"442 504 OFFCURVE",
"434 473 CURVE",
"427 473 LINE",
"394 528 OFFCURVE",
"347 555 OFFCURVE",
"270 555 CURVE SMOOTH",
"128 555 OFFCURVE",
"45 452 OFFCURVE",
"45 271 CURVE SMOOTH",
"45 95 OFFCURVE",
"125 -10 OFFCURVE",
"259 -10 CURVE SMOOTH"
);
}
);
width = 647;
}
);
note = alpha;
unicode = 03B1;
},
{
glyphname = beta;
lastChange = "2018-06-23 23:49:06 +0000";
layers = (
{
layerId = "120467F4-1FD8-4738-87D7-3EC9C6A2741E";
paths = (
{
closed = 1;
nodes = (
"173 765 OFFCURVE",
"78 681 OFFCURVE",
"78 535 CURVE SMOOTH",
"78 -240 LINE",
"227 -240 LINE",
"227 21 LINE",
"268 0 OFFCURVE",
"321 -10 OFFCURVE",
"386 -10 CURVE SMOOTH",
"535 -10 OFFCURVE",
"625 74 OFFCURVE",
"625 211 CURVE SMOOTH",
"625 324 OFFCURVE",
"565 386 OFFCURVE",
"443 402 CURVE",
"443 405 LINE",
"535 420 OFFCURVE",
"586 476 OFFCURVE",
"586 573 CURVE SMOOTH",
"586 694 OFFCURVE",
"492 765 OFFCURVE",
"339 765 CURVE SMOOTH"
);
},
{
closed = 1;
nodes = (
"399 649 OFFCURVE",
"437 615 OFFCURVE",
"437 555 CURVE SMOOTH",
"437 489 OFFCURVE",
"399 452 OFFCURVE",
"335 452 CURVE SMOOTH",
"309 452 LINE",
"309 334 LINE",
"344 334 LINE SMOOTH",
"427 334 OFFCURVE",
"471 296 OFFCURVE",
"471 224 CURVE SMOOTH",
"471 151 OFFCURVE",
"432 109 OFFCURVE",
"348 109 CURVE SMOOTH",
"309 109 OFFCURVE",
"258 123 OFFCURVE",
"227 143 CURVE",
"227 521 LINE SMOOTH",
"227 606 OFFCURVE",
"263 649 OFFCURVE",
"335 649 CURVE SMOOTH"
);
}
);
width = 660;
}
);
note = beta;
unicode = 03B2;
},
{
glyphname = gamma;
lastChange = "2018-06-23 23:49:06 +0000";
layers = (
{
layerId = "120467F4-1FD8-4738-87D7-3EC9C6A2741E";
paths = (
{
closed = 1;
nodes = (
"318 -167 OFFCURVE",
"337 -67 OFFCURVE",
"366 9 CURVE SMOOTH",
"568 546 LINE",
"413 546 LINE",
"333 298 LINE SMOOTH",
"313 240 OFFCURVE",
"291 150 OFFCURVE",
"288 121 CURVE",
"285 121 LINE",
"276 168 OFFCURVE",
"250 265 OFFCURVE",
"236 305 CURVE SMOOTH",
"156 546 LINE",
"1 546 LINE",
"209 6 LINE",
"180 -80 OFFCURVE",
"160 -184 OFFCURVE",
"160 -240 CURVE",
"318 -240 LINE"
);
}
);
width = 568;
}
);
note = gamma;
unicode = 03B3;
},
{
glyphname = delta;
lastChange = "2018-06-23 23:49:06 +0000";
layers = (
{
layerId = "120467F4-1FD8-4738-87D7-3EC9C6A2741E";
paths = (
{
closed = 1;
nodes = (
"106 411 OFFCURVE",
"45 333 OFFCURVE",
"45 214 CURVE SMOOTH",
"45 77 OFFCURVE",
"148 -10 OFFCURVE",
"307 -10 CURVE SMOOTH",
"479 -10 OFFCURVE",
"574 82 OFFCURVE",
"574 250 CURVE SMOOTH",
"574 354 OFFCURVE",
"520 433 OFFCURVE",
"400 494 CURVE SMOOTH",
"355 517 OFFCURVE",
"321 537 OFFCURVE",
"299 554 CURVE SMOOTH",
"276 571 OFFCURVE",
"265 588 OFFCURVE",
"265 606 CURVE SMOOTH",
"265 636 OFFCURVE",
"290 655 OFFCURVE",
"337 655 CURVE SMOOTH",
"394 655 OFFCURVE",
"449 635 OFFCURVE",
"509 606 CURVE",
"568 711 LINE",
"476 754 OFFCURVE",
"415 765 OFFCURVE",
"343 765 CURVE SMOOTH",
"204 765 OFFCURVE",
"121 709 OFFCURVE",
"121 615 CURVE SMOOTH",
"121 553 OFFCURVE",
"160 498 OFFCURVE",
"237 448 CURVE"
);
},
{
closed = 1;
nodes = (
"422 155 OFFCURVE",
"380 110 OFFCURVE",
"308 110 CURVE SMOOTH",
"240 110 OFFCURVE",
"198 154 OFFCURVE",
"198 220 CURVE SMOOTH",
"198 302 OFFCURVE",
"244 364 OFFCURVE",
"324 387 CURVE",
"393 350 OFFCURVE",
"422 301 OFFCURVE",
"422 240 CURVE SMOOTH"
);
}
);
width = 619;
}
);
note = delta;
unicode = 03B4;
},
{
glyphname = epsilon;
lastChange = "2018-06-23 23:49:06 +0000";
layers = (
{
anchors = (
{
name = top;
position = "{278, 546}";
}
);
layerId = "120467F4-1FD8-4738-87D7-3EC9C6A2741E";
paths = (
{
closed = 1;
nodes = (
"289 336 OFFCURVE",
"254 340 OFFCURVE",
"233 350 CURVE SMOOTH",
"211 358 OFFCURVE",
"200 374 OFFCURVE",
"200 395 CURVE SMOOTH",
"200 413 OFFCURVE",
"209 425 OFFCURVE",
"227 434 CURVE SMOOTH",
"245 442 OFFCURVE",
"272 446 OFFCURVE",
"309 446 CURVE SMOOTH",
"359 446 OFFCURVE",
"395 438 OFFCURVE",
"472 407 CURVE",
"518 515 LINE",
"461 540 OFFCURVE",
"380 556 OFFCURVE",
"305 556 CURVE SMOOTH",
"153 556 OFFCURVE",
"67 505 OFFCURVE",
"67 413 CURVE SMOOTH",
"67 345 OFFCURVE",
"102 303 OFFCURVE",
"171 287 CURVE",
"171 282 LINE",
"77 264 OFFCURVE",
"38 221 OFFCURVE",
"38 151 CURVE SMOOTH",
"38 44 OFFCURVE",
"132 -10 OFFCURVE",
"305 -10 CURVE SMOOTH",
"391 -10 OFFCURVE",
"461 3 OFFCURVE",
"517 28 CURVE",
"517 147 LINE",
"459 120 OFFCURVE",
"383 105 OFFCURVE",
"316 105 CURVE SMOOTH",
"229 105 OFFCURVE",
"185 125 OFFCURVE",
"185 166 CURVE SMOOTH",
"185 189 OFFCURVE",
"197 207 OFFCURVE",
"221 217 CURVE SMOOTH",
"245 228 OFFCURVE",
"281 233 OFFCURVE",
"328 233 CURVE SMOOTH",
"410 233 LINE",
"410 336 LINE",
"335 336 LINE SMOOTH"
);
}
);
width = 555;
}
);
note = epsilon;
unicode = 03B5;
},
{
glyphname = zeta;
lastChange = "2018-06-23 23:49:06 +0000";
layers = (
{
layerId = "120467F4-1FD8-4738-87D7-3EC9C6A2741E";
paths = (
{
closed = 1;
nodes = (
"493 48 OFFCURVE",
"443 87 OFFCURVE",
"335 109 CURVE SMOOTH",
"292 117 OFFCURVE",
"259 125 OFFCURVE",
"235 142 CURVE SMOOTH",
"211 159 OFFCURVE",
"198 187 OFFCURVE",
"198 235 CURVE SMOOTH",
"198 283 OFFCURVE",
"209 330 OFFCURVE",
"231 375 CURVE SMOOTH",
"274 467 OFFCURVE",
"359 562 OFFCURVE",
"490 671 CURVE",
"490 760 LINE",
"73 760 LINE",
"73 651 LINE",
"215 651 LINE SMOOTH",
"248 651 OFFCURVE",
"305 655 OFFCURVE",
"323 659 CURVE",
"123 495 OFFCURVE",
"45 364 OFFCURVE",
"45 228 CURVE SMOOTH",
"45 104 OFFCURVE",
"117 29 OFFCURVE",
"260 4 CURVE SMOOTH",
"293 -2 OFFCURVE",
"316 -9 OFFCURVE",
"329 -15 CURVE",
"342 -22 OFFCURVE",
"348 -31 OFFCURVE",
"348 -41 CURVE SMOOTH",
"348 -72 OFFCURVE",
"321 -125 OFFCURVE",
"276 -185 CURVE",
"426 -185 LINE",
"471 -122 OFFCURVE",
"493 -66 OFFCURVE",
"493 -18 CURVE SMOOTH"
);
}
);
width = 498;
}
);
note = zeta;
unicode = 03B6;
},
{
glyphname = eta;
lastChange = "2018-06-23 23:49:06 +0000";
layers = (
{
anchors = (
{
name = top;
position = "{329, 546}";
}
);
layerId = "120467F4-1FD8-4738-87D7-3EC9C6A2741E";
paths = (
{
closed = 1;
nodes = (
"582 485 OFFCURVE",
"515 556 OFFCURVE",
"388 556 CURVE SMOOTH",
"314 556 OFFCURVE",
"253 529 OFFCURVE",
"220 476 CURVE",
"212 476 LINE",
"192 546 LINE",
"78 546 LINE",
"78 0 LINE",
"227 0 LINE",
"227 257 LINE SMOOTH",
"227 386 OFFCURVE",
"262 437 OFFCURVE",
"345 437 CURVE SMOOTH",
"406 437 OFFCURVE",
"433 397 OFFCURVE",
"433 319 CURVE SMOOTH",
"433 -240 LINE",
"582 -240 LINE",
"582 356 LINE SMOOTH"
);
}
);
width = 657;
}
);
note = eta;
unicode = 03B7;
},
{
glyphname = theta;
lastChange = "2018-06-23 23:49:06 +0000";
layers = (
{
layerId = "120467F4-1FD8-4738-87D7-3EC9C6A2741E";
paths = (
{
closed = 1;
nodes = (
"573 636 OFFCURVE",
"480 771 OFFCURVE",
"308 771 CURVE SMOOTH",
"132 771 OFFCURVE",
"45 646 OFFCURVE",
"45 381 CURVE SMOOTH",
"45 127 OFFCURVE",
"136 -10 OFFCURVE",
"308 -10 CURVE SMOOTH",
"486 -10 OFFCURVE",
"573 117 OFFCURVE",
"573 381 CURVE SMOOTH"
);
},
{
closed = 1;
nodes = (
"230 98 OFFCURVE",
"199 175 OFFCURVE",
"197 328 CURVE",
"420 328 LINE",
"418 250 OFFCURVE",
"409 193 OFFCURVE",
"392 155 CURVE SMOOTH",
"374 117 OFFCURVE",
"346 98 OFFCURVE",
"308 98 CURVE SMOOTH"
);
},
{
closed = 1;
nodes = (
"383 663 OFFCURVE",
"415 589 OFFCURVE",
"420 439 CURVE",
"198 439 LINE",
"201 519 OFFCURVE",
"211 577 OFFCURVE",
"229 611 CURVE SMOOTH",
"248 646 OFFCURVE",
"274 663 OFFCURVE",
"309 663 CURVE SMOOTH"
);
}
);
width = 618;
}
);
note = theta;
unicode = 03B8;
},
{
glyphname = iota;
lastChange = "2018-06-23 23:49:06 +0000";
layers = (
{
anchors = (
{
name = top;
position = "{204, 546}";
}
);
layerId = "120467F4-1FD8-4738-87D7-3EC9C6A2741E";
paths = (
{
closed = 1;
nodes = (
"78 171 LINE SMOOTH",
"78 50 OFFCURVE",
"134 -10 OFFCURVE",
"258 -10 CURVE SMOOTH",
"308 -10 OFFCURVE",
"351 -1 OFFCURVE",
"386 15 CURVE",
"386 126 LINE",
"350 115 OFFCURVE",
"318 109 OFFCURVE",
"292 109 CURVE SMOOTH",
"253 109 OFFCURVE",
"227 128 OFFCURVE",
"227 171 CURVE SMOOTH",
"227 546 LINE",
"78 546 LINE"
);
}
);
width = 407;
}
);
note = iota;
unicode = 03B9;
},
{
glyphname = lambda;
lastChange = "2018-06-23 23:49:06 +0000";
layers = (
{
layerId = "120467F4-1FD8-4738-87D7-3EC9C6A2741E";
paths = (
{
closed = 1;
nodes = (
"259 237 LINE SMOOTH",
"269 262 OFFCURVE",
"281 299 OFFCURVE",
"296 349 CURVE",
"299 349 LINE",
"303 332 OFFCURVE",
"309 313 OFFCURVE",
"316 292 CURVE SMOOTH",
"323 270 OFFCURVE",
"345 206 OFFCURVE",
"382 101 CURVE SMOOTH",
"409 23 OFFCURVE",
"452 -10 OFFCURVE",
"524 -10 CURVE SMOOTH",
"549 -10 OFFCURVE",
"595 -3 OFFCURVE",
"610 5 CURVE",
"610 120 LINE",
"598 117 OFFCURVE",
"587 115 OFFCURVE",
"576 115 CURVE SMOOTH",
"541 115 OFFCURVE",
"518 146 OFFCURVE",
"494 214 CURVE SMOOTH",
"357 591 LINE SMOOTH",
"340 637 OFFCURVE",
"323 672 OFFCURVE",
"304 696 CURVE SMOOTH",
"267 744 OFFCURVE",
"215 766 OFFCURVE",
"140 766 CURVE SMOOTH",
"112 766 OFFCURVE",
"85 763 OFFCURVE",
"59 758 CURVE",
"59 635 LINE",
"76 639 OFFCURVE",
"93 641 OFFCURVE",
"109 641 CURVE SMOOTH",
"171 641 OFFCURVE",
"194 620 OFFCURVE",
"218 561 CURVE SMOOTH",
"235 516 LINE",
"4 0 LINE",
"158 0 LINE"
);
}
);
width = 615;
}
);
note = lambda;
unicode = 03BB;
},
{
glyphname = nu;
lastChange = "2018-06-23 23:49:06 +0000";
layers = (
{
layerId = "120467F4-1FD8-4738-87D7-3EC9C6A2741E";
paths = (
{
closed = 1;
nodes = (
"342 0 LINE",
"394 52 OFFCURVE",
"436 105 OFFCURVE",
"467 159 CURVE SMOOTH",
"529 267 OFFCURVE",
"556 379 OFFCURVE",
"556 546 CURVE",
"406 546 LINE",
"406 351 OFFCURVE",
"375 231 OFFCURVE",
"300 132 CURVE",
"296 132 LINE",
"262 243 LINE",
"156 546 LINE",
"3 546 LINE",
"208 0 LINE"
);
}
);
width = 595;
}
);
note = nu;
unicode = 03BD;
},
{
glyphname = xi;
lastChange = "2018-06-23 23:49:06 +0000";
layers = (
{
layerId = "120467F4-1FD8-4738-87D7-3EC9C6A2741E";
paths = (
{
closed = 1;
nodes = (
"45 101 OFFCURVE",
"119 29 OFFCURVE",
"260 4 CURVE SMOOTH",
"293 -2 OFFCURVE",
"316 -9 OFFCURVE",
"329 -15 CURVE",
"342 -22 OFFCURVE",
"348 -31 OFFCURVE",
"348 -41 CURVE SMOOTH",
"348 -72 OFFCURVE",
"321 -125 OFFCURVE",
"276 -185 CURVE",
"426 -185 LINE",
"471 -122 OFFCURVE",
"493 -66 OFFCURVE",
"493 -18 CURVE SMOOTH",
"493 48 OFFCURVE",
"443 87 OFFCURVE",
"335 109 CURVE SMOOTH",
"291 118 OFFCURVE",
"261 126 OFFCURVE",
"245 135 CURVE SMOOTH",
"213 152 OFFCURVE",
"198 178 OFFCURVE",
"198 224 CURVE SMOOTH",
"198 304 OFFCURVE",
"245 344 OFFCURVE",
"358 344 CURVE SMOOTH",
"440 344 LINE",
"440 447 LINE",
"359 447 LINE SMOOTH",
"263 447 OFFCURVE",
"224 471 OFFCURVE",
"224 533 CURVE SMOOTH",
"224 609 OFFCURVE",
"309 657 OFFCURVE",
"429 657 CURVE SMOOTH",
"466 657 LINE",
"466 760 LINE",
"73 760 LINE",
"73 651 LINE",
"84 651 LINE SMOOTH",
"106 651 OFFCURVE",
"150 653 OFFCURVE",
"217 657 CURVE",
"117 633 OFFCURVE",
"76 594 OFFCURVE",
"76 524 CURVE SMOOTH",
"76 458 OFFCURVE",
"112 417 OFFCURVE",
"183 400 CURVE",
"183 395 LINE",
"94 360 OFFCURVE",
"45 296 OFFCURVE",
"45 214 CURVE SMOOTH"
);
}
);
width = 498;
}
);
note = xi;
unicode = 03BE;
},
{
glyphname = pi;
lastChange = "2018-06-23 23:49:06 +0000";
layers = (
{
layerId = "120467F4-1FD8-4738-87D7-3EC9C6A2741E";
paths = (
{
closed = 1;
nodes = (
"609 107 OFFCURVE",
"589 123 OFFCURVE",
"589 156 CURVE SMOOTH",
"589 432 LINE",
"704 432 LINE",
"704 546 LINE",
"99 546 LINE",
"12 496 LINE",
"12 432 LINE",
"126 432 LINE",
"126 0 LINE",
"275 0 LINE",
"275 432 LINE",
"440 432 LINE",
"440 150 LINE SMOOTH",
"440 44 OFFCURVE",
"492 -10 OFFCURVE",
"590 -10 CURVE SMOOTH",
"625 -10 OFFCURVE",
"671 1 OFFCURVE",
"698 17 CURVE",
"698 124 LINE",
"678 113 OFFCURVE",
"657 107 OFFCURVE",
"635 107 CURVE SMOOTH"
);
}
);
width = 739;
}
);
note = pi;
unicode = 03C0;
},
{
glyphname = rho;
lastChange = "2018-06-23 23:49:06 +0000";
layers = (
{
layerId = "120467F4-1FD8-4738-87D7-3EC9C6A2741E";
paths = (
{
closed = 1;
nodes = (
"573 330 OFFCURVE",
"563 380 OFFCURVE",
"542 423 CURVE SMOOTH",
"499 509 OFFCURVE",
"420 556 OFFCURVE",
"319 556 CURVE SMOOTH",
"153 556 OFFCURVE",
"59 453 OFFCURVE",
"59 274 CURVE SMOOTH",
"59 -240 LINE",
"209 -240 LINE",
"209 -103 LINE SMOOTH",
"209 -72 OFFCURVE",
"207 -28 OFFCURVE",
"201 28 CURVE",
"210 28 LINE",
"251 3 OFFCURVE",
"297 -10 OFFCURVE",
"347 -10 CURVE SMOOTH",
"489 -10 OFFCURVE",
"573 95 OFFCURVE",
"573 273 CURVE SMOOTH"
);
},
{
closed = 1;
nodes = (
"392 436 OFFCURVE",
"420 388 OFFCURVE",
"420 273 CURVE SMOOTH",
"420 158 OFFCURVE",
"390 110 OFFCURVE",
"316 110 CURVE SMOOTH",
"277 110 OFFCURVE",
"237 124 OFFCURVE",
"209 152 CURVE",
"209 281 LINE SMOOTH",
"209 388 OFFCURVE",
"242 436 OFFCURVE",
"316 436 CURVE SMOOTH"
);
}
);
width = 618;
}
);
note = rho;
unicode = 03C1;
},
{
glyphname = sigma1;
lastChange = "2018-06-23 23:49:06 +0000";
layers = (
{
layerId = "120467F4-1FD8-4738-87D7-3EC9C6A2741E";
paths = (
{
closed = 1;
nodes = (
"45 119 OFFCURVE",
"119 42 OFFCURVE",
"260 15 CURVE SMOOTH",
"292 9 OFFCURVE",
"315 2 OFFCURVE",
"328 -5 CURVE SMOOTH",
"341 -12 OFFCURVE",
"348 -21 OFFCURVE",
"348 -33 CURVE SMOOTH",
"348 -65 OFFCURVE",
"324 -115 OFFCURVE",
"276 -185 CURVE",
"426 -185 LINE",
"471 -119 OFFCURVE",
"493 -61 OFFCURVE",
"493 -11 CURVE SMOOTH",
"493 58 OFFCURVE",
"444 98 OFFCURVE",
"335 121 CURVE SMOOTH",
"292 130 OFFCURVE",
"262 140 OFFCURVE",
"246 149 CURVE SMOOTH",
"213 168 OFFCURVE",
"197 197 OFFCURVE",
"197 245 CURVE SMOOTH",
"197 372 OFFCURVE",
"232 436 OFFCURVE",
"314 436 CURVE SMOOTH",
"348 436 OFFCURVE",
"393 425 OFFCURVE",
"449 404 CURVE",
"492 517 LINE",
"436 543 OFFCURVE",
"378 556 OFFCURVE",
"318 556 CURVE SMOOTH",
"129 556 OFFCURVE",
"45 455 OFFCURVE",
"45 241 CURVE SMOOTH"
);
}
);
width = 498;
}
);
note = sigma1;
unicode = 03C2;
},
{
glyphname = sigma;
lastChange = "2018-06-23 23:49:06 +0000";
layers = (
{
layerId = "120467F4-1FD8-4738-87D7-3EC9C6A2741E";
paths = (
{
closed = 1;
nodes = (
"582 308 OFFCURVE",
"553 376 OFFCURVE",
"494 438 CURVE",
"633 438 LINE",
"633 547 LINE",
"353 547 LINE SMOOTH",
"147 547 OFFCURVE",
"45 453 OFFCURVE",
"45 266 CURVE SMOOTH",
"45 94 OFFCURVE",
"143 -10 OFFCURVE",
"312 -10 CURVE SMOOTH",
"366 -10 OFFCURVE",
"414 0 OFFCURVE",
"455 20 CURVE SMOOTH",
"537 60 OFFCURVE",
"582 137 OFFCURVE",
"582 232 CURVE SMOOTH"
);
},
{
closed = 1;
nodes = (
"198 389 OFFCURVE",
"237 438 OFFCURVE",
"343 438 CURVE SMOOTH",
"367 438 LINE",
"412 384 OFFCURVE",
"429 327 OFFCURVE",
"429 255 CURVE SMOOTH",
"429 161 OFFCURVE",
"390 110 OFFCURVE",
"314 110 CURVE SMOOTH",
"237 110 OFFCURVE",
"198 165 OFFCURVE",
"198 266 CURVE SMOOTH"
);
}
);
width = 653;
}
);
note = sigma;
unicode = 03C3;
},
{
glyphname = tau;
lastChange = "2018-06-23 23:49:06 +0000";
layers = (
{
layerId = "120467F4-1FD8-4738-87D7-3EC9C6A2741E";
paths = (
{
closed = 1;
nodes = (
"500 546 LINE",
"106 546 LINE",
"20 496 LINE",
"20 434 LINE",
"157 434 LINE",
"157 171 LINE SMOOTH",
"157 50 OFFCURVE",
"213 -10 OFFCURVE",
"337 -10 CURVE SMOOTH",
"387 -10 OFFCURVE",
"430 -1 OFFCURVE",
"465 15 CURVE",
"465 126 LINE",
"428 115 OFFCURVE",
"397 109 OFFCURVE",
"371 109 CURVE SMOOTH",
"332 109 OFFCURVE",
"306 128 OFFCURVE",
"306 171 CURVE SMOOTH",
"306 434 LINE",
"500 434 LINE"
);
}
);
width = 538;
}
);
note = tau;
unicode = 03C4;
},
{
glyphname = upsilon;
lastChange = "2018-06-23 23:49:06 +0000";
layers = (
{
anchors = (
{
name = top;
position = "{323, 546}";
}
);
layerId = "120467F4-1FD8-4738-87D7-3EC9C6A2741E";
paths = (
{
closed = 1;
nodes = (
"504 -9 OFFCURVE",
"592 91 OFFCURVE",
"592 296 CURVE SMOOTH",
"592 373 OFFCURVE",
"584 444 OFFCURVE",
"558 546 CURVE",
"408 546 LINE",
"436 427 OFFCURVE",
"443 370 OFFCURVE",
"443 300 CURVE SMOOTH",
"443 167 OFFCURVE",
"408 110 OFFCURVE",
"326 110 CURVE SMOOTH",
"252 110 OFFCURVE",
"219 149 OFFCURVE",
"219 244 CURVE SMOOTH",
"219 546 LINE",
"70 546 LINE",
"70 249 LINE SMOOTH",
"70 74 OFFCURVE",
"152 -9 OFFCURVE",
"321 -9 CURVE SMOOTH"
);
}
);
width = 645;
}
);
note = upsilon;
unicode = 03C5;
},
{
glyphname = phi;
lastChange = "2018-06-23 23:49:06 +0000";
layers = (
{
layerId = "120467F4-1FD8-4738-87D7-3EC9C6A2741E";
paths = (
{
closed = 1;
nodes = (
"604 187 OFFCURVE",
"544 115 OFFCURVE",
"455 107 CURVE",
"455 360 LINE SMOOTH",
"455 423 OFFCURVE",
"477 446 OFFCURVE",
"514 446 CURVE SMOOTH",
"573 446 OFFCURVE",
"604 390 OFFCURVE",
"604 288 CURVE SMOOTH"
);
},
{
closed = 1;
nodes = (
"455 -6 LINE",
"513 0 OFFCURVE",
"564 15 OFFCURVE",
"608 41 CURVE SMOOTH",
"696 91 OFFCURVE",
"747 178 OFFCURVE",
"747 289 CURVE SMOOTH",
"747 453 OFFCURVE",
"659 554 OFFCURVE",
"512 554 CURVE SMOOTH",
"391 554 OFFCURVE",
"317 479 OFFCURVE",
"317 359 CURVE SMOOTH",
"317 107 LINE",
"229 124 OFFCURVE",
"185 178 OFFCURVE",
"185 268 CURVE SMOOTH",
"185 347 OFFCURVE",
"207 408 OFFCURVE",
"265 488 CURVE",
"157 558 LINE",
"79 463 OFFCURVE",
"45 372 OFFCURVE",
"45 271 CURVE SMOOTH",
"45 111 OFFCURVE",
"138 14 OFFCURVE",
"317 -6 CURVE",
"317 -240 LINE",
"455 -240 LINE"
);
}
);
width = 792;
}
);
note = phi;
unicode = 03C6;
},
{
glyphname = chi;
lastChange = "2018-06-23 23:49:06 +0000";
layers = (
{
layerId = "120467F4-1FD8-4738-87D7-3EC9C6A2741E";
paths = (
{
closed = 1;
nodes = (
"93 553 OFFCURVE",
"63 548 OFFCURVE",
"26 538 CURVE",
"26 419 LINE",
"45 425 OFFCURVE",
"64 428 OFFCURVE",
"82 428 CURVE SMOOTH",
"119 428 OFFCURVE",
"140 409 OFFCURVE",
"156 364 CURVE SMOOTH",
"221 192 LINE",
"-24 -240 LINE",
"135 -240 LINE",
"288 62 LINE",
"339 -97 LINE SMOOTH",
"373 -200 OFFCURVE",
"421 -240 OFFCURVE",
"503 -240 CURVE SMOOTH",
"539 -240 OFFCURVE",
"570 -235 OFFCURVE",
"598 -225 CURVE",
"598 -109 LINE",
"581 -113 OFFCURVE",
"565 -115 OFFCURVE",
"549 -115 CURVE SMOOTH",
"509 -115 OFFCURVE",
"489 -100 OFFCURVE",
"471 -58 CURVE SMOOTH",
"376 174 LINE",
"598 546 LINE",
"448 546 LINE",
"312 305 LINE",
"276 413 LINE SMOOTH",
"263 453 OFFCURVE",
"250 482 OFFCURVE",
"236 501 CURVE SMOOTH",
"210 538 OFFCURVE",
"176 553 OFFCURVE",
"117 553 CURVE SMOOTH"
);
}
);
width = 592;
}
);
note = chi;
unicode = 03C7;
},
{
glyphname = psi;
lastChange = "2018-06-23 23:49:06 +0000";
layers = (
{
layerId = "120467F4-1FD8-4738-87D7-3EC9C6A2741E";
paths = (
{
closed = 1;
nodes = (
"354 105 LINE",
"248 113 OFFCURVE",
"212 154 OFFCURVE",
"212 267 CURVE SMOOTH",
"212 546 LINE",
"70 546 LINE",
"70 271 LINE SMOOTH",
"70 92 OFFCURVE",
"165 -3 OFFCURVE",
"354 -9 CURVE",
"354 -240 LINE",
"492 -240 LINE",
"492 -9 LINE",
"686 2 OFFCURVE",
"784 103 OFFCURVE",
"784 281 CURVE SMOOTH",
"784 366 OFFCURVE",
"771 455 OFFCURVE",
"746 546 CURVE",
"608 546 LINE",
"634 443 OFFCURVE",
"647 355 OFFCURVE",
"647 282 CURVE SMOOTH",
"647 166 OFFCURVE",
"607 117 OFFCURVE",
"492 106 CURVE",
"492 759 LINE",
"354 759 LINE"
);
}
);
width = 837;
}
);
note = psi;
unicode = 03C8;
},
{
glyphname = omega;
lastChange = "2018-06-23 23:49:06 +0000";
layers = (
{
anchors = (
{
name = bottom;
position = "{432, 0}";
},
{
name = top;
position = "{432, 546}";
}
);
layerId = "120467F4-1FD8-4738-87D7-3EC9C6A2741E";
paths = (
{
closed = 1;
nodes = (
"729 -10 OFFCURVE",
"810 94 OFFCURVE",
"810 265 CURVE SMOOTH",
"810 366 OFFCURVE",
"796 440 OFFCURVE",
"755 546 CURVE",
"612 546 LINE",
"652 460 OFFCURVE",
"673 368 OFFCURVE",
"673 268 CURVE SMOOTH",
"673 162 OFFCURVE",
"639 106 OFFCURVE",
"578 106 CURVE SMOOTH",
"523 106 OFFCURVE",
"500 140 OFFCURVE",
"500 228 CURVE SMOOTH",
"500 372 LINE",
"363 372 LINE",
"363 228 LINE SMOOTH",
"363 141 OFFCURVE",
"339 106 OFFCURVE",
"285 106 CURVE SMOOTH",
"223 106 OFFCURVE",
"190 163 OFFCURVE",
"190 270 CURVE SMOOTH",
"190 369 OFFCURVE",
"210 460 OFFCURVE",
"251 546 CURVE",
"108 546 LINE",
"66 441 OFFCURVE",
"53 365 OFFCURVE",
"53 265 CURVE SMOOTH",
"53 95 OFFCURVE",
"134 -10 OFFCURVE",
"273 -10 CURVE SMOOTH",
"351 -10 OFFCURVE",
"399 21 OFFCURVE",
"429 93 CURVE",
"434 93 LINE",
"461 24 OFFCURVE",
"510 -10 OFFCURVE",
"590 -10 CURVE SMOOTH"
);
}
);
width = 863;
}
);
note = omega;
unicode = 03C9;
},
{
glyphname = afii10051;
lastChange = "2018-06-23 23:49:06 +0000";
layers = (
{
layerId = "120467F4-1FD8-4738-87D7-3EC9C6A2741E";
paths = (
{
closed = 1;
nodes = (
"685 -9 OFFCURVE",
"752 63 OFFCURVE",
"752 199 CURVE SMOOTH",
"752 262 LINE SMOOTH",
"752 385 OFFCURVE",
"668 455 OFFCURVE",
"520 455 CURVE SMOOTH",
"350 455 LINE",
"350 588 LINE",
"564 588 LINE",
"564 714 LINE",
"20 714 LINE",
"20 588 LINE",
"199 588 LINE",
"199 0 LINE",
"350 0 LINE",
"350 329 LINE",
"514 329 LINE SMOOTH",
"576 329 OFFCURVE",
"601 309 OFFCURVE",
"601 251 CURVE SMOOTH",
"601 189 LINE SMOOTH",
"601 171 OFFCURVE",
"599 157 OFFCURVE",
"595 146 CURVE SMOOTH",
"587 124 OFFCURVE",
"573 114 OFFCURVE",
"538 114 CURVE SMOOTH",
"514 114 OFFCURVE",
"486 121 OFFCURVE",
"454 135 CURVE",
"454 10 LINE",
"482 -2 OFFCURVE",
"516 -9 OFFCURVE",
"553 -9 CURVE SMOOTH"
);
}
);
width = 805;
}
);
note = afii10051;
unicode = 0402;
},
{
glyphname = afii10053;
lastChange = "2018-06-23 23:49:06 +0000";
layers = (
{
layerId = "120467F4-1FD8-4738-87D7-3EC9C6A2741E";
paths = (
{
closed = 1;
nodes = (
"455 598 OFFCURVE",
"499 588 OFFCURVE",
"545 569 CURVE SMOOTH",
"588 551 LINE",
"642 674 LINE",
"572 705 OFFCURVE",
"502 724 OFFCURVE",
"418 724 CURVE SMOOTH",
"344 724 OFFCURVE",
"281 709 OFFCURVE",
"227 679 CURVE SMOOTH",
"118 619 OFFCURVE",
"58 504 OFFCURVE",
"58 356 CURVE SMOOTH",
"58 120 OFFCURVE",
"180 -10 OFFCURVE",
"404 -10 CURVE SMOOTH",
"483 -10 OFFCURVE",
"546 1 OFFCURVE",
"615 27 CURVE",
"615 154 LINE",
"536 129 OFFCURVE",
"469 116 OFFCURVE",
"413 116 CURVE SMOOTH",
"291 116 OFFCURVE",
"225 182 OFFCURVE",
"217 298 CURVE",
"527 298 LINE",
"527 422 LINE",
"218 422 LINE",
"226 533 OFFCURVE",
"300 598 OFFCURVE",
"411 598 CURVE SMOOTH"
);
}
);
width = 677;
}
);
note = afii10053;
unicode = 0404;
},
{
glyphname = afii10058;
lastChange = "2018-06-23 23:49:06 +0000";
layers = (
{
layerId = "120467F4-1FD8-4738-87D7-3EC9C6A2741E";
paths = (
{
closed = 1;
nodes = (
"204 714 LINE",
"183 540 OFFCURVE",
"148 313 OFFCURVE",
"131 227 CURVE SMOOTH",
"122 184 OFFCURVE",
"112 155 OFFCURVE",
"102 139 CURVE SMOOTH",
"92 123 OFFCURVE",
"78 115 OFFCURVE",
"61 115 CURVE SMOOTH",
"44 115 OFFCURVE",
"27 119 OFFCURVE",
"8 125 CURVE",
"8 1 LINE",
"29 -6 OFFCURVE",
"53 -10 OFFCURVE",
"80 -10 CURVE SMOOTH",
"181 -11 OFFCURVE",
"237 38 OFFCURVE",
"268 172 CURVE SMOOTH",
"283 239 OFFCURVE",
"301 356 OFFCURVE",
"321 522 CURVE SMOOTH",
"329 588 LINE",
"471 588 LINE",
"471 0 LINE",
"670 0 LINE SMOOTH",
"857 0 OFFCURVE",
"954 75 OFFCURVE",
"954 223 CURVE SMOOTH",
"954 361 OFFCURVE",
"854 440 OFFCURVE",
"678 440 CURVE SMOOTH",
"622 440 LINE",
"622 714 LINE"
);
},
{
closed = 1;
nodes = (
"657 316 LINE SMOOTH",
"763 316 OFFCURVE",
"801 288 OFFCURVE",
"801 223 CURVE SMOOTH",
"801 157 OFFCURVE",
"760 124 OFFCURVE",
"668 124 CURVE SMOOTH",
"622 124 LINE",
"622 316 LINE"
);
}
);
width = 999;
}
);
note = afii10058;
unicode = 0409;
},
{
glyphname = afii10059;
lastChange = "2018-06-23 23:49:06 +0000";
layers = (
{
layerId = "120467F4-1FD8-4738-87D7-3EC9C6A2741E";
paths = (
{
closed = 1;
nodes = (
"957 361 OFFCURVE",
"857 440 OFFCURVE",
"681 440 CURVE SMOOTH",
"625 440 LINE",
"625 714 LINE",
"474 714 LINE",
"474 434 LINE",
"241 434 LINE",
"241 714 LINE",
"90 714 LINE",
"90 0 LINE",
"241 0 LINE",
"241 308 LINE",
"474 308 LINE",
"474 0 LINE",
"673 0 LINE SMOOTH",
"860 0 OFFCURVE",
"957 75 OFFCURVE",
"957 223 CURVE SMOOTH"
);
},
{
closed = 1;
nodes = (
"660 316 LINE SMOOTH",
"764 316 OFFCURVE",
"804 289 OFFCURVE",
"804 223 CURVE SMOOTH",
"804 157 OFFCURVE",
"763 124 OFFCURVE",
"671 124 CURVE SMOOTH",
"625 124 LINE",
"625 316 LINE"
);
}
);
width = 1002;
}
);
note = afii10059;
unicode = 040A;
},
{
glyphname = afii10060;
lastChange = "2018-06-23 23:49:06 +0000";
layers = (
{
layerId = "120467F4-1FD8-4738-87D7-3EC9C6A2741E";
paths = (
{
closed = 1;
nodes = (
"752 262 LINE SMOOTH",
"752 383 OFFCURVE",
"673 455 OFFCURVE",
"538 455 CURVE SMOOTH",
"350 455 LINE",
"350 588 LINE",
"564 588 LINE",
"564 714 LINE",
"20 714 LINE",
"20 588 LINE",
"199 588 LINE",
"199 0 LINE",
"350 0 LINE",
"350 329 LINE",
"528 329 LINE SMOOTH",
"580 329 OFFCURVE",
"601 309 OFFCURVE",
"601 251 CURVE SMOOTH",
"601 0 LINE",
"752 0 LINE"
);
}
);
width = 805;
}
);
note = afii10060;
unicode = 040B;
},
{
glyphname = afii10145;
lastChange = "2018-06-23 23:49:06 +0000";
layers = (
{
layerId = "120467F4-1FD8-4738-87D7-3EC9C6A2741E";
paths = (
{
closed = 1;
nodes = (
"504 714 LINE",
"504 126 LINE",
"241 126 LINE",
"241 714 LINE",
"90 714 LINE",
"90 0 LINE",
"300 0 LINE",
"300 -208 LINE",
"446 -208 LINE",
"446 0 LINE",
"655 0 LINE",
"655 714 LINE"
);
}
);
width = 745;
}
);
note = afii10145;
unicode = 040F;
},
{
glyphname = afii10018;
lastChange = "2018-06-23 23:49:06 +0000";
layers = (
{
layerId = "120467F4-1FD8-4738-87D7-3EC9C6A2741E";
paths = (
{
closed = 1;
nodes = (
"541 589 LINE",
"541 714 LINE",
"90 714 LINE",
"90 0 LINE",
"298 0 LINE SMOOTH",
"495 0 OFFCURVE",
"593 74 OFFCURVE",
"593 223 CURVE SMOOTH",
"593 361 OFFCURVE",
"487 440 OFFCURVE",
"301 440 CURVE SMOOTH",
"241 440 LINE",
"241 589 LINE"
);
},
{
closed = 1;
nodes = (
"280 316 LINE SMOOTH",
"397 316 OFFCURVE",
"440 289 OFFCURVE",
"440 223 CURVE SMOOTH",
"440 157 OFFCURVE",
"394 124 OFFCURVE",
"292 124 CURVE SMOOTH",
"241 124 LINE",
"241 316 LINE"
);
}
);
width = 638;
}
);
note = afii10018;
unicode = 0411;
},
{
glyphname = afii10021;
lastChange = "2018-06-23 23:49:06 +0000";
layers = (
{
layerId = "120467F4-1FD8-4738-87D7-3EC9C6A2741E";
paths = (
{
closed = 1;
nodes = (
"151 -208 LINE",
"151 0 LINE",
"598 0 LINE",
"598 -208 LINE",
"744 -208 LINE",
"744 126 LINE",
"649 126 LINE",
"649 714 LINE",
"233 714 LINE",
"206 496 OFFCURVE",
"154 315 OFFCURVE",
"60 126 CURVE",
"5 126 LINE",
"5 -208 LINE"
);
},
{
closed = 1;
nodes = (
"498 126 LINE",
"219 126 LINE",
"280 259 OFFCURVE",
"332 439 OFFCURVE",
"353 588 CURVE",
"498 588 LINE"
);
}
);
width = 764;
}
);
note = afii10021;
unicode = 0414;
},
{
glyphname = afii10024;
lastChange = "2018-06-23 23:49:06 +0000";
layers = (
{
anchors = (
{
name = bottomright;
position = "{933, 0}";
},
{
name = top;
position = "{472, 714}";
}
);
layerId = "120467F4-1FD8-4738-87D7-3EC9C6A2741E";
paths = (
{
closed = 1;
nodes = (
"162 0 LINE",
"401 362 LINE",
"401 0 LINE",
"542 0 LINE",
"542 362 LINE",
"781 0 LINE",
"943 0 LINE",
"689 371 LINE",
"929 714 LINE",
"773 714 LINE",
"542 368 LINE",
"542 714 LINE",
"401 714 LINE",
"401 368 LINE",
"170 714 LINE",
"14 714 LINE",
"254 371 LINE",
"0 0 LINE"
);
}
);
width = 943;
}
);
note = afii10024;
unicode = 0416;
},
{
glyphname = afii10025;
lastChange = "2018-06-23 23:49:06 +0000";
layers = (
{
anchors = (
{
name = bottom;
position = "{324, 0}";
},
{
name = top;
position = "{324, 714}";
}
);
layerId = "120467F4-1FD8-4738-87D7-3EC9C6A2741E";
paths = (
{
closed = 1;
nodes = (
"583 653 OFFCURVE",
"483 724 OFFCURVE",
"327 724 CURVE SMOOTH",
"216 724 OFFCURVE",
"127 700 OFFCURVE",
"46 646 CURVE",
"112 545 LINE",
"174 583 OFFCURVE",
"239 603 OFFCURVE",
"306 603 CURVE SMOOTH",
"393 603 OFFCURVE",
"436 572 OFFCURVE",
"436 523 CURVE SMOOTH",
"436 490 OFFCURVE",
"419 466 OFFCURVE",
"384 452 CURVE SMOOTH",
"350 438 OFFCURVE",
"295 430 OFFCURVE",
"219 430 CURVE SMOOTH",
"159 430 LINE",
"159 312 LINE",
"226 312 LINE SMOOTH",
"302 312 OFFCURVE",
"359 304 OFFCURVE",
"397 287 CURVE SMOOTH",
"436 270 OFFCURVE",
"455 246 OFFCURVE",
"455 214 CURVE SMOOTH",
"455 144 OFFCURVE",
"395 109 OFFCURVE",
"275 109 CURVE SMOOTH",
"203 109 OFFCURVE",
"113 126 OFFCURVE",
"52 156 CURVE",
"52 29 LINE",
"115 3 OFFCURVE",
"199 -10 OFFCURVE",
"304 -10 CURVE SMOOTH",
"492 -10 OFFCURVE",
"605 72 OFFCURVE",
"605 203 CURVE SMOOTH",
"605 298 OFFCURVE",
"533 360 OFFCURVE",
"402 373 CURVE",
"402 376 LINE",
"513 392 OFFCURVE",
"583 455 OFFCURVE",
"583 547 CURVE SMOOTH"
);
}
);
width = 648;
}
);
note = afii10025;
unicode = 0417;
},
{
glyphname = afii10026;
lastChange = "2018-06-23 23:49:06 +0000";
layers = (
{
anchors = (
{
name = bottomright;
position = "{813, 0}";
},
{
name = top;
position = "{412, 714}";
}
);
layerId = "120467F4-1FD8-4738-87D7-3EC9C6A2741E";
paths = (
{
closed = 1;
nodes = (
"272 0 LINE",
"603 547 LINE",
"607 547 LINE",
"601 457 OFFCURVE",
"598 389 OFFCURVE",
"598 343 CURVE SMOOTH",
"598 0 LINE",
"733 0 LINE",
"733 714 LINE",
"552 714 LINE",
"222 172 LINE",
"219 172 LINE",
"224 277 LINE",
"226 369 LINE",
"226 714 LINE",
"90 714 LINE",
"90 0 LINE"
);
}
);
width = 823;
}
);
note = afii10026;
unicode = 0418;
},
{
glyphname = afii10028;
lastChange = "2018-06-23 23:49:06 +0000";
layers = (
{
anchors = (
{
name = bottomright;
position = "{662, 0}";
},
{
name = top;
position = "{336, 714}";
}
);
layerId = "120467F4-1FD8-4738-87D7-3EC9C6A2741E";
paths = (
{
closed = 1;
nodes = (
"658 714 LINE",
"497 714 LINE",
"241 368 LINE",
"241 714 LINE",
"90 714 LINE",
"90 0 LINE",
"241 0 LINE",
"241 362 LINE",
"500 0 LINE",
"672 0 LINE",
"398 371 LINE"
);
}
);
width = 672;
}
);
note = afii10028;
unicode = 041A;
},
{
glyphname = afii10029;
lastChange = "2018-06-23 23:49:06 +0000";
layers = (
{
layerId = "120467F4-1FD8-4738-87D7-3EC9C6A2741E";
paths = (
{
closed = 1;
nodes = (
"204 714 LINE",
"183 540 OFFCURVE",
"148 313 OFFCURVE",
"131 227 CURVE SMOOTH",
"122 184 OFFCURVE",
"112 155 OFFCURVE",
"102 139 CURVE SMOOTH",
"92 123 OFFCURVE",
"78 115 OFFCURVE",
"61 115 CURVE SMOOTH",
"44 115 OFFCURVE",
"27 119 OFFCURVE",
"8 125 CURVE",
"8 1 LINE",
"29 -6 OFFCURVE",
"53 -10 OFFCURVE",
"80 -10 CURVE SMOOTH",
"181 -11 OFFCURVE",
"237 38 OFFCURVE",
"268 172 CURVE SMOOTH",
"283 239 OFFCURVE",
"301 356 OFFCURVE",
"321 522 CURVE SMOOTH",
"329 588 LINE",
"504 588 LINE",
"504 0 LINE",
"655 0 LINE",
"655 714 LINE"
);
}
);
width = 745;
}
);
note = afii10029;
unicode = 041B;
},
{
glyphname = afii10037;
lastChange = "2018-06-23 23:49:06 +0000";
layers = (
{
anchors = (
{
name = top;
position = "{327, 714}";
}
);
layerId = "120467F4-1FD8-4738-87D7-3EC9C6A2741E";
paths = (
{
closed = 1;
nodes = (
"350 340 LINE",
"341 316 LINE",
"336 316 LINE",
"160 714 LINE",
"0 714 LINE",
"247 201 LINE",
"225 139 OFFCURVE",
"194 117 OFFCURVE",
"140 117 CURVE SMOOTH",
"98 117 OFFCURVE",
"62 123 OFFCURVE",
"33 135 CURVE",
"33 5 LINE",
"68 -5 OFFCURVE",
"106 -10 OFFCURVE",
"147 -10 CURVE SMOOTH",
"194 -10 OFFCURVE",
"235 -3 OFFCURVE",
"268 11 CURVE SMOOTH",
"334 38 OFFCURVE",
"377 82 OFFCURVE",
"432 209 CURVE SMOOTH",
"653 714 LINE",
"497 714 LINE"
);
}
);
width = 653;
}
);
note = afii10037;
unicode = 0423;
},
{
glyphname = afii10040;
lastChange = "2018-06-23 23:49:06 +0000";
layers = (
{
layerId = "120467F4-1FD8-4738-87D7-3EC9C6A2741E";
paths = (
{
closed = 1;
nodes = (
"504 714 LINE",
"504 126 LINE",
"241 126 LINE",
"241 714 LINE",
"90 714 LINE",
"90 0 LINE",
"615 0 LINE",
"615 -208 LINE",
"761 -208 LINE",
"761 120 LINE",
"655 120 LINE",
"655 714 LINE"
);
}
);
width = 781;
}
);
note = afii10040;
unicode = 0426;
},
{
glyphname = afii10041;
lastChange = "2018-06-23 23:49:06 +0000";
layers = (
{
anchors = (
{
name = bottomright;
position = "{718, 0}";
},
{
name = top;
position = "{364, 714}";
}
);
layerId = "120467F4-1FD8-4738-87D7-3EC9C6A2741E";
paths = (
{
closed = 1;
nodes = (
"487 714 LINE",
"487 394 LINE",
"409 367 OFFCURVE",
"362 358 OFFCURVE",
"309 358 CURVE SMOOTH",
"233 358 OFFCURVE",
"204 393 OFFCURVE",
"204 462 CURVE SMOOTH",
"204 714 LINE",
"53 714 LINE",
"53 419 LINE SMOOTH",
"53 300 OFFCURVE",
"130 232 OFFCURVE",
"266 232 CURVE SMOOTH",
"327 232 OFFCURVE",
"387 242 OFFCURVE",
"487 276 CURVE",
"487 0 LINE",
"638 0 LINE",
"638 714 LINE"
);
}
);
width = 728;
}
);
note = afii10041;
unicode = 0427;
},
{
glyphname = afii10042;
lastChange = "2018-06-23 23:49:06 +0000";
layers = (
{
layerId = "120467F4-1FD8-4738-87D7-3EC9C6A2741E";
paths = (
{
closed = 1;
nodes = (
"463 714 LINE",
"463 126 LINE",
"241 126 LINE",
"241 714 LINE",
"90 714 LINE",
"90 0 LINE",
"988 0 LINE",
"988 714 LINE",
"837 714 LINE",
"837 126 LINE",
"615 126 LINE",
"615 714 LINE"
);
}
);
width = 1078;
}
);
note = afii10042;
unicode = 0428;
},
{
glyphname = afii10043;
lastChange = "2018-06-23 23:49:06 +0000";
layers = (
{
layerId = "120467F4-1FD8-4738-87D7-3EC9C6A2741E";
paths = (
{
closed = 1;
nodes = (
"463 714 LINE",
"463 126 LINE",
"241 126 LINE",
"241 714 LINE",
"90 714 LINE",
"90 0 LINE",
"948 0 LINE",
"948 -208 LINE",
"1094 -208 LINE",
"1094 120 LINE",
"988 120 LINE",
"988 714 LINE",
"837 714 LINE",
"837 126 LINE",
"615 126 LINE",
"615 714 LINE"
);
}
);
width = 1114;
}
);
note = afii10043;
unicode = 0429;
},
{
glyphname = afii10044;
lastChange = "2018-06-23 23:49:06 +0000";
layers = (
{
anchors = (
{
name = top;
position = "{364, 714}";
}
);
layerId = "120467F4-1FD8-4738-87D7-3EC9C6A2741E";
paths = (
{
closed = 1;
nodes = (
"682 361 OFFCURVE",
"576 440 OFFCURVE",
"390 440 CURVE SMOOTH",
"330 440 LINE",
"330 714 LINE",
"0 714 LINE",
"0 588 LINE",
"179 588 LINE",
"179 0 LINE",
"387 0 LINE SMOOTH",
"582 0 OFFCURVE",
"682 75 OFFCURVE",
"682 223 CURVE SMOOTH"
);
},
{
closed = 1;
nodes = (
"369 316 LINE SMOOTH",
"486 316 OFFCURVE",
"529 289 OFFCURVE",
"529 223 CURVE SMOOTH",
"529 157 OFFCURVE",
"483 124 OFFCURVE",
"381 124 CURVE SMOOTH",
"330 124 LINE",
"330 316 LINE"
);
}
);
width = 727;
}
);
note = afii10044;
unicode = 042A;
},
{
glyphname = afii10045;
lastChange = "2018-06-23 23:49:06 +0000";
layers = (
{
anchors = (
{
name = top;
position = "{453, 714}";
}
);
layerId = "120467F4-1FD8-4738-87D7-3EC9C6A2741E";
paths = (
{
closed = 1;
nodes = (
"578 360 OFFCURVE",
"473 440 OFFCURVE",
"290 440 CURVE SMOOTH",
"241 440 LINE",
"241 714 LINE",
"90 714 LINE",
"90 0 LINE",
"285 0 LINE SMOOTH",
"479 0 OFFCURVE",
"578 75 OFFCURVE",
"578 223 CURVE SMOOTH"
);
},
{
closed = 1;
nodes = (
"274 316 LINE SMOOTH",
"386 316 OFFCURVE",
"425 290 OFFCURVE",
"425 223 CURVE SMOOTH",
"425 157 OFFCURVE",
"380 124 OFFCURVE",
"281 124 CURVE SMOOTH",
"241 124 LINE",
"241 316 LINE"
);
},
{
closed = 1;
nodes = (
"665 714 LINE",
"665 0 LINE",
"816 0 LINE",
"816 714 LINE"
);
}
);
width = 906;
}
);
note = afii10045;
unicode = 042B;
},
{
glyphname = afii10046;
lastChange = "2018-06-23 23:49:06 +0000";
layers = (
{
layerId = "120467F4-1FD8-4738-87D7-3EC9C6A2741E";
paths = (
{
closed = 1;
nodes = (
"593 361 OFFCURVE",
"487 440 OFFCURVE",
"301 440 CURVE SMOOTH",
"241 440 LINE",
"241 714 LINE",
"90 714 LINE",
"90 0 LINE",
"298 0 LINE SMOOTH",
"495 0 OFFCURVE",
"593 74 OFFCURVE",
"593 223 CURVE SMOOTH"
);
},
{
closed = 1;
nodes = (
"280 316 LINE SMOOTH",
"397 316 OFFCURVE",
"440 289 OFFCURVE",
"440 223 CURVE SMOOTH",
"440 157 OFFCURVE",
"394 124 OFFCURVE",
"292 124 CURVE SMOOTH",
"241 124 LINE",
"241 316 LINE"
);
}
);
width = 638;
}
);
note = afii10046;
unicode = 042C;
},
{
glyphname = afii10047;
lastChange = "2018-06-23 23:49:06 +0000";
layers = (
{
anchors = (
{
name = top;
position = "{332, 714}";
}
);
layerId = "120467F4-1FD8-4738-87D7-3EC9C6A2741E";
paths = (
{
closed = 1;
nodes = (
"374 598 OFFCURVE",
"441 533 OFFCURVE",
"445 422 CURVE",
"136 422 LINE",
"136 298 LINE",
"446 298 LINE",
"440 177 OFFCURVE",
"375 116 OFFCURVE",
"250 116 CURVE SMOOTH",
"194 116 OFFCURVE",
"127 129 OFFCURVE",
"48 154 CURVE",
"48 27 LINE",
"111 2 OFFCURVE",
"182 -10 OFFCURVE",
"259 -10 CURVE SMOOTH",
"483 -10 OFFCURVE",
"605 120 OFFCURVE",
"605 356 CURVE SMOOTH",
"605 587 OFFCURVE",
"484 724 OFFCURVE",
"273 724 CURVE SMOOTH",
"190 724 OFFCURVE",
"111 708 OFFCURVE",
"35 674 CURVE",
"83 552 LINE",
"144 577 OFFCURVE",
"206 598 OFFCURVE",
"270 598 CURVE SMOOTH"
);
}
);
width = 663;
}
);
note = afii10047;
unicode = 042D;
},
{
glyphname = afii10048;
lastChange = "2018-06-23 23:49:06 +0000";
layers = (
{
anchors = (
{
name = top;
position = "{535, 714}";
}
);
layerId = "120467F4-1FD8-4738-87D7-3EC9C6A2741E";
paths = (
{
closed = 1;
nodes = (
"1012 592 OFFCURVE",
"900 725 OFFCURVE",
"695 725 CURVE SMOOTH",
"513 725 OFFCURVE",
"403 622 OFFCURVE",
"381 434 CURVE",
"241 434 LINE",
"241 714 LINE",
"90 714 LINE",
"90 0 LINE",
"241 0 LINE",
"241 308 LINE",
"378 308 LINE",
"395 101 OFFCURVE",
"506 -10 OFFCURVE",
"694 -10 CURVE SMOOTH",
"899 -10 OFFCURVE",
"1012 124 OFFCURVE",
"1012 358 CURVE SMOOTH"
);
},
{
closed = 1;
nodes = (
"533 517 OFFCURVE",
"589 599 OFFCURVE",
"696 599 CURVE SMOOTH",
"802 599 OFFCURVE",
"856 517 OFFCURVE",
"856 358 CURVE SMOOTH",
"856 197 OFFCURVE",
"802 117 OFFCURVE",
"694 117 CURVE SMOOTH",
"589 117 OFFCURVE",
"533 199 OFFCURVE",
"533 358 CURVE SMOOTH"
);
}
);
width = 1070;
}
);
note = afii10048;
unicode = 042E;
},
{
glyphname = afii10049;
lastChange = "2018-06-23 23:49:06 +0000";
layers = (
{
anchors = (
{
name = top;
position = "{333, 714}";
}
);
layerId = "120467F4-1FD8-4738-87D7-3EC9C6A2741E";
paths = (
{
closed = 1;
nodes = (
"424 0 LINE",
"575 0 LINE",
"575 714 LINE",
"343 714 LINE SMOOTH",
"169 714 OFFCURVE",
"73 641 OFFCURVE",
"73 510 CURVE SMOOTH",
"73 417 OFFCURVE",
"118 347 OFFCURVE",
"198 314 CURVE",
"-5 0 LINE",
"163 0 LINE",
"330 274 LINE",
"424 274 LINE"
);
},
{
closed = 1;
nodes = (
"353 397 LINE SMOOTH",
"267 397 OFFCURVE",
"226 436 OFFCURVE",
"226 499 CURVE SMOOTH",
"226 564 OFFCURVE",
"271 590 OFFCURVE",
"349 590 CURVE SMOOTH",
"424 590 LINE",
"424 397 LINE"
);
}
);
width = 665;
}
);
note = afii10049;
unicode = 042F;
},
{
glyphname = afii10066;
lastChange = "2018-06-23 23:49:06 +0000";
layers = (
{
layerId = "120467F4-1FD8-4738-87D7-3EC9C6A2741E";
paths = (
{
closed = 1;
nodes = (
"45 117 OFFCURVE",
"144 -10 OFFCURVE",
"310 -10 CURVE SMOOTH",
"477 -10 OFFCURVE",
"577 93 OFFCURVE",
"577 270 CURVE SMOOTH",
"577 424 OFFCURVE",
"499 509 OFFCURVE",
"364 509 CURVE SMOOTH",
"299 509 OFFCURVE",
"239 479 OFFCURVE",
"204 426 CURVE",
"197 426 LINE",
"199 466 OFFCURVE",
"205 498 OFFCURVE",
"215 522 CURVE SMOOTH",
"235 570 OFFCURVE",
"270 594 OFFCURVE",
"352 607 CURVE SMOOTH",
"460 623 OFFCURVE",
"535 633 OFFCURVE",
"577 638 CURVE",
"560 768 LINE",
"462 755 OFFCURVE",
"389 744 OFFCURVE",
"340 736 CURVE SMOOTH",
"137 701 OFFCURVE",
"45 578 OFFCURVE",
"45 327 CURVE SMOOTH"
);
},
{
closed = 1;
nodes = (
"241 111 OFFCURVE",
"197 183 OFFCURVE",
"197 315 CURVE",
"204 328 OFFCURVE",
"214 342 OFFCURVE",
"229 355 CURVE SMOOTH",
"258 381 OFFCURVE",
"294 399 OFFCURVE",
"329 399 CURVE SMOOTH",
"393 399 OFFCURVE",
"425 352 OFFCURVE",
"425 257 CURVE SMOOTH",
"425 160 OFFCURVE",
"390 111 OFFCURVE",
"319 111 CURVE SMOOTH"
);
}
);
width = 622;
}
);
note = afii10066;
unicode = 0431;
},
{
glyphname = afii10067;
lastChange = "2018-06-23 23:49:06 +0000";
layers = (
{
layerId = "120467F4-1FD8-4738-87D7-3EC9C6A2741E";
paths = (
{
closed = 1;
nodes = (
"582 497 OFFCURVE",
"508 546 OFFCURVE",
"358 546 CURVE SMOOTH",
"78 546 LINE",
"78 0 LINE",
"358 0 LINE SMOOTH",
"513 0 OFFCURVE",
"599 57 OFFCURVE",
"599 163 CURVE SMOOTH",
"599 228 OFFCURVE",
"551 275 OFFCURVE",
"473 284 CURVE",
"473 288 LINE",
"545 300 OFFCURVE",
"582 344 OFFCURVE",
"582 403 CURVE SMOOTH"
);
},
{
closed = 1;
nodes = (
"445 128 OFFCURVE",
"411 103 OFFCURVE",
"348 103 CURVE SMOOTH",
"227 103 LINE",
"227 232 LINE",
"345 232 LINE SMOOTH",
"412 232 OFFCURVE",
"445 214 OFFCURVE",
"445 171 CURVE SMOOTH"
);
},
{
closed = 1;
nodes = (
"431 350 OFFCURVE",
"398 333 OFFCURVE",
"335 333 CURVE SMOOTH",
"227 333 LINE",
"227 441 LINE",
"352 441 LINE SMOOTH",
"405 441 OFFCURVE",
"431 424 OFFCURVE",
"431 391 CURVE SMOOTH"
);
}
);
width = 639;
}
);
note = afii10067;
unicode = 0432;
},
{
glyphname = afii10068;
lastChange = "2018-06-23 23:49:06 +0000";
layers = (
{
anchors = (
{
name = bottomright;
position = "{468, 0}";
},
{
name = top;
position = "{239, 546}";
}
);
layerId = "120467F4-1FD8-4738-87D7-3EC9C6A2741E";
paths = (
{
closed = 1;
nodes = (
"78 0 LINE",
"227 0 LINE",
"227 434 LINE",
"455 434 LINE",
"455 546 LINE",
"78 546 LINE"
);
}
);
width = 478;
}
);
note = afii10068;
unicode = 0433;
},
{
glyphname = afii10069;
lastChange = "2018-06-23 23:49:06 +0000";
layers = (
{
layerId = "120467F4-1FD8-4738-87D7-3EC9C6A2741E";
paths = (
{
closed = 1;
nodes = (
"266 204 OFFCURVE",
"292 313 OFFCURVE",
"308 434 CURVE",
"420 434 LINE",
"420 109 LINE",
"216 109 LINE"
);
},
{
closed = 1;
nodes = (
"569 109 LINE",
"569 546 LINE",
"183 546 LINE",
"166 356 OFFCURVE",
"123 206 OFFCURVE",
"60 109 CURVE",
"14 109 LINE",
"14 -196 LINE",
"148 -196 LINE",
"148 0 LINE",
"515 0 LINE",
"515 -196 LINE",
"649 -196 LINE",
"649 109 LINE"
);
}
);
width = 664;
}
);
note = afii10069;
unicode = 0434;
},
{
glyphname = afii10072;
lastChange = "2018-06-23 23:49:06 +0000";
layers = (
{
anchors = (
{
name = bottomright;
position = "{863, 0}";
},
{
name = top;
position = "{437, 546}";
}
);
layerId = "120467F4-1FD8-4738-87D7-3EC9C6A2741E";
paths = (
{
closed = 1;
nodes = (
"19 546 LINE",
"220 284 LINE",
"0 0 LINE",
"159 0 LINE",
"367 277 LINE",
"367 0 LINE",
"506 0 LINE",
"506 277 LINE",
"714 0 LINE",
"873 0 LINE",
"653 284 LINE",
"854 546 LINE",
"700 546 LINE",
"506 281 LINE",
"506 546 LINE",
"367 546 LINE",
"367 281 LINE",
"173 546 LINE"
);
}
);
width = 873;
}
);
note = afii10072;
unicode = 0436;
},
{
glyphname = afii10073;
lastChange = "2018-06-23 23:49:06 +0000";
layers = (
{
anchors = (
{
name = bottom;
position = "{278, 0}";
},
{
name = top;
position = "{278, 546}";
}
);
layerId = "120467F4-1FD8-4738-87D7-3EC9C6A2741E";
paths = (
{
closed = 1;
nodes = (
"159 233 LINE",
"217 233 LINE SMOOTH",
"270 233 OFFCURVE",
"309 228 OFFCURVE",
"334 217 CURVE SMOOTH",
"359 207 OFFCURVE",
"372 190 OFFCURVE",
"372 168 CURVE SMOOTH",
"372 148 OFFCURVE",
"360 132 OFFCURVE",
"336 122 CURVE SMOOTH",
"312 110 OFFCURVE",
"275 105 OFFCURVE",
"227 105 CURVE SMOOTH",
"165 105 OFFCURVE",
"94 121 OFFCURVE",
"38 147 CURVE",
"38 24 LINE",
"87 1 OFFCURVE",
"157 -10 OFFCURVE",
"248 -10 CURVE SMOOTH",
"303 -10 OFFCURVE",
"351 -3 OFFCURVE",
"392 11 CURVE SMOOTH",
"473 39 OFFCURVE",
"517 93 OFFCURVE",
"517 159 CURVE SMOOTH",
"517 225 OFFCURVE",
"482 264 OFFCURVE",
"393 286 CURVE",
"393 291 LINE",
"466 310 OFFCURVE",
"502 350 OFFCURVE",
"502 411 CURVE SMOOTH",
"502 500 OFFCURVE",
"413 556 OFFCURVE",
"277 556 CURVE SMOOTH",
"187 556 OFFCURVE",
"120 544 OFFCURVE",
"42 515 CURVE",
"86 411 LINE",
"138 433 OFFCURVE",
"208 446 OFFCURVE",
"258 446 CURVE SMOOTH",
"297 446 OFFCURVE",
"326 441 OFFCURVE",
"343 433 CURVE SMOOTH",
"360 424 OFFCURVE",
"369 411 OFFCURVE",
"369 393 CURVE SMOOTH",
"369 373 OFFCURVE",
"357 359 OFFCURVE",
"334 350 CURVE SMOOTH",
"310 340 OFFCURVE",
"270 336 OFFCURVE",
"214 336 CURVE SMOOTH",
"159 336 LINE"
);
}
);
width = 555;
}
);
note = afii10073;
unicode = 0437;
},
{
glyphname = afii10074;
lastChange = "2018-06-23 23:49:06 +0000";
layers = (
{
anchors = (
{
name = bottomright;
position = "{710, 0}";
},
{
name = top;
position = "{360, 546}";
}
);
layerId = "120467F4-1FD8-4738-87D7-3EC9C6A2741E";
paths = (
{
closed = 1;
nodes = (
"78 0 LINE",
"257 0 LINE",
"508 382 LINE",
"501 311 OFFCURVE",
"498 256 OFFCURVE",
"498 218 CURVE SMOOTH",
"498 0 LINE",
"642 0 LINE",
"642 546 LINE",
"463 546 LINE",
"211 163 LINE",
"218 251 OFFCURVE",
"222 307 OFFCURVE",
"222 330 CURVE SMOOTH",
"222 546 LINE",
"78 546 LINE"
);
}
);
width = 720;
}
);
note = afii10074;
unicode = 0438;
},
{
glyphname = afii10076;
lastChange = "2018-06-23 23:49:06 +0000";
layers = (
{
anchors = (
{
name = bottomright;
position = "{609, 0}";
},
{
name = top;
position = "{310, 546}";
}
);
layerId = "120467F4-1FD8-4738-87D7-3EC9C6A2741E";
paths = (
{
closed = 1;
nodes = (
"227 546 LINE",
"78 546 LINE",
"78 0 LINE",
"227 0 LINE",
"227 277 LINE",
"450 0 LINE",
"619 0 LINE",
"384 284 LINE",
"600 546 LINE",
"436 546 LINE",
"227 281 LINE"
);
}
);
width = 619;
}
);
note = afii10076;
unicode = 043A;
},
{
glyphname = afii10077;
lastChange = "2018-06-23 23:49:06 +0000";
layers = (
{
layerId = "120467F4-1FD8-4738-87D7-3EC9C6A2741E";
paths = (
{
closed = 1;
nodes = (
"154 546 LINE",
"146 437 OFFCURVE",
"138 351 OFFCURVE",
"128 289 CURVE SMOOTH",
"118 227 OFFCURVE",
"107 182 OFFCURVE",
"95 155 CURVE SMOOTH",
"82 128 OFFCURVE",
"66 115 OFFCURVE",
"48 115 CURVE SMOOTH",
"32 115 OFFCURVE",
"16 119 OFFCURVE",
"0 125 CURVE",
"0 6 LINE",
"22 -4 OFFCURVE",
"50 -10 OFFCURVE",
"85 -10 CURVE SMOOTH",
"166 -10 OFFCURVE",
"213 41 OFFCURVE",
"243 161 CURVE SMOOTH",
"258 221 OFFCURVE",
"271 312 OFFCURVE",
"281 434 CURVE",
"418 434 LINE",
"418 0 LINE",
"567 0 LINE",
"567 546 LINE"
);
}
);
width = 645;
}
);
note = afii10077;
unicode = 043B;
},
{
glyphname = afii10078;
lastChange = "2018-06-23 23:49:06 +0000";
layers = (
{
layerId = "120467F4-1FD8-4738-87D7-3EC9C6A2741E";
paths = (
{
closed = 1;
nodes = (
"563 546 LINE",
"505 405 OFFCURVE",
"473 325 OFFCURVE",
"466 307 CURVE SMOOTH",
"458 289 OFFCURVE",
"452 270 OFFCURVE",
"446 249 CURVE SMOOTH",
"440 227 OFFCURVE",
"432 192 OFFCURVE",
"421 143 CURVE",
"415 189 OFFCURVE",
"396 263 OFFCURVE",
"377 313 CURVE SMOOTH",
"283 546 LINE",
"78 546 LINE",
"78 0 LINE",
"217 0 LINE",
"217 430 LINE",
"226 397 LINE SMOOTH",
"242 332 OFFCURVE",
"257 282 OFFCURVE",
"271 246 CURVE SMOOTH",
"369 0 LINE",
"475 0 LINE",
"572 244 LINE SMOOTH",
"586 279 OFFCURVE",
"602 331 OFFCURVE",
"619 400 CURVE SMOOTH",
"627 430 LINE",
"627 0 LINE",
"766 0 LINE",
"766 546 LINE"
);
}
);
width = 844;
}
);
note = afii10078;
unicode = 043C;
},
{
glyphname = afii10079;
lastChange = "2018-06-23 23:49:06 +0000";
layers = (
{
anchors = (
{
name = bottomright;
position = "{652, 0}";
}
);
layerId = "120467F4-1FD8-4738-87D7-3EC9C6A2741E";
paths = (
{
closed = 1;
nodes = (
"78 0 LINE",
"227 0 LINE",
"227 225 LINE",
"435 225 LINE",
"435 0 LINE",
"584 0 LINE",
"584 546 LINE",
"435 546 LINE",
"435 336 LINE",
"227 336 LINE",
"227 546 LINE",
"78 546 LINE"
);
}
);
width = 662;
}
);
note = afii10079;
unicode = 043D;
},
{
glyphname = afii10081;
lastChange = "2018-06-23 23:49:06 +0000";
layers = (
{
anchors = (
{
name = bottomright;
position = "{642, 0}";
}
);
layerId = "120467F4-1FD8-4738-87D7-3EC9C6A2741E";
paths = (
{
closed = 1;
nodes = (
"78 0 LINE",
"227 0 LINE",
"227 434 LINE",
"425 434 LINE",
"425 0 LINE",
"574 0 LINE",
"574 546 LINE",
"78 546 LINE"
);
}
);
width = 652;
}
);
note = afii10081;
unicode = 043F;
},
{
glyphname = afii10084;
lastChange = "2018-06-23 23:49:06 +0000";
layers = (
{
anchors = (
{
name = bottomright;
position = "{543, 0}";
}
);
layerId = "120467F4-1FD8-4738-87D7-3EC9C6A2741E";
paths = (
{
closed = 1;
nodes = (
"23 434 LINE",
"202 434 LINE",
"202 0 LINE",
"351 0 LINE",
"351 434 LINE",
"530 434 LINE",
"530 546 LINE",
"23 546 LINE"
);
}
);
width = 553;
}
);
note = afii10084;
unicode = 0442;
},
{
glyphname = afii10086;
lastChange = "2018-06-23 23:49:06 +0000";
layers = (
{
layerId = "120467F4-1FD8-4738-87D7-3EC9C6A2741E";
paths = (
{
closed = 1;
nodes = (
"339 760 LINE",
"339 549 LINE",
"147 537 OFFCURVE",
"45 438 OFFCURVE",
"45 273 CURVE SMOOTH",
"45 118 OFFCURVE",
"155 13 OFFCURVE",
"339 -4 CURVE",
"339 -240 LINE",
"477 -240 LINE",
"477 -4 LINE",
"662 11 OFFCURVE",
"769 112 OFFCURVE",
"769 273 CURVE SMOOTH",
"769 431 OFFCURVE",
"659 534 OFFCURVE",
"477 549 CURVE",
"477 760 LINE"
);
},
{
closed = 1;
nodes = (
"198 361 OFFCURVE",
"255 426 OFFCURVE",
"339 437 CURVE",
"339 109 LINE",
"251 121 OFFCURVE",
"198 181 OFFCURVE",
"198 273 CURVE SMOOTH"
);
},
{
closed = 1;
nodes = (
"616 182 OFFCURVE",
"563 121 OFFCURVE",
"477 109 CURVE",
"477 435 LINE",
"565 423 OFFCURVE",
"616 359 OFFCURVE",
"616 273 CURVE SMOOTH"
);
}
);
width = 814;
}
);
note = afii10086;
unicode = 0444;
},
{
glyphname = afii10088;
lastChange = "2018-06-23 23:49:06 +0000";
layers = (
{
layerId = "120467F4-1FD8-4738-87D7-3EC9C6A2741E";
paths = (
{
closed = 1;
nodes = (
"445 546 LINE",
"445 112 LINE",
"227 112 LINE",
"227 546 LINE",
"78 546 LINE",
"78 0 LINE",
"540 0 LINE",
"540 -196 LINE",
"674 -196 LINE",
"674 109 LINE",
"594 109 LINE",
"594 546 LINE"
);
}
);
width = 688;
}
);
note = afii10088;
unicode = 0446;
},
{
glyphname = afii10089;
lastChange = "2018-06-23 23:49:06 +0000";
layers = (
{
anchors = (
{
name = bottomright;
position = "{646, 0}";
},
{
name = top;
position = "{328, 546}";
}
);
layerId = "120467F4-1FD8-4738-87D7-3EC9C6A2741E";
paths = (
{
closed = 1;
nodes = (
"60 343 LINE SMOOTH",
"60 230 OFFCURVE",
"128 167 OFFCURVE",
"247 167 CURVE SMOOTH",
"302 167 OFFCURVE",
"360 180 OFFCURVE",
"429 217 CURVE",
"429 0 LINE",
"578 0 LINE",
"578 546 LINE",
"429 546 LINE",
"429 310 LINE",
"379 289 OFFCURVE",
"332 275 OFFCURVE",
"275 275 CURVE SMOOTH",
"231 275 OFFCURVE",
"209 299 OFFCURVE",
"209 346 CURVE SMOOTH",
"209 546 LINE",
"60 546 LINE"
);
}
);
width = 656;
}
);
note = afii10089;
unicode = 0447;
},
{
glyphname = afii10090;
lastChange = "2018-06-23 23:49:06 +0000";
layers = (
{
layerId = "120467F4-1FD8-4738-87D7-3EC9C6A2741E";
paths = (
{
closed = 1;
nodes = (
"742 546 LINE",
"742 112 LINE",
"559 112 LINE",
"559 546 LINE",
"410 546 LINE",
"410 112 LINE",
"227 112 LINE",
"227 546 LINE",
"78 546 LINE",
"78 0 LINE",
"891 0 LINE",
"891 546 LINE"
);
}
);
width = 969;
}
);
note = afii10090;
unicode = 0448;
},
{
glyphname = afii10091;
lastChange = "2018-06-23 23:49:06 +0000";
layers = (
{
layerId = "120467F4-1FD8-4738-87D7-3EC9C6A2741E";
paths = (
{
closed = 1;
nodes = (
"742 546 LINE",
"742 112 LINE",
"559 112 LINE",
"559 546 LINE",
"410 546 LINE",
"410 112 LINE",
"227 112 LINE",
"227 546 LINE",
"78 546 LINE",
"78 0 LINE",
"837 0 LINE",
"837 -196 LINE",
"971 -196 LINE",
"971 109 LINE",
"891 109 LINE",
"891 546 LINE"
);
}
);
width = 985;
}
);
note = afii10091;
unicode = 0449;
},
{
glyphname = afii10092;
lastChange = "2018-06-23 23:49:06 +0000";
layers = (
{
layerId = "120467F4-1FD8-4738-87D7-3EC9C6A2741E";
paths = (
{
closed = 1;
nodes = (
"0 434 LINE",
"174 434 LINE",
"174 0 LINE",
"434 0 LINE SMOOTH",
"595 0 OFFCURVE",
"675 58 OFFCURVE",
"675 174 CURVE SMOOTH",
"675 282 OFFCURVE",
"596 335 OFFCURVE",
"428 335 CURVE SMOOTH",
"323 335 LINE",
"323 546 LINE",
"0 546 LINE"
);
},
{
closed = 1;
nodes = (
"526 126 OFFCURVE",
"493 103 OFFCURVE",
"427 103 CURVE SMOOTH",
"323 103 LINE",
"323 232 LINE",
"425 232 LINE SMOOTH",
"493 232 OFFCURVE",
"526 214 OFFCURVE",
"526 172 CURVE SMOOTH"
);
}
);
width = 710;
}
);
note = afii10092;
unicode = 044A;
},
{
glyphname = afii10093;
lastChange = "2018-06-23 23:49:06 +0000";
layers = (
{
anchors = (
{
name = top;
position = "{425, 546}";
}
);
layerId = "120467F4-1FD8-4738-87D7-3EC9C6A2741E";
paths = (
{
closed = 1;
nodes = (
"78 546 LINE",
"78 0 LINE",
"304 0 LINE SMOOTH",
"464 0 OFFCURVE",
"544 59 OFFCURVE",
"544 174 CURVE SMOOTH",
"544 282 OFFCURVE",
"465 335 OFFCURVE",
"299 335 CURVE SMOOTH",
"227 335 LINE",
"227 546 LINE"
);
},
{
closed = 1;
nodes = (
"395 126 OFFCURVE",
"362 103 OFFCURVE",
"296 103 CURVE SMOOTH",
"227 103 LINE",
"227 232 LINE",
"294 232 LINE SMOOTH",
"361 232 OFFCURVE",
"395 214 OFFCURVE",
"395 172 CURVE SMOOTH"
);
},
{
closed = 1;
nodes = (
"623 546 LINE",
"623 0 LINE",
"772 0 LINE",
"772 546 LINE"
);
}
);
width = 850;
}
);
note = afii10093;
unicode = 044B;
},
{
glyphname = afii10094;
lastChange = "2018-06-23 23:49:06 +0000";
layers = (
{
layerId = "120467F4-1FD8-4738-87D7-3EC9C6A2741E";
paths = (
{
closed = 1;
nodes = (
"78 546 LINE",
"78 0 LINE",
"338 0 LINE SMOOTH",
"499 0 OFFCURVE",
"579 58 OFFCURVE",
"579 174 CURVE SMOOTH",
"579 282 OFFCURVE",
"500 335 OFFCURVE",
"332 335 CURVE SMOOTH",
"227 335 LINE",
"227 546 LINE"
);
},
{
closed = 1;
nodes = (
"430 126 OFFCURVE",
"397 103 OFFCURVE",
"331 103 CURVE SMOOTH",
"227 103 LINE",
"227 232 LINE",
"329 232 LINE SMOOTH",
"396 232 OFFCURVE",
"430 214 OFFCURVE",
"430 172 CURVE SMOOTH"
);
}
);
width = 614;
}
);
note = afii10094;
unicode = 044C;
},
{
glyphname = afii10095;
lastChange = "2018-06-23 23:49:06 +0000";
layers = (
{
anchors = (
{
name = top;
position = "{256, 546}";
}
);
layerId = "120467F4-1FD8-4738-87D7-3EC9C6A2741E";
paths = (
{
closed = 1;
nodes = (
"378 -10 OFFCURVE",
"467 89 OFFCURVE",
"467 279 CURVE SMOOTH",
"467 464 OFFCURVE",
"384 556 OFFCURVE",
"214 556 CURVE SMOOTH",
"153 556 OFFCURVE",
"88 540 OFFCURVE",
"39 517 CURVE",
"81 415 LINE",
"127 436 OFFCURVE",
"169 446 OFFCURVE",
"208 446 CURVE SMOOTH",
"273 446 OFFCURVE",
"308 405 OFFCURVE",
"313 325 CURVE",
"107 325 LINE",
"107 226 LINE",
"313 226 LINE",
"307 143 OFFCURVE",
"268 101 OFFCURVE",
"196 101 CURVE SMOOTH",
"146 101 OFFCURVE",
"93 114 OFFCURVE",
"36 140 CURVE",
"36 24 LINE",
"80 1 OFFCURVE",
"136 -10 OFFCURVE",
"204 -10 CURVE SMOOTH"
);
}
);
width = 512;
}
);
note = afii10095;
unicode = 044D;
},
{
glyphname = afii10096;
lastChange = "2018-06-23 23:49:06 +0000";
layers = (
{
anchors = (
{
name = top;
position = "{438, 546}";
}
);
layerId = "120467F4-1FD8-4738-87D7-3EC9C6A2741E";
paths = (
{
closed = 1;
nodes = (
"832 448 OFFCURVE",
"733 556 OFFCURVE",
"579 556 CURVE SMOOTH",
"440 556 OFFCURVE",
"346 475 OFFCURVE",
"327 336 CURVE",
"227 336 LINE",
"227 546 LINE",
"78 546 LINE",
"78 0 LINE",
"227 0 LINE",
"227 225 LINE",
"325 225 LINE",
"343 73 OFFCURVE",
"432 -10 OFFCURVE",
"576 -10 CURVE SMOOTH",
"736 -10 OFFCURVE",
"832 95 OFFCURVE",
"832 274 CURVE SMOOTH"
);
},
{
closed = 1;
nodes = (
"475 382 OFFCURVE",
"505 436 OFFCURVE",
"577 436 CURVE SMOOTH",
"650 436 OFFCURVE",
"680 383 OFFCURVE",
"680 274 CURVE SMOOTH",
"680 165 OFFCURVE",
"650 110 OFFCURVE",
"578 110 CURVE SMOOTH",
"504 110 OFFCURVE",
"475 165 OFFCURVE",
"475 274 CURVE SMOOTH"
);
}
);
width = 877;
}
);
note = afii10096;
unicode = 044E;
},
{
glyphname = afii10097;
lastChange = "2018-06-23 23:49:06 +0000";
layers = (
{
anchors = (
{
name = top;
position = "{296, 546}";
}
);
layerId = "120467F4-1FD8-4738-87D7-3EC9C6A2741E";
paths = (
{
closed = 1;
nodes = (
"366 203 LINE",
"366 0 LINE",
"515 0 LINE",
"515 546 LINE",
"261 546 LINE SMOOTH",
"125 546 OFFCURVE",
"40 482 OFFCURVE",
"40 377 CURVE SMOOTH",
"40 302 OFFCURVE",
"77 245 OFFCURVE",
"147 216 CURVE",
"0 0 LINE",
"161 0 LINE",
"284 203 LINE"
);
},
{
closed = 1;
nodes = (
"186 415 OFFCURVE",
"215 441 OFFCURVE",
"264 441 CURVE SMOOTH",
"366 441 LINE",
"366 303 LINE",
"283 303 LINE SMOOTH",
"225 303 OFFCURVE",
"186 331 OFFCURVE",
"186 376 CURVE SMOOTH"
);
}
);
width = 593;
}
);
note = afii10097;
unicode = 044F;
},
{
glyphname = afii10099;
lastChange = "2018-06-23 23:49:06 +0000";
layers = (
{
layerId = "120467F4-1FD8-4738-87D7-3EC9C6A2741E";
paths = (
{
closed = 1;
nodes = (
"519 -240 OFFCURVE",
"582 -176 OFFCURVE",
"582 -59 CURVE SMOOTH",
"582 326 LINE SMOOTH",
"582 456 OFFCURVE",
"516 526 OFFCURVE",
"387 526 CURVE SMOOTH",
"315 526 OFFCURVE",
"262 499 OFFCURVE",
"229 446 CURVE",
"220 446 LINE",
"225 505 OFFCURVE",
"227 548 OFFCURVE",
"227 575 CURVE SMOOTH",
"227 584 LINE",
"381 584 LINE",
"381 681 LINE",
"227 681 LINE",
"227 760 LINE",
"78 760 LINE",
"78 681 LINE",
"2 681 LINE",
"2 584 LINE",
"78 584 LINE",
"78 0 LINE",
"227 0 LINE",
"227 227 LINE SMOOTH",
"227 354 OFFCURVE",
"263 407 OFFCURVE",
"345 407 CURVE SMOOTH",
"401 407 OFFCURVE",
"433 372 OFFCURVE",
"433 300 CURVE SMOOTH",
"433 -37 LINE SMOOTH",
"433 -92 OFFCURVE",
"413 -120 OFFCURVE",
"373 -120 CURVE SMOOTH",
"354 -120 OFFCURVE",
"334 -117 OFFCURVE",
"315 -111 CURVE",
"315 -228 LINE",
"340 -236 OFFCURVE",
"370 -240 OFFCURVE",
"405 -240 CURVE SMOOTH"
);
}
);
width = 657;
}
);
note = afii10099;
unicode = 0452;
},
{
glyphname = afii10101;
lastChange = "2018-06-23 23:49:06 +0000";
layers = (
{
layerId = "120467F4-1FD8-4738-87D7-3EC9C6A2741E";
paths = (
{
closed = 1;
nodes = (
"377 -10 OFFCURVE",
"430 2 OFFCURVE",
"476 26 CURVE",
"476 140 LINE",
"410 111 OFFCURVE",
"361 101 OFFCURVE",
"310 101 CURVE SMOOTH",
"243 101 OFFCURVE",
"208 141 OFFCURVE",
"199 226 CURVE",
"405 226 LINE",
"405 325 LINE",
"199 325 LINE",
"209 407 OFFCURVE",
"246 446 OFFCURVE",
"314 446 CURVE SMOOTH",
"349 446 OFFCURVE",
"394 435 OFFCURVE",
"449 414 CURVE",
"492 520 LINE",
"436 544 OFFCURVE",
"378 556 OFFCURVE",
"318 556 CURVE SMOOTH",
"130 556 OFFCURVE",
"45 464 OFFCURVE",
"45 270 CURVE SMOOTH",
"45 86 OFFCURVE",
"138 -10 OFFCURVE",
"319 -10 CURVE SMOOTH"
);
}
);
width = 524;
}
);
note = afii10101;
unicode = 0454;
},
{
glyphname = afii10106;
lastChange = "2018-06-23 23:49:06 +0000";
layers = (
{
layerId = "120467F4-1FD8-4738-87D7-3EC9C6A2741E";
paths = (
{
closed = 1;
nodes = (
"775 0 OFFCURVE",
"853 58 OFFCURVE",
"853 174 CURVE SMOOTH",
"853 282 OFFCURVE",
"777 335 OFFCURVE",
"615 335 CURVE SMOOTH",
"546 335 LINE",
"546 546 LINE",
"154 546 LINE",
"146 437 OFFCURVE",
"138 351 OFFCURVE",
"128 289 CURVE SMOOTH",
"118 227 OFFCURVE",
"107 182 OFFCURVE",
"95 155 CURVE SMOOTH",
"82 128 OFFCURVE",
"66 115 OFFCURVE",
"48 115 CURVE SMOOTH",
"32 115 OFFCURVE",
"16 119 OFFCURVE",
"0 125 CURVE",
"0 6 LINE",
"22 -4 OFFCURVE",
"50 -10 OFFCURVE",
"85 -10 CURVE SMOOTH",
"166 -10 OFFCURVE",
"213 41 OFFCURVE",
"243 161 CURVE SMOOTH",
"258 221 OFFCURVE",
"271 312 OFFCURVE",
"281 434 CURVE",
"397 434 LINE",
"397 0 LINE",
"618 0 LINE SMOOTH"
);
},
{
closed = 1;
nodes = (
"704 126 OFFCURVE",
"673 103 OFFCURVE",
"611 103 CURVE SMOOTH",
"546 103 LINE",
"546 232 LINE",
"609 232 LINE SMOOTH",
"672 232 OFFCURVE",
"704 214 OFFCURVE",
"704 172 CURVE SMOOTH"
);
}
);
width = 888;
}
);
note = afii10106;
unicode = 0459;
},
{
glyphname = afii10107;
lastChange = "2018-06-23 23:49:06 +0000";
layers = (
{
layerId = "120467F4-1FD8-4738-87D7-3EC9C6A2741E";
paths = (
{
closed = 1;
nodes = (
"397 546 LINE",
"397 336 LINE",
"227 336 LINE",
"227 546 LINE",
"78 546 LINE",
"78 0 LINE",
"227 0 LINE",
"227 225 LINE",
"397 225 LINE",
"397 0 LINE",
"618 0 LINE SMOOTH",
"775 0 OFFCURVE",
"853 58 OFFCURVE",
"853 174 CURVE SMOOTH",
"853 282 OFFCURVE",
"777 335 OFFCURVE",
"615 335 CURVE SMOOTH",
"546 335 LINE",
"546 546 LINE"
);
},
{
closed = 1;
nodes = (
"704 126 OFFCURVE",
"673 103 OFFCURVE",
"611 103 CURVE SMOOTH",
"546 103 LINE",
"546 232 LINE",
"609 232 LINE SMOOTH",
"672 232 OFFCURVE",
"704 214 OFFCURVE",
"704 172 CURVE SMOOTH"
);
}
);
width = 888;
}
);
note = afii10107;
unicode = 045A;
},
{
glyphname = afii10108;
lastChange = "2018-06-23 23:49:06 +0000";
layers = (
{
layerId = "120467F4-1FD8-4738-87D7-3EC9C6A2741E";
paths = (
{
closed = 1;
nodes = (
"582 456 OFFCURVE",
"516 526 OFFCURVE",
"387 526 CURVE SMOOTH",
"315 526 OFFCURVE",
"262 499 OFFCURVE",
"229 446 CURVE",
"220 446 LINE",
"225 505 OFFCURVE",
"227 548 OFFCURVE",
"227 575 CURVE SMOOTH",
"227 584 LINE",
"381 584 LINE",
"381 681 LINE",
"227 681 LINE",
"227 760 LINE",
"78 760 LINE",
"78 681 LINE",
"2 681 LINE",
"2 584 LINE",
"78 584 LINE",
"78 0 LINE",
"227 0 LINE",
"227 227 LINE SMOOTH",
"227 354 OFFCURVE",
"263 407 OFFCURVE",
"345 407 CURVE SMOOTH",
"404 407 OFFCURVE",
"433 368 OFFCURVE",
"433 289 CURVE SMOOTH",
"433 0 LINE",
"582 0 LINE",
"582 326 LINE SMOOTH"
);
}
);
width = 657;
}
);
note = afii10108;
unicode = 045B;
},
{
glyphname = afii10193;
lastChange = "2018-06-23 23:49:06 +0000";
layers = (
{
layerId = "120467F4-1FD8-4738-87D7-3EC9C6A2741E";
paths = (
{
closed = 1;
nodes = (
"269 -196 LINE",
"403 -196 LINE",
"403 0 LINE",
"594 0 LINE",
"594 546 LINE",
"445 546 LINE",
"445 112 LINE",
"227 112 LINE",
"227 546 LINE",
"78 546 LINE",
"78 0 LINE",
"269 0 LINE"
);
}
);
width = 672;
}
);
note = afii10193;
unicode = 045F;
},
{
glyphname = afii10050;
lastChange = "2018-06-23 23:49:06 +0000";
layers = (
{
layerId = "120467F4-1FD8-4738-87D7-3EC9C6A2741E";
paths = (
{
closed = 1;
nodes = (
"561 589 LINE",
"561 865 LINE",
"430 865 LINE",
"430 714 LINE",
"90 714 LINE",
"90 0 LINE",
"241 0 LINE",
"241 589 LINE"
);
}
);
width = 581;
}
);
note = afii10050;
unicode = 0490;
},
{
glyphname = afii10098;
lastChange = "2018-06-23 23:49:06 +0000";
layers = (
{
layerId = "120467F4-1FD8-4738-87D7-3EC9C6A2741E";
paths = (
{
closed = 1;
nodes = (
"476 434 LINE",
"476 695 LINE",
"342 695 LINE",
"342 546 LINE",
"78 546 LINE",
"78 0 LINE",
"227 0 LINE",
"227 434 LINE"
);
}
);
width = 512;
}
);
note = afii10098;
unicode = 0491;
},
{
glyphname = endash;
lastChange = "2018-06-23 23:49:06 +0000";
layers = (
{
layerId = "120467F4-1FD8-4738-87D7-3EC9C6A2741E";
paths = (
{
closed = 1;
nodes = (
"460 325 LINE",
"40 325 LINE",
"40 213 LINE",
"460 213 LINE"
);
}
);
width = 500;
}
);
note = endash;
unicode = 2013;
},
{
glyphname = emdash;
lastChange = "2018-06-23 23:49:06 +0000";
layers = (
{
layerId = "120467F4-1FD8-4738-87D7-3EC9C6A2741E";
paths = (
{
closed = 1;
nodes = (
"960 325 LINE",
"40 325 LINE",
"40 213 LINE",
"960 213 LINE"
);
}
);
width = 1000;
}
);
note = emdash;
unicode = 2014;
},
{
glyphname = afii00208;
lastChange = "2018-06-23 23:49:06 +0000";
layers = (
{
layerId = "120467F4-1FD8-4738-87D7-3EC9C6A2741E";
paths = (
{
closed = 1;
nodes = (
"960 325 LINE",
"40 325 LINE",
"40 213 LINE",
"960 213 LINE"
);
}
);
width = 1000;
}
);
note = afii00208;
unicode = 2015;
},
{
glyphname = underscoredbl;
lastChange = "2018-06-23 23:49:06 +0000";
layers = (
{
layerId = "120467F4-1FD8-4738-87D7-3EC9C6A2741E";
paths = (
{
closed = 1;
nodes = (
"-2 -158 LINE",
"-2 -226 LINE",
"413 -226 LINE",
"413 -158 LINE"
);
},
{
closed = 1;
nodes = (
"-2 -22 LINE",
"-2 -90 LINE",
"413 -90 LINE",
"413 -22 LINE"
);
}
);
width = 411;
}
);
note = underscoredbl;
unicode = 2017;
},
{
glyphname = quoteleft;
lastChange = "2018-06-23 23:49:06 +0000";
layers = (
{
layerId = "120467F4-1FD8-4738-87D7-3EC9C6A2741E";
paths = (
{
closed = 1;
nodes = (
"167 545 OFFCURVE",
"184 627 OFFCURVE",
"205 714 CURVE",
"98 714 LINE",
"63 640 OFFCURVE",
"26 539 OFFCURVE",
"12 480 CURVE",
"19 469 LINE",
"156 469 LINE"
);
}
);
width = 217;
}
);
note = quoteleft;
unicode = 2018;
},
{
glyphname = quoteright;
lastChange = "2018-06-23 23:49:06 +0000";
layers = (
{
layerId = "120467F4-1FD8-4738-87D7-3EC9C6A2741E";
paths = (
{
closed = 1;
nodes = (
"51 647 OFFCURVE",
"35 565 OFFCURVE",
"12 469 CURVE",
"119 469 LINE",
"160 561 OFFCURVE",
"189 639 OFFCURVE",
"205 703 CURVE",
"198 714 LINE",
"61 714 LINE"
);
}
);
width = 217;
}
);
note = quoteright;
unicode = 2019;
},
{
glyphname = quotesinglbase;
lastChange = "2018-06-23 23:49:06 +0000";
layers = (
{
layerId = "120467F4-1FD8-4738-87D7-3EC9C6A2741E";
paths = (
{
closed = 1;
nodes = (
"80 116 LINE",
"68 40 OFFCURVE",
"52 -42 OFFCURVE",
"31 -129 CURVE",
"138 -129 LINE",
"179 -39 OFFCURVE",
"207 39 OFFCURVE",
"224 105 CURVE",
"217 116 LINE"
);
}
);
width = 291;
}
);
note = quotesinglbase;
unicode = 201A;
},
{
glyphname = quotereversed;
lastChange = "2018-06-23 23:49:06 +0000";
layers = (
{
layerId = "120467F4-1FD8-4738-87D7-3EC9C6A2741E";
paths = (
{
closed = 1;
nodes = (
"12 703 LINE",
"25 648 OFFCURVE",
"60 552 OFFCURVE",
"98 469 CURVE",
"205 469 LINE",
"184 553 OFFCURVE",
"168 634 OFFCURVE",
"156 714 CURVE",
"19 714 LINE"
);
}
);
width = 216;
}
);
note = quotereversed;
unicode = 201B;
},
{
glyphname = quotedblleft;
lastChange = "2018-06-23 23:49:06 +0000";
layers = (
{
layerId = "120467F4-1FD8-4738-87D7-3EC9C6A2741E";
paths = (
{
closed = 1;
nodes = (
"384 469 LINE",
"395 545 OFFCURVE",
"412 627 OFFCURVE",
"433 714 CURVE",
"326 714 LINE",
"292 640 OFFCURVE",
"254 539 OFFCURVE",
"240 480 CURVE",
"247 469 LINE"
);
},
{
closed = 1;
nodes = (
"156 469 LINE",
"167 545 OFFCURVE",
"184 627 OFFCURVE",
"205 714 CURVE",
"98 714 LINE",
"63 640 OFFCURVE",
"26 539 OFFCURVE",
"12 480 CURVE",
"19 469 LINE"
);
}
);
width = 445;
}
);
note = quotedblleft;
unicode = 201C;
},
{
glyphname = quotedblright;
lastChange = "2018-06-23 23:49:06 +0000";
layers = (
{
layerId = "120467F4-1FD8-4738-87D7-3EC9C6A2741E";
paths = (
{
closed = 1;
nodes = (
"61 714 LINE",
"51 647 OFFCURVE",
"35 565 OFFCURVE",
"12 469 CURVE",
"119 469 LINE",
"160 561 OFFCURVE",
"189 639 OFFCURVE",
"205 703 CURVE",
"198 714 LINE"
);
},
{
closed = 1;
nodes = (
"289 714 LINE",
"279 647 OFFCURVE",
"263 565 OFFCURVE",
"240 469 CURVE",
"347 469 LINE",
"388 561 OFFCURVE",
"417 639 OFFCURVE",
"433 703 CURVE",
"426 714 LINE"
);
}
);
width = 445;
}
);
note = quotedblright;
unicode = 201D;
},
{
glyphname = quotedblbase;
lastChange = "2018-06-23 23:49:06 +0000";
layers = (
{
layerId = "120467F4-1FD8-4738-87D7-3EC9C6A2741E";
paths = (
{
closed = 1;
nodes = (
"80 116 LINE",
"68 40 OFFCURVE",
"52 -42 OFFCURVE",
"31 -129 CURVE",
"138 -129 LINE",
"179 -39 OFFCURVE",
"207 39 OFFCURVE",
"224 105 CURVE",
"217 116 LINE"
);
},
{
closed = 1;
nodes = (
"308 116 LINE",
"296 40 OFFCURVE",
"280 -42 OFFCURVE",
"259 -129 CURVE",
"366 -129 LINE",
"407 -39 OFFCURVE",
"435 39 OFFCURVE",
"452 105 CURVE",
"445 116 LINE"
);
}
);
width = 518;
}
);
note = quotedblbase;
unicode = 201E;
},
{
glyphname = dagger;
lastChange = "2018-06-23 23:49:06 +0000";
layers = (
{
layerId = "120467F4-1FD8-4738-87D7-3EC9C6A2741E";
paths = (
{
closed = 1;
nodes = (
"294 556 LINE",
"321 760 LINE",
"185 760 LINE",
"212 556 LINE",
"60 571 LINE",
"60 453 LINE",
"212 468 LINE",
"185 0 LINE",
"321 0 LINE",
"294 468 LINE",
"456 453 LINE",
"456 571 LINE"
);
}
);
width = 516;
}
);
note = dagger;
unicode = 2020;
},
{
glyphname = daggerdbl;
lastChange = "2018-06-23 23:49:06 +0000";
layers = (
{
layerId = "120467F4-1FD8-4738-87D7-3EC9C6A2741E";
paths = (
{
closed = 1;
nodes = (
"304 488 LINE",
"466 473 LINE",
"466 591 LINE",
"304 576 LINE",
"331 760 LINE",
"195 760 LINE",
"222 576 LINE",
"60 591 LINE",
"60 473 LINE",
"222 488 LINE",
"199 384 LINE",
"222 272 LINE",
"60 287 LINE",
"60 169 LINE",
"222 184 LINE",
"195 0 LINE",
"331 0 LINE",
"304 184 LINE",
"466 169 LINE",
"466 287 LINE",
"304 272 LINE",
"327 384 LINE"
);
}
);
width = 526;
}
);
note = daggerdbl;
unicode = 2021;
},
{
glyphname = bullet;
lastChange = "2018-06-23 23:49:06 +0000";
layers = (
{
layerId = "120467F4-1FD8-4738-87D7-3EC9C6A2741E";
paths = (
{
closed = 1;
nodes = (
"48 266 OFFCURVE",
"98 210 OFFCURVE",
"188 210 CURVE SMOOTH",
"276 210 OFFCURVE",
"328 266 OFFCURVE",
"328 365 CURVE SMOOTH",
"328 465 OFFCURVE",
"277 520 OFFCURVE",
"188 520 CURVE SMOOTH",
"98 520 OFFCURVE",
"48 465 OFFCURVE",
"48 365 CURVE SMOOTH"
);
}
);
width = 376;
}
);
note = bullet;
unicode = 2022;
},
